<svg width="20" height="20" viewBox="0 0 20 20" fill="none" xmlns="http://www.w3.org/2000/svg">
<path d="M13.963 8.44646L14.0235 8.43767C14.153 8.39788 14.2119 8.23222 14.1173 8.11834L10.0997 3.29705C10.0596 3.24897 10.0024 3.22658 9.94539 3.22673C9.88874 3.22687 9.83193 3.24926 9.79207 3.29705L5.77449 8.11834C5.66621 8.2486 5.75931 8.44646 5.92879 8.44646H13.963ZM9.80281 16.9289C9.88274 17.0247 10.0305 17.0247 10.1104 16.9289L14.128 12.1076C14.2364 11.9773 14.1432 11.7795 13.9737 11.7795H5.93953C5.77006 11.7795 5.67696 11.9773 5.78523 12.1076L9.80281 16.9289Z" fill="#33363D"/>
<path d="M9.79227 3.29733L5.77483 8.11825C5.66627 8.24852 5.75891 8.44629 5.92847 8.44629L13.9633 8.44629C14.1329 8.44629 14.2255 8.24852 14.117 8.11825L10.0996 3.29733C10.0196 3.20138 9.87222 3.20138 9.79227 3.29733Z" fill="#CDD1D5"/>
</svg>
