<svg width="20" height="20" viewBox="0 0 20 20" fill="none" xmlns="http://www.w3.org/2000/svg">
<path d="M13.9636 11.6672C14.0484 11.6673 14.1136 11.7166 14.1443 11.7824C14.1748 11.848 14.1709 11.9293 14.1169 11.9943L10.0994 16.8156C10.0194 16.9115 9.87171 16.9115 9.79175 16.8156L5.77515 11.9943C5.7212 11.9295 5.71556 11.8479 5.74585 11.7824C5.77645 11.7162 5.84328 11.6672 5.92847 11.6672H13.9636ZM9.80347 3.18473C9.88344 3.08883 10.0302 3.0888 10.1101 3.18473L14.1277 8.00504C14.2362 8.13523 14.1437 8.33294 13.9744 8.33317H5.93921C5.76965 8.33317 5.67734 8.13531 5.78589 8.00504L9.80347 3.18473Z" fill="#33363D"/>
<path d="M9.79227 16.8157L5.77483 11.9948C5.66627 11.8645 5.75891 11.6667 5.92847 11.6667L13.9633 11.6667C14.1329 11.6667 14.2255 11.8645 14.117 11.9948L10.0996 16.8157C10.0196 16.9117 9.87222 16.9117 9.79227 16.8157Z" fill="#CDD1D5"/>
</svg>
