<svg width="32" height="32" viewBox="0 0 32 32" fill="none" xmlns="http://www.w3.org/2000/svg">
<g clip-path="url(#clip0_189_5267)">
<mask id="mask0_189_5267" style="mask-type:luminance" maskUnits="userSpaceOnUse" x="0" y="0" width="32" height="32">
<path d="M0 1.90735e-06H32V32H0V1.90735e-06Z" fill="white"/>
</mask>
<g mask="url(#mask0_189_5267)">
<path d="M9.82031 17.4331C9.82031 16.4581 10.6107 15.6678 11.5857 15.6678C12.5607 15.6678 13.3511 16.4581 13.3511 17.4331" stroke="#33363D" stroke-width="1.6" stroke-miterlimit="10" stroke-linecap="round"/>
<path d="M18.6487 17.4331C18.6487 16.4581 19.4391 15.6678 20.414 15.6678C21.3891 15.6678 22.1794 16.4581 22.1794 17.4331" stroke="#33363D" stroke-width="1.6" stroke-miterlimit="10" stroke-linecap="round"/>
<path d="M12.9534 20.9635C13.5675 22.0042 14.6997 22.7029 15.9957 22.7029C17.2916 22.7029 18.4238 22.0042 19.038 20.9635" stroke="#33363D" stroke-width="1.6" stroke-miterlimit="10" stroke-linecap="round"/>
<path d="M28.3557 17.1265C28.3557 18.5715 27.1984 19.7462 25.7596 19.7734C24.5966 24.074 20.6668 27.2383 15.9981 27.2383C11.3293 27.2383 7.39947 24.074 6.23652 19.7734C4.7977 19.7462 3.64038 18.5715 3.64038 17.1265C3.64038 16.3953 3.93676 15.7333 4.41568 15.2539C4.88384 14.7862 5.52582 14.4929 6.23652 14.4796C7.39947 10.179 11.3293 7.01475 15.9981 7.01475C20.6668 7.01475 24.5966 10.179 25.7596 14.4796C26.4703 14.4929 27.1123 14.7862 27.5804 15.2539C28.0594 15.7333 28.3557 16.3953 28.3557 17.1265Z" stroke="#33363D" stroke-width="1.6" stroke-miterlimit="10"/>
<path d="M12.709 10.3064C12.709 12.1237 14.1822 13.5969 15.9995 13.5969C17.8168 13.5969 19.29 12.1237 19.29 10.3064C19.29 8.48915 17.8168 7.01597 15.9995 7.01597H15.4838C13.8187 7.01597 12.4688 5.66606 12.4688 4.00085" stroke="#33363D" stroke-width="1.6" stroke-miterlimit="10" stroke-linecap="round"/>
<path d="M8.1375 3.99982C8.1375 3.558 8.49567 3.19982 8.9375 3.19982C9.37933 3.19982 9.7375 3.558 9.7375 3.99982H8.1375ZM15.999 7.81489H11.9526V6.21489H15.999V7.81489ZM11.9526 7.81489C9.84552 7.81489 8.1375 6.1068 8.1375 3.99982H9.7375C9.7375 5.22316 10.7292 6.21489 11.9526 6.21489V7.81489Z" fill="#33363D"/>
</g>
</g>
<defs>
<clipPath id="clip0_189_5267">
<rect width="32" height="32" fill="white"/>
</clipPath>
</defs>
</svg>
