<svg width="32" height="32" viewBox="0 0 32 32" fill="none" xmlns="http://www.w3.org/2000/svg">
<path d="M7.0498 23.688C7.0498 24.7225 7.93695 25.6001 8.91699 25.6001H23.083C24.0938 25.6001 24.9502 24.7582 24.9502 23.7544V12.4692H7.0498V23.688ZM19.9502 9.72705C19.9502 8.65391 19.5297 7.62754 18.7871 6.87354C18.0916 6.16739 17.1669 5.75361 16.1953 5.70459L16 5.69971C14.9577 5.69971 13.9549 6.12022 13.2129 6.87354C12.4703 7.62754 12.0498 8.65392 12.0498 9.72705V10.3687H19.9502V9.72705ZM22.0498 10.3687H25.167C25.6084 10.3687 26.0316 10.525 26.3662 10.8032L26.5039 10.9302L26.6279 11.0698C26.9006 11.4076 27.0498 11.8296 27.0498 12.2651V23.7544C27.0498 25.9491 25.2222 27.6997 23.083 27.6997H8.91699C6.74704 27.6997 4.9502 25.8519 4.9502 23.688V12.2651C4.95023 11.7674 5.14475 11.2869 5.49609 10.9302L5.63379 10.8032C5.96836 10.525 6.39157 10.3687 6.83301 10.3687H9.9502V9.72705C9.9502 8.10722 10.584 6.55011 11.7168 5.3999C12.8501 4.24936 14.3904 3.6001 16 3.6001L16.3008 3.60791C17.8005 3.68344 19.2207 4.32124 20.2832 5.3999C21.416 6.55011 22.0498 8.10722 22.0498 9.72705V10.3687Z" fill="#33363D"/>
</svg>
