<svg width="24" height="24" viewBox="0 0 24 24" fill="none" xmlns="http://www.w3.org/2000/svg">
<path d="M11.4017 8.13148L15.2703 12.0001L11.4017 15.8687C10.9442 16.3262 10.9442 17.0682 11.4017 17.5262C11.8592 17.9837 12.6012 17.9837 13.0592 17.5262L17.7566 12.8288C18.2141 12.3713 18.2141 11.6293 17.7566 11.1713L13.0592 6.47398C12.6017 6.01648 11.8597 6.01648 11.4017 6.47398C10.9442 6.93148 10.9442 7.67352 11.4017 8.13148Z" fill="#D8E5FD"/>
<path d="M7.90297 6.47398L12.6003 11.1713C13.0578 11.6288 13.0578 12.3709 12.6003 12.8288L7.90297 17.5262C7.44547 17.9837 6.70344 17.9837 6.24547 17.5262C5.78797 17.0687 5.78797 16.3266 6.24547 15.8687L10.1141 12.0001L6.24547 8.13148C5.78797 7.67398 5.78797 6.93195 6.24547 6.47398C6.70297 6.01648 7.445 6.01648 7.90297 6.47398Z" fill="#256EF4"/>
</svg>
