<svg width="25" height="24" viewBox="0 0 25 24" fill="none" xmlns="http://www.w3.org/2000/svg">
<path d="M22.4961 6.93238C22.4727 6.71726 22.3391 6.52687 22.1393 6.43363L12.7643 2.05862C12.5967 1.98046 12.4032 1.98046 12.2357 2.05862L2.86066 6.43363C2.6609 6.52687 2.52723 6.71722 2.50383 6.93238C2.50332 6.93687 2.5 6.99671 2.5 6.99999V17.625C2.5 17.8805 2.65559 18.1104 2.89289 18.2053L12.2679 21.9553C12.3424 21.9851 12.4212 22 12.5 22C12.5788 22 12.6576 21.9851 12.7321 21.9553L22.1071 18.2053C22.3444 18.1104 22.5 17.8805 22.5 17.625V6.99999C22.5 6.99671 22.4966 6.93683 22.4961 6.93238ZM12.5 3.31468L20.3025 6.95585L17.298 8.15765L9.34871 4.7853L12.5 3.31468ZM7.82461 5.49655L15.6506 8.8166L12.5 10.0768L4.6975 6.95585L7.82461 5.49655ZM3.75 7.92312L11.875 11.1731V20.4518L3.75 17.2018V7.92312ZM13.125 20.4519V11.1731L21.25 7.92312V17.2018L13.125 20.4519Z" fill="#33363D"/>
</svg>
