<svg width="32" height="32" viewBox="0 0 32 32" fill="none" xmlns="http://www.w3.org/2000/svg">
<path d="M21.5977 2.66699C22.1868 2.66699 22.665 3.14429 22.665 3.7334V6.66699H25.5986C26.9241 6.66701 27.999 7.74191 27.999 9.06738V25.6006C27.9988 26.9259 26.924 28 25.5986 28H6.40039C5.07502 28 4.00018 26.9259 4 25.6006V9.06641C4.00014 7.74103 5.07498 6.66698 6.40039 6.66699H9.33301V3.7334C9.33301 3.14429 9.81129 2.66699 10.4004 2.66699C10.9893 2.6672 11.4668 3.14442 11.4668 3.7334V6.66699H20.5312V3.7334C20.5312 3.14438 21.0087 2.66713 21.5977 2.66699ZM6.13379 25.6006C6.13397 25.7477 6.25323 25.8672 6.40039 25.8672H25.5986C25.7458 25.8672 25.865 25.7477 25.8652 25.6006V14.4004H6.13379V25.6006ZM6.40039 8.7998C6.2532 8.7998 6.13393 8.91925 6.13379 9.06641V12.2666H25.8652V9.06738C25.8652 8.92011 25.7459 8.79981 25.5986 8.7998H6.40039Z" fill="#33363D"/>
<path d="M12.8602 23.3445C13.0335 23.5178 13.2602 23.6067 13.4868 23.6067C13.7135 23.6067 13.9402 23.5178 14.1135 23.3445L16.0023 21.46L17.8868 23.3445C18.0601 23.5178 18.2868 23.6067 18.5135 23.6067C18.7401 23.6067 18.9668 23.5178 19.1401 23.3445C19.4868 22.9978 19.4868 22.4334 19.1401 22.0868L17.2601 20.2023L19.1446 18.3178C19.4913 17.9711 19.4913 17.4067 19.1446 17.0601C18.7979 16.7134 18.2334 16.7134 17.8868 17.0601L16.0023 18.9445L14.1179 17.0601C13.7712 16.7134 13.2067 16.7134 12.8601 17.0601C12.5134 17.4068 12.5134 17.9712 12.8601 18.3178L14.7446 20.2023L12.8601 22.0868C12.5135 22.4335 12.5135 22.9978 12.8602 23.3445Z" fill="#33363D"/>
</svg>
