<svg width="32" height="32" viewBox="0 0 32 32" fill="none" xmlns="http://www.w3.org/2000/svg">
<path fill-rule="evenodd" clip-rule="evenodd" d="M21.4553 17.8197C22.373 17.8197 23.117 17.0757 23.117 16.1579C23.117 15.2401 22.373 14.4961 21.4553 14.4961C20.5375 14.4961 19.7935 15.2401 19.7935 16.1579C19.7935 17.0757 20.5375 17.8197 21.4553 17.8197ZM21.4553 19.7189C23.4219 19.7189 25.0162 18.1246 25.0162 16.1579C25.0162 14.1912 23.4219 12.5969 21.4553 12.5969C19.4886 12.5969 17.8943 14.1912 17.8943 16.1579C17.8943 18.1246 19.4886 19.7189 21.4553 19.7189Z" fill="#33363D"/>
<path fill-rule="evenodd" clip-rule="evenodd" d="M15.8612 23.7075C19.085 20.9634 23.8235 20.9634 27.0473 23.7075C27.6402 24.2122 27.9818 24.9515 27.9818 25.7301V27.5533H14.9268V25.7301C14.9268 24.9515 15.2684 24.2122 15.8612 23.7075ZM25.8163 25.1537C23.302 23.0136 19.6065 23.0136 17.0922 25.1537C16.9427 25.281 16.8493 25.4606 16.8298 25.6541H26.0788C26.0593 25.4606 25.9658 25.281 25.8163 25.1537Z" fill="#33363D"/>
<path fill-rule="evenodd" clip-rule="evenodd" d="M11.1407 5.87462C11.1407 5.39158 10.7491 5 10.2661 5C9.78307 5 9.39149 5.39158 9.39149 5.87462V8.27997L6.98623 8.27994C5.89938 8.27993 5.01831 9.16099 5.01831 10.2478V23.8047C5.01831 24.8915 5.89937 25.7725 6.98621 25.7725H13.0304V25.7296C13.0304 25.1379 13.1454 24.5594 13.362 24.0233H6.98621C6.86545 24.0233 6.76755 23.9254 6.76755 23.8047V14.621H16.2125C16.3997 13.9815 16.7008 13.3906 17.0923 12.8718H6.76755V10.2478C6.76755 10.1271 6.86545 10.0292 6.98621 10.0292L22.7285 10.0294C22.8493 10.0294 22.9472 10.1273 22.9472 10.248V10.9044C23.5856 11.0856 24.1763 11.38 24.6964 11.7645V10.248C24.6964 9.1612 23.8154 8.28014 22.7285 8.28013L20.3225 8.2801V5.87462C20.3225 5.39158 19.9309 5 19.4479 5C18.9648 5 18.5732 5.39158 18.5732 5.87462V8.28008L11.1407 8.27999V5.87462ZM24.6964 14.6848C24.3255 13.8695 23.6563 13.2186 22.8281 12.8718H20.0787C19.2722 13.2096 18.6164 13.8356 18.2401 14.621H20.8197C21.015 14.5404 21.229 14.4959 21.4534 14.4959C21.6778 14.4959 21.8918 14.5404 22.0871 14.621H22.9472V15.4287C23.0548 15.6488 23.1152 15.8962 23.1152 16.1577C23.1152 16.4192 23.0548 16.6665 22.9472 16.8866V19.3911C23.7203 19.0333 24.3435 18.4064 24.6964 17.6306V14.6848ZM24.6964 22.2787C24.129 22.049 23.5424 21.8821 22.9472 21.7781V23.7146C23.0026 23.7272 23.058 23.7404 23.1132 23.7544C23.633 23.8861 24.1403 24.0808 24.6231 24.3385C24.6709 24.1687 24.6964 23.9897 24.6964 23.8047V22.2787ZM23.4038 25.6536H16.8326C16.8521 25.4602 16.9455 25.2805 17.0951 25.1532C17.6682 24.6654 18.3027 24.2887 18.9706 24.0233H15.5501C15.2074 24.4321 14.9947 24.9363 14.9423 25.47C14.9363 25.5309 14.9324 25.5921 14.9307 25.6536C14.9299 25.6789 14.9296 25.7042 14.9296 25.7296V25.7725H22.7285C22.9658 25.7725 23.1932 25.7306 23.4038 25.6536ZM20.6797 19.6344C20.734 19.5046 20.764 19.3621 20.764 19.2126C20.764 18.6088 20.2746 18.1193 19.6708 18.1193C19.32 18.1193 19.0079 18.2845 18.8078 18.5413C19.2946 19.0813 19.9444 19.4715 20.6797 19.6344Z" fill="#33363D"/>
</svg>
