<svg width="20" height="20" viewBox="0 0 20 20" fill="none" xmlns="http://www.w3.org/2000/svg">
<path d="M15.709 3.33203C16.4452 3.33294 17.1512 3.62597 17.6719 4.14648C18.1926 4.66723 18.4854 5.37391 18.4863 6.11035V13.8877C18.4854 14.6241 18.1926 15.3308 17.6719 15.8516C17.1512 16.3721 16.4452 16.6651 15.709 16.666H4.59766C3.86141 16.6651 3.15545 16.3721 2.63477 15.8516C2.11402 15.3308 1.82119 14.6241 1.82031 13.8877V6.11035C1.82119 5.37391 2.11402 4.66723 2.63477 4.14648C3.15545 3.62597 3.86141 3.33294 4.59766 3.33203H15.709ZM2.93066 13.8877C2.93116 14.3295 3.10757 14.753 3.41992 15.0654C3.73235 15.3779 4.15582 15.5542 4.59766 15.5547H15.709C16.1508 15.5542 16.5743 15.3779 16.8867 15.0654C17.1991 14.753 17.3755 14.3295 17.376 13.8877V8.33203H2.93066V13.8877ZM9.04199 11.666C9.18916 11.666 9.33042 11.7242 9.43457 11.8281C9.53876 11.9323 9.59766 12.0743 9.59766 12.2217C9.59754 12.3689 9.53865 12.5102 9.43457 12.6143C9.33041 12.7182 9.18918 12.7764 9.04199 12.7764H4.59766C4.45043 12.7763 4.30922 12.7183 4.20508 12.6143C4.10099 12.5102 4.04211 12.3689 4.04199 12.2217C4.04199 12.0743 4.10089 11.9323 4.20508 11.8281C4.30922 11.7241 4.45046 11.666 4.59766 11.666H9.04199ZM6.82031 9.44336C6.96754 9.44345 7.10878 9.50234 7.21289 9.60645C7.31698 9.71062 7.37598 9.85176 7.37598 9.99902C7.37598 10.1463 7.31698 10.2874 7.21289 10.3916C7.10878 10.4957 6.96754 10.5546 6.82031 10.5547H4.59766C4.45035 10.5547 4.30924 10.4958 4.20508 10.3916C4.10093 10.2874 4.04199 10.1463 4.04199 9.99902C4.04199 9.85171 4.10093 9.71063 4.20508 9.60645C4.30924 9.50228 4.45035 9.44339 4.59766 9.44336H6.82031ZM4.59766 4.44336C4.15582 4.44389 3.73235 4.62019 3.41992 4.93262C3.10757 5.24505 2.93116 5.66855 2.93066 6.11035V7.22168H17.376V6.11035C17.3755 5.66855 17.1991 5.24505 16.8867 4.93262C16.5743 4.62019 16.1508 4.44389 15.709 4.44336H4.59766Z" fill="white"/>
</svg>
