<svg width="16" height="16" viewBox="0 0 16 16" fill="none" xmlns="http://www.w3.org/2000/svg">
<path fill-rule="evenodd" clip-rule="evenodd" d="M11.6961 7.53586C9.91319 7.53586 8.46534 8.9837 8.46534 10.7666C8.46534 12.5495 9.91319 13.9974 11.6961 13.9974C13.479 13.9974 14.9269 12.5495 14.9269 10.7666C14.9269 8.9837 13.479 7.53586 11.6961 7.53586ZM11.6961 8.45893C12.97 8.45893 14.0038 9.49278 14.0038 10.7666C14.0038 12.0405 12.97 13.0743 11.6961 13.0743C10.4223 13.0743 9.38842 12.0405 9.38842 10.7666C9.38842 9.49278 10.4223 8.45893 11.6961 8.45893ZM10.216 11.0929L11.139 12.016C11.319 12.1965 11.6117 12.1965 11.7917 12.016L13.1763 10.6314C13.3563 10.4514 13.3563 10.1588 13.1763 9.97878C12.9963 9.79878 12.7037 9.79878 12.5237 9.97878L11.4653 11.0371L10.8686 10.4403C10.6886 10.2603 10.396 10.2603 10.216 10.4403C10.036 10.6203 10.036 10.9129 10.216 11.0929Z" fill="white"/>
<path d="M12.5723 2.66406C13.1613 2.66483 13.726 2.89921 14.1426 3.31576C14.5591 3.7323 14.7935 4.29699 14.7943 4.88607V8.52799C14.5514 8.16933 14.2505 7.85337 13.9056 7.59245V6.66406H2.34961V11.1087C2.35007 11.4621 2.49097 11.8009 2.74089 12.0508C2.9908 12.3007 3.32952 12.4416 3.68294 12.4421H7.99284C8.14945 12.7656 8.34941 13.064 8.58464 13.3307H3.68294C3.09387 13.33 2.52917 13.0956 2.11263 12.679C1.69609 12.2625 1.4617 11.6978 1.46094 11.1087V4.88607C1.4617 4.29699 1.69609 3.7323 2.11263 3.31576C2.52917 2.89921 3.09387 2.66483 3.68294 2.66406H12.5723ZM7.23893 9.33073C7.35668 9.33079 7.46945 9.37771 7.55273 9.46094C7.63608 9.54429 7.68294 9.65752 7.68294 9.77539C7.68289 9.89319 7.63603 10.0059 7.55273 10.0892C7.46944 10.1725 7.35673 10.2193 7.23893 10.2194H3.68294C3.56515 10.2193 3.45244 10.1725 3.36914 10.0892C3.28584 10.0059 3.23899 9.89319 3.23893 9.77539C3.23893 9.65752 3.28579 9.54429 3.36914 9.46094C3.45243 9.37771 3.5652 9.33079 3.68294 9.33073H7.23893ZM5.46094 7.55273C5.57881 7.55273 5.69204 7.59959 5.77539 7.68294C5.85874 7.76629 5.9056 7.87952 5.9056 7.9974C5.9056 8.11527 5.85874 8.2285 5.77539 8.31185C5.69204 8.3952 5.57881 8.44206 5.46094 8.44206H3.68294C3.56525 8.442 3.45242 8.39501 3.36914 8.31185C3.28579 8.2285 3.23893 8.11527 3.23893 7.9974C3.23893 7.87952 3.28579 7.76629 3.36914 7.68294C3.45242 7.59978 3.56525 7.55279 3.68294 7.55273H5.46094ZM3.68294 3.55273C3.32952 3.55319 2.9908 3.6941 2.74089 3.94401C2.49097 4.19392 2.35007 4.53265 2.34961 4.88607V5.77539H13.9056V4.88607C13.9051 4.53265 13.7642 4.19392 13.5143 3.94401C13.2644 3.6941 12.9257 3.55319 12.5723 3.55273H3.68294Z" fill="white"/>
</svg>
