<svg width="40" height="40" viewBox="0 0 40 40" fill="none" xmlns="http://www.w3.org/2000/svg">
<path d="M20 0.5C30.7696 0.5 39.5 9.23045 39.5 20C39.5 30.7696 30.7696 39.5 20 39.5C9.23045 39.5 0.5 30.7696 0.5 20C0.5 9.23045 9.23045 0.5 20 0.5Z" fill="white"/>
<path d="M20 0.5C30.7696 0.5 39.5 9.23045 39.5 20C39.5 30.7696 30.7696 39.5 20 39.5C9.23045 39.5 0.5 30.7696 0.5 20C0.5 9.23045 9.23045 0.5 20 0.5Z" stroke="#CDD1D5"/>
<path fill-rule="evenodd" clip-rule="evenodd" d="M16.4046 27.7354C16.7001 28.0638 17.206 28.0904 17.5344 27.7948L25.5344 20.5951C25.703 20.4434 25.7992 20.2273 25.7992 20.0005C25.7992 19.7737 25.703 19.5576 25.5344 19.4059L17.5344 12.2054C17.206 11.9098 16.7002 11.9364 16.4046 12.2648C16.109 12.5932 16.1356 13.099 16.464 13.3946L23.8034 20.0005L16.4641 26.6056C16.1357 26.9011 16.109 27.4069 16.4046 27.7354Z" fill="#33363D"/>
</svg>
