<svg width="40" height="40" viewBox="0 0 40 40" fill="none" xmlns="http://www.w3.org/2000/svg">
<path d="M20 0.5C30.7696 0.5 39.5 9.23045 39.5 20C39.5 30.7696 30.7696 39.5 20 39.5C9.23045 39.5 0.5 30.7696 0.5 20C0.5 9.23045 9.23045 0.5 20 0.5Z" fill="white"/>
<path d="M20 0.5C30.7696 0.5 39.5 9.23045 39.5 20C39.5 30.7696 30.7696 39.5 20 39.5C9.23045 39.5 0.5 30.7696 0.5 20C0.5 9.23045 9.23045 0.5 20 0.5Z" stroke="#CDD1D5"/>
<path fill-rule="evenodd" clip-rule="evenodd" d="M23.5954 27.7354C23.2998 28.0638 22.794 28.0904 22.4656 27.7948L14.4656 20.5946C14.297 20.4429 14.2008 20.2268 14.2008 20C14.2008 19.7732 14.297 19.5571 14.4656 19.4054L22.4656 12.2054C22.794 11.9098 23.2998 11.9364 23.5954 12.2648C23.891 12.5932 23.8644 13.0991 23.5359 13.3946L16.1966 20L23.536 26.6056C23.8644 26.9011 23.891 27.407 23.5954 27.7354Z" fill="#33363D"/>
</svg>
