<svg width="40" height="40" viewBox="0 0 40 40" fill="none" xmlns="http://www.w3.org/2000/svg">
<path d="M20 0.5C30.7696 0.5 39.5 9.23045 39.5 20C39.5 30.7696 30.7696 39.5 20 39.5C9.23045 39.5 0.5 30.7696 0.5 20C0.5 9.23045 9.23045 0.5 20 0.5Z" fill="white"/>
<path d="M20 0.5C30.7696 0.5 39.5 9.23045 39.5 20C39.5 30.7696 30.7696 39.5 20 39.5C9.23045 39.5 0.5 30.7696 0.5 20C0.5 9.23045 9.23045 0.5 20 0.5Z" stroke="#CDD1D5"/>
<path fill-rule="evenodd" clip-rule="evenodd" d="M15.6488 12.0808C15.9239 11.9468 16.2513 11.9814 16.4923 12.17L25.6923 19.3702C25.886 19.5218 25.9992 19.7542 25.9992 20.0002C25.9992 20.2462 25.886 20.4786 25.6923 20.6302L16.4923 27.8302C16.2513 28.0188 15.9239 28.0534 15.6488 27.9194C15.3737 27.7854 15.1992 27.5062 15.1992 27.2002V12.8C15.1992 12.494 15.3738 12.2148 15.6488 12.0808ZM16.7992 14.442V25.5582L23.9012 20.0002L16.7992 14.442Z" fill="#33363D"/>
</svg>
