<svg width="40" height="40" viewBox="0 0 40 40" fill="none" xmlns="http://www.w3.org/2000/svg">
<path d="M20 0.5C30.7696 0.5 39.5 9.23045 39.5 20C39.5 30.7696 30.7696 39.5 20 39.5C9.23045 39.5 0.5 30.7696 0.5 20C0.5 9.23045 9.23045 0.5 20 0.5Z" fill="white"/>
<path d="M20 0.5C30.7696 0.5 39.5 9.23045 39.5 20C39.5 30.7696 30.7696 39.5 20 39.5C9.23045 39.5 0.5 30.7696 0.5 20C0.5 9.23045 9.23045 0.5 20 0.5Z" stroke="#CDD1D5"/>
<path d="M14.999 12C15.4408 12 15.7987 12.3581 15.7988 12.7998V27.2002C15.7988 27.642 15.4409 28 14.999 28C14.5573 27.9999 14.1992 27.642 14.1992 27.2002V12.7998C14.1993 12.3581 14.5574 12.0001 14.999 12ZM24.999 12C25.4408 12 25.7987 12.3581 25.7988 12.7998V27.2002C25.7988 27.642 25.4409 28 24.999 28C24.5573 27.9999 24.1992 27.642 24.1992 27.2002V12.7998C24.1993 12.3581 24.5574 12.0001 24.999 12Z" fill="#33363D"/>
</svg>
