<svg width="32" height="32" viewBox="0 0 32 32" fill="none" xmlns="http://www.w3.org/2000/svg">
<path d="M24.9866 2.6001H7.24731V4.40408H24.9866C26.0973 4.40408 27.0011 5.30789 27.0011 6.41852V23.6767H21.3486V25.4807H27.9031C28.4013 25.4807 28.8051 25.0769 28.8051 24.5787V6.41857C28.8051 4.31301 27.0922 2.6001 24.9866 2.6001Z" fill="#33363D"/>
<path d="M10.4944 23.7069V5.8473C10.4944 4.05682 9.03769 2.6001 7.24721 2.6001C5.45678 2.6001 4 4.05682 4 5.8473V17.2726C4 17.7708 4.40378 18.1746 4.90202 18.1746H8.69043V24.6089C8.69043 25.1071 9.09422 25.5109 9.59245 25.5109H16.147V23.7069H10.4944V23.7069ZM8.69043 16.3706H5.80403V5.8473C5.80403 5.05144 6.45166 4.40413 7.24721 4.40413C8.04307 4.40413 8.69038 5.05176 8.69038 5.8473V16.3706H8.69043Z" fill="#33363D"/>
<path d="M18.8831 10.5979H13.4711C12.9729 10.5979 12.5691 11.0017 12.5691 11.4999C12.5691 11.9981 12.9729 12.4019 13.4711 12.4019H18.8831C19.3813 12.4019 19.7851 11.9981 19.7851 11.4999C19.7851 11.0017 19.3813 10.5979 18.8831 10.5979Z" fill="#33363D"/>
<path d="M23.5735 6.80933H13.4711C12.9729 6.80933 12.5691 7.21311 12.5691 7.71134C12.5691 8.20952 12.9729 8.61336 13.4711 8.61336H23.5735C24.0717 8.61336 24.4755 8.20957 24.4755 7.71134C24.4755 7.21311 24.0717 6.80933 23.5735 6.80933Z" fill="#33363D"/>
<path d="M18.7328 14.5066C15.9475 14.5066 13.6816 16.7724 13.6816 19.5578C13.6816 22.3431 15.9475 24.609 18.7328 24.609C21.5182 24.609 23.784 22.3428 23.784 19.5578C23.784 16.7727 21.5182 14.5066 18.7328 14.5066ZM18.7328 22.8052C16.9423 22.8052 15.4856 21.3485 15.4856 19.558C15.4856 17.7676 16.9423 16.3108 18.7328 16.3108C20.5233 16.3108 21.98 17.7676 21.98 19.558C21.98 21.3485 20.5233 22.8052 18.7328 22.8052Z" fill="#33363D"/>
<path d="M22.3998 28.6619L22.1596 22.7087L20.3571 22.7815L20.5281 27.0203L19.2133 26.1914C18.9198 26.0065 18.5452 26.0065 18.2515 26.1914L16.928 27.0257L17.0783 22.777L15.2755 22.713L15.065 28.6662C15.053 29.0002 15.2271 29.3135 15.5167 29.4801C15.8065 29.6466 16.1646 29.6397 16.4472 29.4611L18.7326 28.0203L21.018 29.4611C21.165 29.5537 21.3316 29.6 21.499 29.6C21.6551 29.6 21.8111 29.5597 21.9503 29.4792C22.2404 29.3114 22.4136 28.9966 22.3998 28.6619Z" fill="#33363D"/>
</svg>
