<svg width="20" height="20" viewBox="0 0 20 20" fill="none" xmlns="http://www.w3.org/2000/svg">
<path d="M9.99805 1.41406C10.2029 1.41407 10.3961 1.50863 10.5225 1.66992C11.4622 2.86944 12.905 3.64648 14.54 3.64648H14.5439C15.1614 3.64648 15.4434 3.53589 16.0908 3.28125C16.296 3.20056 16.5277 3.22643 16.71 3.35059C16.8922 3.47476 17.001 3.68087 17.001 3.90137V9.26465C17.0008 12.9934 15.2953 15.277 13.5762 16.6094C12.7252 17.2688 11.8763 17.6923 11.2412 17.9512C10.923 18.0809 10.6553 18.1699 10.4648 18.2275C10.3697 18.2563 10.2935 18.2779 10.2393 18.292C10.2122 18.299 10.1905 18.3038 10.1748 18.3076L10.1553 18.3125L10.1494 18.3135L10.1475 18.3145H10.1465C10.0502 18.336 9.94876 18.3362 9.85254 18.3145H9.85156L9.84961 18.3135L9.84277 18.3125L9.82422 18.3076C9.80853 18.3038 9.78683 18.2981 9.75977 18.291C9.7056 18.2768 9.62931 18.2555 9.53418 18.2266C9.34372 18.1686 9.07602 18.0785 8.75781 17.9482C8.12303 17.6884 7.27516 17.2645 6.4248 16.6045C4.70666 15.271 3.00111 12.9878 3.00098 9.26465L3 3.90137C2.99999 3.68071 3.10958 3.47474 3.29199 3.35059C3.47436 3.22652 3.70593 3.20035 3.91113 3.28125C4.55582 3.53559 4.8386 3.64648 5.45605 3.64648C7.09113 3.64646 8.53388 2.86944 9.47363 1.66992C9.6 1.50862 9.79314 1.41406 9.99805 1.41406ZM10 16.9736L10.001 16.9746C10.0245 16.9679 10.0506 16.9598 10.0791 16.9512C10.235 16.904 10.4628 16.8281 10.7383 16.7158C11.2908 16.4906 12.0262 16.1233 12.7588 15.5557C13.9277 14.6498 15.1041 13.226 15.5146 11H10V16.9736ZM9.99805 3.08496C8.8386 4.24662 7.24125 4.97948 5.45605 4.97949C5.00227 4.97949 4.65431 4.92827 4.33301 4.84277L4.33398 9.26367C4.33398 9.89079 4.38892 10.4682 4.4873 11H10V3.08594L9.99805 3.08496Z" fill="#33363D"/>
</svg>
