<svg width="32" height="32" viewBox="0 0 32 32" fill="none" xmlns="http://www.w3.org/2000/svg">
<path d="M22.9316 4C25.7297 4.00014 27.998 6.26836 27.998 9.06641C27.998 11.8645 25.7297 14.1335 22.9316 14.1338C22.0479 14.1338 21.2174 13.9056 20.4941 13.5078L13.5078 20.4941C13.771 20.9722 13.9582 21.4973 14.0557 22.0537H17.9424C18.3588 19.6748 20.4335 17.8662 22.9316 17.8662C25.7297 17.8664 27.998 20.1355 27.998 22.9336C27.9979 25.7316 25.7297 27.9999 22.9316 28C20.5663 28 18.5797 26.379 18.0215 24.1875H13.9766C13.4184 26.3791 11.4317 28 9.06641 28C6.26836 27.9999 4.00008 25.7317 4 22.9336C4 20.1355 6.2683 17.8674 9.06641 17.8672C10.2065 17.8672 11.2589 18.2434 12.1055 18.8789L18.8779 12.1064C18.4102 11.4837 18.084 10.7497 17.9434 9.95117H14.0547C13.6362 12.3276 11.5628 14.1338 9.06641 14.1338C6.26847 14.1337 4.00026 11.8653 4 9.06738C4 6.26926 6.2683 4.00017 9.06641 4C11.4334 3.99997 13.4211 5.62346 13.9775 7.81738H18.0205C18.577 5.62342 20.5646 4.00006 22.9316 4ZM9.06641 20C7.44647 20.0002 6.13379 21.3137 6.13379 22.9336C6.13388 24.5534 7.44652 25.8661 9.06641 25.8662C10.5069 25.8662 11.7023 24.8279 11.9502 23.459C11.9146 23.3526 11.8945 23.2385 11.8945 23.1201C11.8946 22.9648 11.9285 22.8176 11.9883 22.6846C11.8619 21.1811 10.6026 20 9.06641 20ZM22.9316 20C21.6181 20 20.5065 20.8635 20.1328 22.0537H22.666C23.2548 22.0539 23.7322 22.5314 23.7324 23.1201C23.7324 23.7091 23.2549 24.1873 22.666 24.1875H20.2832C20.7538 25.1792 21.761 25.8662 22.9316 25.8662C24.5515 25.8661 25.8641 24.5534 25.8643 22.9336C25.8642 21.3137 24.5515 20.0002 22.9316 20ZM9.06641 6.13379C7.44663 6.13395 6.13405 7.44675 6.13379 9.06641C6.13379 10.6863 7.44646 11.9999 9.06641 12C10.3782 12 11.4891 11.1389 11.8643 9.95117H9.33203C8.74317 9.95103 8.26583 9.47361 8.26562 8.88477C8.26562 8.29575 8.74305 7.81752 9.33203 7.81738H11.7178C11.2483 6.82301 10.239 6.13378 9.06641 6.13379ZM22.9316 6.13379C21.3117 6.13383 19.9982 7.44652 19.998 9.06641C19.998 10.6864 21.3116 12 22.9316 12C24.5515 11.9997 25.8643 10.6863 25.8643 9.06641C25.8642 7.44659 24.5514 6.13396 22.9316 6.13379Z" fill="#33363D"/>
</svg>
