<svg width="32" height="32" viewBox="0 0 32 32" fill="none" xmlns="http://www.w3.org/2000/svg">
<path d="M25.5986 4C26.9241 4.00002 27.999 5.07492 27.999 6.40039V25.6006C27.9988 26.9259 26.924 28 25.5986 28H6.40039C5.07502 28 4.00018 26.9259 4 25.6006V6.40039C4 5.0749 5.0749 3.99998 6.40039 4H25.5986ZM6.40039 6.13379C6.25311 6.13379 6.13379 6.25311 6.13379 6.40039V25.6006C6.13397 25.7477 6.25323 25.8672 6.40039 25.8672H25.5986C25.7458 25.8672 25.8651 25.7477 25.8652 25.6006V6.40039C25.8652 6.25312 25.7459 6.13379 25.5986 6.13379H6.40039ZM15.999 17.6006C17.4485 17.6006 18.8747 18.0076 20.0352 18.7812C21.1974 19.5561 22.0448 20.6698 22.3672 21.9648C22.5095 22.5365 22.1615 23.1155 21.5898 23.2578C21.0184 23.3998 20.4403 23.0518 20.2979 22.4805C20.1207 21.7687 19.6332 21.0778 18.8516 20.5566C18.068 20.0343 17.0603 19.7334 15.999 19.7334C14.9379 19.7334 13.93 20.0343 13.1465 20.5566C12.3649 21.0778 11.8783 21.7688 11.7012 22.4805C11.5588 23.052 10.9798 23.4001 10.4082 23.2578C9.83656 23.1155 9.48856 22.5365 9.63086 21.9648C9.95328 20.6697 10.8016 19.5561 11.9639 18.7812C13.1242 18.0078 14.5498 17.6006 15.999 17.6006ZM15.999 8.80078C18.0609 8.80082 19.7324 10.4723 19.7324 12.5342C19.7324 14.596 18.0608 16.2675 15.999 16.2676C13.9372 16.2676 12.2657 14.596 12.2656 12.5342C12.2656 10.4723 13.9372 8.80078 15.999 8.80078ZM15.999 10.9346C15.1154 10.9346 14.3994 11.6505 14.3994 12.5342C14.3994 13.4178 15.1154 14.1338 15.999 14.1338C16.8826 14.1338 17.5986 13.4178 17.5986 12.5342C17.5986 11.6505 16.8826 10.9346 15.999 10.9346Z" fill="#33363D"/>
</svg>
