<svg width="10" height="11" viewBox="0 0 10 11" fill="none" xmlns="http://www.w3.org/2000/svg">
<path d="M7.75174 4.39153H3.63229V3.83875C3.62674 3.07764 4.25174 2.44708 5.01007 2.44708C5.4684 2.44708 5.87949 2.67764 6.13229 3.03041C6.24062 3.18319 6.40729 3.28041 6.59618 3.28041C6.85968 3.28041 7.14707 3.001 7.15729 2.7193C7.1624 2.578 7.0966 2.46683 7.05729 2.40819C6.88685 2.15394 6.17088 1.33 5.01007 1.33597C3.98696 1.34125 3.32693 1.98758 3.24063 2.07483C2.52857 2.79478 2.51979 3.68239 2.52118 3.84705V4.3915H2.25174C1.77674 4.3915 1.39062 4.78594 1.39062 5.27483V8.78594C1.39062 9.27483 1.77674 9.66928 2.25174 9.66928H7.75174C8.22674 9.66928 8.61285 9.27483 8.61285 8.78594V5.27483C8.61285 4.78594 8.22674 4.39153 7.75174 4.39153ZM5.27951 7.11094V7.72483C5.27951 7.87761 5.15451 8.00261 5.00174 8.00261C4.84896 8.00261 4.72396 7.87761 4.72396 7.72483V7.11094C4.42118 6.97761 4.23229 6.63872 4.33785 6.26928C4.40174 6.04705 4.58507 5.8665 4.81007 5.80539C5.27674 5.68039 5.69618 6.02761 5.69618 6.47483C5.69618 6.75819 5.52396 7.00264 5.27951 7.11094Z" fill="#256EF4"/>
</svg>
