<svg width="24" height="24" viewBox="0 0 24 24" fill="none" xmlns="http://www.w3.org/2000/svg">
<path d="M2 12C2 17.5228 6.47715 22 12 22C17.5228 22 22 17.5228 22 12C22 6.47715 17.5228 2 12 2C6.47715 2 2 6.47715 2 12Z" fill="#063A74"/>
<path fill-rule="evenodd" clip-rule="evenodd" d="M15.7514 8.33878C16.1161 8.58805 16.2098 9.08586 15.9605 9.45065L11.8605 15.4506C11.7262 15.6472 11.5114 15.7737 11.2744 15.7958C11.0374 15.818 10.8029 15.7334 10.6345 15.5652L8.13293 13.0652C7.82041 12.7528 7.82025 12.2463 8.13258 11.9338C8.4449 11.6213 8.95143 11.6211 9.26395 11.9334L11.0835 13.7518L14.6395 8.54794C14.8888 8.18315 15.3866 8.0895 15.7514 8.33878Z" fill="white"/>
</svg>
