<svg width="10" height="11" viewBox="0 0 10 11" fill="none" xmlns="http://www.w3.org/2000/svg">
<path d="M5.0127 1.33691C6.01926 1.35408 6.66744 1.98877 6.75293 2.0752C7.4644 2.79463 7.47403 3.68114 7.47266 3.84668V4.39062H7.75195C8.22685 4.39075 8.61328 4.7856 8.61328 5.27441V8.78516C8.61324 9.27393 8.22683 9.66785 7.75195 9.66797H2.25195C1.77698 9.66797 1.39067 9.274 1.39062 8.78516V5.27441C1.39062 4.78553 1.77695 4.39062 2.25195 4.39062H2.52344V3.84668C2.52206 3.68114 2.5317 2.79463 3.24316 2.0752C3.32865 1.98877 3.97684 1.35408 4.9834 1.33691V1.33594H5.0127V1.33691ZM5.69629 6.47363C5.69609 6.0267 5.27694 5.68002 4.81055 5.80469C4.58555 5.8658 4.40178 6.04633 4.33789 6.26855C4.23244 6.63788 4.42099 6.97698 4.72363 7.11035V7.72363C4.72363 7.87641 4.84918 8.00195 5.00195 8.00195C5.15463 8.00183 5.2793 7.87634 5.2793 7.72363V7.11035C5.52374 7.00205 5.69629 6.75699 5.69629 6.47363ZM4.99805 2.44727C4.2462 2.45517 3.62925 3.08257 3.63477 3.83887V4.39062H6.36133V3.83887C6.36685 3.08257 5.74989 2.45517 4.99805 2.44727Z" fill="#6D7882"/>
</svg>
