<svg width="25" height="24" viewBox="0 0 25 24" fill="none" xmlns="http://www.w3.org/2000/svg">
<path d="M11.9017 8.12953L15.7703 11.9981L11.9017 15.8667C11.4442 16.3242 11.4442 17.0662 11.9017 17.5242C12.3592 17.9817 13.1012 17.9817 13.5592 17.5242L18.2566 12.8269C18.7141 12.3694 18.7141 11.6273 18.2566 11.1694L13.5592 6.47203C13.1017 6.01453 12.3597 6.01453 11.9017 6.47203C11.4442 6.92953 11.4442 7.67156 11.9017 8.12953Z" fill="#D5D5D5"/>
<path d="M8.40297 6.47203L13.1003 11.1694C13.5578 11.6269 13.5578 12.3689 13.1003 12.8269L8.40297 17.5242C7.94547 17.9817 7.20344 17.9817 6.74547 17.5242C6.28797 17.0667 6.28797 16.3247 6.74547 15.8667L10.6141 11.9981L6.74547 8.12953C6.28797 7.67203 6.28797 6.93 6.74547 6.47203C7.20297 6.01453 7.945 6.01453 8.40297 6.47203Z" fill="#8C8C8C"/>
</svg>
