<svg width="24" height="24" viewBox="0 0 24 24" fill="none" xmlns="http://www.w3.org/2000/svg">
<path d="M20.9744 11.999C20.9744 10.9292 20.7764 9.90769 20.4318 8.9559L20.7456 8.67897C21.5426 7.97333 22 6.94154 22 5.84615C22 3.72513 20.2738 2 18.1538 2C16.9149 2 15.7795 2.58769 15.0605 3.57436C14.1036 3.22564 13.0759 3.02564 12 3.02564C10.9241 3.02564 9.89641 3.22564 8.93949 3.57436C8.22051 2.58667 7.08615 2 5.84615 2C3.72615 2 2 3.72513 2 5.84615C2 6.94256 2.45744 7.97538 3.25538 8.67897L3.56821 8.9559C3.22359 9.90769 3.02564 10.9303 3.02564 12C3.02564 14.7323 4.25744 17.1805 6.18974 18.8277C6.18769 18.8308 6.18462 18.8328 6.18359 18.8359L5.15795 20.8872C4.96718 21.2677 5.12205 21.7292 5.50256 21.919C5.61231 21.9744 5.73026 22 5.84513 22C6.12718 22 6.39897 21.8441 6.53436 21.5744L7.45846 19.7262C8.79282 20.5138 10.3415 20.9733 12 20.9733C13.6585 20.9733 15.2072 20.5128 16.5415 19.7262L17.4656 21.5744C17.601 21.8441 17.8718 22 18.1549 22C18.2697 22 18.3877 21.9744 18.4974 21.919C18.8779 21.7282 19.0318 21.2667 18.8421 20.8872L17.8164 18.8359C17.8164 18.8359 17.8113 18.8308 17.8103 18.8277C19.7436 17.1805 20.9744 14.7323 20.9744 11.999ZM18.1538 3.53744C19.4256 3.53744 20.4615 4.57231 20.4615 5.84513C20.4615 6.48718 20.2021 7.08513 19.7518 7.49744C18.9682 6.15282 17.8472 5.0318 16.5036 4.24821C16.9313 3.80205 17.5149 3.53744 18.1538 3.53744ZM3.53846 5.84513C3.53846 4.57231 4.57436 3.53744 5.84615 3.53744C6.4841 3.53744 7.06974 3.80308 7.49641 4.24821C6.1518 5.03282 5.0318 6.15385 4.24821 7.49744C3.79795 7.08615 3.53846 6.48821 3.53846 5.84513ZM4.5641 11.999C4.5641 7.89846 7.89949 4.56308 12 4.56308C16.1005 4.56308 19.4359 7.89846 19.4359 11.999C19.4359 16.0995 16.1005 19.4349 12 19.4349C7.89949 19.4349 4.5641 16.0995 4.5641 11.999Z" fill="#33363D"/>
<path fill-rule="evenodd" clip-rule="evenodd" d="M11.9992 7.5C12.441 7.5 12.7992 7.85817 12.7992 8.3V12.0003H16.4995C16.9413 12.0003 17.2995 12.3585 17.2995 12.8003C17.2995 13.2421 16.9413 13.6003 16.4995 13.6003H11.9992C11.5574 13.6003 11.1992 13.2421 11.1992 12.8003V8.3C11.1992 7.85817 11.5574 7.5 11.9992 7.5Z" fill="#33363D"/>
</svg>
