<svg width="24" height="24" viewBox="0 0 24 24" fill="none" xmlns="http://www.w3.org/2000/svg">
    <path fill-rule="evenodd" clip-rule="evenodd"
          d="M4.30769 3.53846C3.88286 3.53846 3.53846 3.88286 3.53846 4.30769V19.6923C3.53846 20.1171 3.88286 20.4615 4.30769 20.4615H19.6923C20.1171 20.4615 20.4615 20.1171 20.4615 19.6923V4.30769C20.4615 3.88286 20.1171 3.53846 19.6923 3.53846H4.30769ZM2 4.30769C2 3.03319 3.03319 2 4.30769 2H19.6923C20.9668 2 22 3.03319 22 4.30769V19.6923C22 20.9668 20.9668 22 19.6923 22H4.30769C3.03319 22 2 20.9668 2 19.6923V4.30769Z"
          fill="#33363D"/>
    <path fill-rule="evenodd" clip-rule="evenodd"
          d="M7.89423 2C8.31906 2 8.66346 2.3444 8.66346 2.76923V21.2308C8.66346 21.6556 8.31906 22 7.89423 22C7.4694 22 7.125 21.6556 7.125 21.2308V2.76923C7.125 2.3444 7.4694 2 7.89423 2Z"
          fill="#33363D"/>
    <path fill-rule="evenodd" clip-rule="evenodd"
          d="M5.58594 21.2302C5.58594 20.8053 5.93034 20.4609 6.35517 20.4609H9.43209C9.85692 20.4609 10.2013 20.8053 10.2013 21.2302C10.2013 21.655 9.85692 21.9994 9.43209 21.9994H6.35517C5.93034 21.9994 5.58594 21.655 5.58594 21.2302Z"
          fill="#33363D"/>
    <path fill-rule="evenodd" clip-rule="evenodd"
          d="M5.58594 2.76923C5.58594 2.3444 5.93034 2 6.35517 2H9.43209C9.85692 2 10.2013 2.3444 10.2013 2.76923C10.2013 3.19406 9.85692 3.53846 9.43209 3.53846H6.35517C5.93034 3.53846 5.58594 3.19406 5.58594 2.76923Z"
          fill="#33363D"/>
</svg>
