<svg width="16" height="16" viewBox="0 0 16 16" fill="none" xmlns="http://www.w3.org/2000/svg">
<rect x="14.6665" y="1.33325" width="13.3333" height="13.3333" rx="6.66667" transform="rotate(90 14.6665 1.33325)" fill="#CDD1D5"/>
<path fill-rule="evenodd" clip-rule="evenodd" d="M5.37652 4.62301C5.16824 4.41473 4.83055 4.41473 4.62227 4.62301C4.41399 4.83129 4.41399 5.16897 4.62227 5.37725L7.24567 8.00065L4.62332 10.623C4.41504 10.8313 4.41504 11.169 4.62332 11.3773C4.83159 11.5855 5.16928 11.5855 5.37756 11.3773L7.99992 8.7549L10.6223 11.3773C10.8306 11.5855 11.1682 11.5855 11.3765 11.3773C11.5848 11.169 11.5848 10.8313 11.3765 10.623L8.75417 8.00065L11.3776 5.37725C11.5858 5.16897 11.5858 4.83129 11.3776 4.62301C11.1693 4.41473 10.8316 4.41473 10.6233 4.62301L7.99992 7.2464L5.37652 4.62301Z" fill="#33363D"/>
</svg>
