<svg width="24" height="24" viewBox="0 0 24 24" fill="none" xmlns="http://www.w3.org/2000/svg">
<path d="M3.13334 16.641H8.1419L7.30779 18.879H5.79408C5.44401 18.879 5.16074 19.1626 5.16074 19.5123C5.16074 19.8621 5.44401 20.1457 5.79408 20.1457H18.2059C18.556 20.1457 18.8393 19.8621 18.8393 19.5123C18.8393 19.1626 18.556 18.879 18.2059 18.879H16.6922L15.8581 16.641H20.8667C21.2167 16.641 21.5 16.3574 21.5 16.0077V4.63334C21.5 4.28358 21.2167 4 20.8667 4H3.13334C2.78327 4 2.5 4.28358 2.5 4.63334V16.0077C2.5 16.3574 2.78327 16.641 3.13334 16.641ZM15.3405 18.879H8.65954L9.49388 16.641H14.5061L15.3405 18.879ZM3.76666 15.3743V14.4457H20.2333V15.3743H3.76666ZM20.2333 5.26667V13.179H3.76666V5.26667H20.2333Z" fill="#33363D"/>
<path d="M4.96094 19.5127C4.96094 19.0526 5.33342 18.6788 5.79395 18.6787V18.8789C5.44394 18.879 5.16113 19.163 5.16113 19.5127L5.17383 19.6396C5.23272 19.9283 5.4876 20.1454 5.79395 20.1455H18.2061C18.5124 20.1454 18.7673 19.9283 18.8262 19.6396L18.8389 19.5127C18.8389 19.2068 18.6226 18.9508 18.334 18.8916L18.2061 18.8789V18.6787C18.6666 18.6788 19.0391 19.0526 19.0391 19.5127C19.0389 19.9726 18.6665 20.3456 18.2061 20.3457H5.79395C5.33353 20.3456 4.96113 19.9726 4.96094 19.5127ZM21.5 16.0078V4.63379C21.5 4.28403 21.2163 4 20.8662 4V3.7998C21.3268 3.7998 21.7002 4.17364 21.7002 4.63379V16.0078C21.7001 16.4679 21.3267 16.8408 20.8662 16.8408H16.1465L16.8311 18.6787H18.2061V18.8789H16.6924L15.8584 16.6406H20.8662C21.1724 16.6406 21.4281 16.4241 21.4873 16.1357L21.5 16.0078ZM2.2998 16.0078V4.63379C2.2998 4.17364 2.6732 3.7998 3.13379 3.7998V4C2.78372 4 2.5 4.28403 2.5 4.63379V16.0078L2.5127 16.1357C2.56341 16.383 2.75841 16.5774 3.00586 16.6279L3.13379 16.6406H8.1416L7.30762 18.8789H5.79395V18.6787H7.16895L7.85352 16.8408H3.13379C2.67325 16.8408 2.29988 16.4679 2.2998 16.0078ZM15.3408 18.8789H8.65918L9.49414 16.6406H14.5059L15.3408 18.8789ZM8.94727 18.6787H15.0527L14.3672 16.8408H9.63281L8.94727 18.6787ZM20.2334 14.4453V15.374H3.7666V14.4453H20.2334ZM3.9668 15.1748H20.0332V14.6455H3.9668V15.1748ZM20.2334 5.2666V13.1787H3.7666V5.2666H20.2334ZM3.9668 12.9795H20.0332V5.4668H3.9668V12.9795ZM20.8662 3.7998V4H3.13379V3.7998H20.8662Z" fill="#33363D"/>
</svg>
