<svg width="16" height="16" viewBox="0 0 16 16" fill="none" xmlns="http://www.w3.org/2000/svg">
<path d="M8.51093 1.85323C8.51093 1.56646 8.27846 1.33398 7.99169 1.33398C7.70492 1.33398 7.47245 1.56646 7.47245 1.85323V3.59593C7.47245 3.8827 7.70492 4.11517 7.99169 4.11517C8.27846 4.11517 8.51093 3.8827 8.51093 3.59593V1.85323Z" fill="#D63D4A"/>
<path d="M2.73376 2.71579C2.52189 2.52253 2.19347 2.53761 2.00021 2.74948C1.80695 2.96134 1.82203 3.28976 2.0339 3.48302L3.47586 4.79836C3.68773 4.99162 4.01615 4.97653 4.20941 4.76467C4.40267 4.5528 4.38758 4.22438 4.17572 4.03112L2.73376 2.71579Z" fill="#D63D4A"/>
<path d="M13.9494 3.48301C14.1612 3.28975 14.1763 2.96133 13.983 2.74947C13.7898 2.53761 13.4614 2.52253 13.2495 2.7158L11.8076 4.03113C11.5957 4.2244 11.5807 4.55282 11.7739 4.76468C11.9672 4.97654 12.2956 4.99161 12.5075 4.79835L13.9494 3.48301Z" fill="#D63D4A"/>
<path d="M11.9082 9.66731C12.3553 9.66731 12.6754 9.23634 12.5469 8.80811L11.746 6.13845C11.6613 5.85614 11.4015 5.66281 11.1067 5.66281H4.89179C4.59706 5.66281 4.33722 5.85614 4.25253 6.13845L3.45163 8.80811C3.32316 9.23634 3.64323 9.66731 4.09031 9.66731H11.9082Z" fill="#D63D4A"/>
<path d="M13.3442 14.0008H2.65489C2.24952 14.0008 2.04684 14.0008 1.91156 13.9163C1.79308 13.8422 1.70682 13.7263 1.66993 13.5915C1.6278 13.4377 1.68604 13.2435 1.80252 12.8553L2.23582 11.4109C2.29816 11.2031 2.32933 11.0992 2.38836 11.0203C2.45298 10.9339 2.54132 10.8682 2.64264 10.8311C2.73519 10.7972 2.84367 10.7972 3.06064 10.7972H12.9384C13.1554 10.7972 13.2639 10.7972 13.3564 10.8311C13.4577 10.8682 13.5461 10.9339 13.6107 11.0203C13.6697 11.0992 13.7009 11.2031 13.7632 11.4109L14.1965 12.8553C14.313 13.2435 14.3712 13.4377 14.3291 13.5915C14.2922 13.7263 14.206 13.8422 14.0875 13.9163C13.9522 14.0008 13.7495 14.0008 13.3442 14.0008Z" fill="#D63D4A"/>
</svg>
