<svg width="24" height="24" viewBox="0 0 24 24" fill="none" xmlns="http://www.w3.org/2000/svg">
<path d="M8.2448 2.6248C8.2448 2.45904 8.17895 2.30007 8.06174 2.18286C7.94453 2.06565 7.78556 1.9998 7.6198 1.9998C7.45404 1.9998 7.29506 2.06565 7.17785 2.18286C7.06064 2.30007 6.9948 2.45904 6.9948 2.6248L7.00008 10.358C7.00008 10.834 7.09384 11.3054 7.27601 11.7452C7.45819 12.185 7.7252 12.5846 8.06182 12.9212C8.74163 13.601 9.66367 13.983 10.6251 13.983H19.7091L16.1891 17.41C16.0703 17.5256 16.0022 17.6837 16 17.8495C15.9977 18.0153 16.0614 18.1751 16.1771 18.294C16.2927 18.4128 16.4508 18.4808 16.6166 18.483C16.7824 18.4853 16.9423 18.4216 17.0611 18.306L21.8111 13.681C21.871 13.6227 21.9185 13.5531 21.951 13.4761C21.9835 13.3992 22.0003 13.3165 22.0003 13.233C22.0003 13.1494 21.9835 13.0668 21.951 12.9898C21.9185 12.9129 21.871 12.8432 21.8111 12.785L17.0611 8.15996C16.9423 8.04432 16.7824 7.98062 16.6166 7.98287C16.4508 7.98512 16.2927 8.05314 16.1771 8.17196C16.0614 8.29077 15.9977 8.45066 16 8.61644C16.0022 8.78222 16.0703 8.94032 16.1891 9.05596L19.9656 12.733H10.6251C9.99519 12.733 9.3911 12.4827 8.9457 12.0373C8.5003 11.5919 8.25008 10.9879 8.25008 10.358L8.2448 2.6248Z" fill="#33363D"/>
</svg>
