<svg width="40" height="40" viewBox="0 0 40 40" fill="none" xmlns="http://www.w3.org/2000/svg">
    <path d="M34.9399 7.44926V28.3807L7.7744 34.9435H4.45716C3.9816 34.9435 3.52552 34.7546 3.18925 34.4183C2.85298 34.082 2.66406 33.626 2.66406 33.1504V7.44926L3.26176 6.85156H34.3422L34.9399 7.44926Z"
          fill="#EEF2F7"/>
    <path d="M34.9399 4.46107V7.44957H2.66406V4.46107C2.66406 3.98551 2.85298 3.52943 3.18925 3.19316C3.52552 2.85688 3.9816 2.66797 4.45716 2.66797H33.1468C33.6224 2.66797 34.0784 2.85688 34.4147 3.19316C34.751 3.52943 34.9399 3.98551 34.9399 4.46107Z"
          fill="#90B0D5"/>
    <path d="M33.4368 37.3337H11.3338C10.6287 37.3198 9.94003 37.1185 9.33839 36.7506C8.73675 36.3826 8.24385 35.8612 7.91026 35.2398C7.57668 34.6185 7.41442 33.9196 7.44015 33.2148C7.46587 32.51 7.67865 31.8248 8.05665 31.2294L19.1081 13.4723C19.4509 12.9105 19.9324 12.4462 20.5063 12.1241C21.0801 11.802 21.7272 11.6328 22.3853 11.6328C23.0434 11.6328 23.6905 11.802 24.2644 12.1241C24.8383 12.4462 25.3197 12.9105 25.6625 13.4723L36.714 31.2294C37.092 31.8248 37.3048 32.51 37.3305 33.2148C37.3562 33.9196 37.194 34.6185 36.8604 35.2398C36.5268 35.8612 36.0339 36.3826 35.4323 36.7506C34.8306 37.1185 34.1419 37.3198 33.4368 37.3337Z"
          fill="#DE3412"/>
    <path d="M23.5861 18.8048C23.5861 18.1446 23.0509 17.6094 22.3907 17.6094C21.7305 17.6094 21.1953 18.1446 21.1953 18.8048V28.368C21.1953 29.0282 21.7305 29.5634 22.3907 29.5634C23.0509 29.5634 23.5861 29.0282 23.5861 28.368V18.8048Z"
          fill="white"/>
    <path d="M22.3907 34.3478C23.0509 34.3478 23.5861 33.8126 23.5861 33.1524C23.5861 32.4922 23.0509 31.957 22.3907 31.957C21.7305 31.957 21.1953 32.4922 21.1953 33.1524C21.1953 33.8126 21.7305 34.3478 22.3907 34.3478Z"
          fill="white"/>
    <path d="M5.65634 5.65634H5.05864C4.90012 5.65634 4.74809 5.59337 4.636 5.48128C4.52391 5.36919 4.46094 5.21716 4.46094 5.05864C4.46094 4.90012 4.52391 4.74809 4.636 4.636C4.74809 4.52391 4.90012 4.46094 5.05864 4.46094H5.65634C5.81486 4.46094 5.96689 4.52391 6.07898 4.636C6.19107 4.74809 6.25404 4.90012 6.25404 5.05864C6.25404 5.21716 6.19107 5.36919 6.07898 5.48128C5.96689 5.59337 5.81486 5.65634 5.65634 5.65634Z"
          fill="white"/>
    <path d="M8.64853 5.65634H8.05083C7.89231 5.65634 7.74028 5.59337 7.62819 5.48128C7.5161 5.36919 7.45312 5.21716 7.45312 5.05864C7.45312 4.90012 7.5161 4.74809 7.62819 4.636C7.74028 4.52391 7.89231 4.46094 8.05083 4.46094H8.64853C8.80705 4.46094 8.95907 4.52391 9.07116 4.636C9.18326 4.74809 9.24623 4.90012 9.24623 5.05864C9.24623 5.21716 9.18326 5.36919 9.07116 5.48128C8.95907 5.59337 8.80705 5.65634 8.64853 5.65634Z"
          fill="white"/>
    <path d="M11.6329 5.65634H11.0352C10.8767 5.65634 10.7247 5.59337 10.6126 5.48128C10.5005 5.36919 10.4375 5.21716 10.4375 5.05864C10.4375 4.90012 10.5005 4.74809 10.6126 4.636C10.7247 4.52391 10.8767 4.46094 11.0352 4.46094H11.6329C11.7914 4.46094 11.9434 4.52391 12.0555 4.636C12.1676 4.74809 12.2306 4.90012 12.2306 5.05864C12.2306 5.21716 12.1676 5.36919 12.0555 5.48128C11.9434 5.59337 11.7914 5.65634 11.6329 5.65634Z"
          fill="white"/>
    <path d="M32.5511 5.65634H28.9649C28.8064 5.65634 28.6543 5.59337 28.5422 5.48128C28.4302 5.36919 28.3672 5.21716 28.3672 5.05864C28.3672 4.90012 28.4302 4.74809 28.5422 4.636C28.6543 4.52391 28.8064 4.46094 28.9649 4.46094H32.5511C32.7096 4.46094 32.8616 4.52391 32.9737 4.636C33.0858 4.74809 33.1488 4.90012 33.1488 5.05864C33.1488 5.21716 33.0858 5.36919 32.9737 5.48128C32.8616 5.59337 32.7096 5.65634 32.5511 5.65634Z"
          fill="#6B96C7"/>
</svg>
