<svg width="16" height="16" viewBox="0 0 16 16" fill="none" xmlns="http://www.w3.org/2000/svg">
<path d="M8.90601 2.30597C8.84669 2.25779 8.7686 2.23937 8.69402 2.25598L2.19403 3.75598C2.07963 3.78228 1.99891 3.88461 2.00001 4.00198V12.502C2.00006 12.6253 2.09008 12.7302 2.212 12.749L8.712 13.749C8.84847 13.77 8.97611 13.6764 8.99709 13.5399C8.99901 13.5274 9 13.5147 9 13.502V2.50198C9.00023 2.42574 8.96561 2.35358 8.90601 2.30597Z" fill="#4CAF50"/>
<path d="M13.75 12.7539H8.75001C8.61194 12.7539 8.5 12.642 8.5 12.5039C8.5 12.3658 8.61194 12.2539 8.75001 12.2539H13.5V3.7539H8.75001C8.61194 3.7539 8.5 3.64196 8.5 3.50389C8.5 3.36582 8.61194 3.25391 8.75001 3.25391H13.75C13.8881 3.25391 14 3.36584 14 3.50391V12.5039C14 12.642 13.8881 12.7539 13.75 12.7539Z" fill="#4CAF50"/>
<path d="M6.75433 10.2528C6.66812 10.2528 6.58801 10.2084 6.54234 10.1353L4.04233 6.13527C3.96548 6.02057 3.99618 5.86527 4.11088 5.78842C4.22559 5.71157 4.38088 5.74227 4.45773 5.85698C4.46076 5.86148 4.46362 5.86607 4.46634 5.87076L6.96634 9.87076C7.03923 9.98802 7.00328 10.1422 6.88602 10.2151C6.84648 10.2396 6.80087 10.2527 6.75433 10.2528Z" fill="#FAFAFA"/>
<path d="M4.25731 10.2533C4.11923 10.253 4.00753 10.1409 4.00781 10.0028C4.00791 9.9561 4.02108 9.91037 4.04581 9.87078L6.54581 5.87078C6.61505 5.75131 6.76802 5.7106 6.88746 5.77984C7.00692 5.84907 7.04763 6.00205 6.9784 6.12149C6.97568 6.12617 6.97282 6.13077 6.9698 6.13527L4.46981 10.1353C4.42416 10.2087 4.34379 10.2534 4.25731 10.2533Z" fill="#FAFAFA"/>
<path d="M10.75 12.7539C10.6119 12.7539 10.5 12.642 10.5 12.5039V3.50391C10.5 3.36584 10.6119 3.25391 10.75 3.25391C10.8881 3.25391 11 3.36584 11 3.50391V12.5039C11 12.642 10.8881 12.7539 10.75 12.7539Z" fill="#4CAF50"/>
<path d="M13.75 11.2539H8.75001C8.61194 11.2539 8.5 11.142 8.5 11.0039C8.5 10.8658 8.61194 10.7539 8.75001 10.7539H13.75C13.8881 10.7539 14 10.8658 14 11.0039C14 11.142 13.8881 11.2539 13.75 11.2539Z" fill="#4CAF50"/>
<path d="M13.75 9.75392H8.75001C8.61194 9.75392 8.5 9.64198 8.5 9.50391C8.5 9.36584 8.61194 9.25391 8.75001 9.25391H13.75C13.8881 9.25391 14 9.36584 14 9.50391C14 9.64201 13.8881 9.75392 13.75 9.75392Z" fill="#4CAF50"/>
<path d="M13.75 8.25392H8.75001C8.61194 8.25392 8.5 8.14198 8.5 8.00391C8.5 7.86584 8.61194 7.75391 8.75001 7.75391H13.75C13.8881 7.75391 14 7.86584 14 8.00391C14 8.14201 13.8881 8.25392 13.75 8.25392Z" fill="#4CAF50"/>
<path d="M13.75 6.75392H8.75001C8.61194 6.75392 8.5 6.64198 8.5 6.50391C8.5 6.36584 8.61194 6.25391 8.75001 6.25391H13.75C13.8881 6.25391 14 6.36584 14 6.50391C14 6.64198 13.8881 6.75392 13.75 6.75392Z" fill="#4CAF50"/>
<path d="M13.75 5.25392H8.75001C8.61194 5.25392 8.5 5.14198 8.5 5.00391C8.5 4.86584 8.61194 4.75391 8.75001 4.75391H13.75C13.8881 4.75391 14 4.86584 14 5.00391C14 5.14201 13.8881 5.25392 13.75 5.25392Z" fill="#4CAF50"/>
</svg>
