<svg width="24" height="24" viewBox="0 0 24 24" fill="none" xmlns="http://www.w3.org/2000/svg">
<path d="M13.5 2C13.7121 2 13.9154 2.08441 14.0654 2.23438L19.7646 7.93457C19.9146 8.08455 19.999 8.28792 19.999 8.5V11H20C20.5523 11 21 11.4477 21 12V18C21 18.5523 20.5523 19 20 19H19.999V20.2002C19.999 21.1943 19.1933 22 18.1992 22H5.7998C4.80578 21.9999 4 21.1942 4 20.2002V3.7998C4.00011 2.80585 4.80585 2.00011 5.7998 2H13.5ZM5.7998 3.59961C5.6895 3.59971 5.59971 3.6895 5.59961 3.7998V20.2002C5.59961 20.3106 5.68944 20.4003 5.7998 20.4004H18.1992C18.3097 20.4004 18.3994 20.3107 18.3994 20.2002V19H8C7.44772 19 7 18.5523 7 18V12C7 11.4477 7.44772 11 8 11H18.3994V9.2998H14.5C13.5059 9.2998 12.7002 8.49411 12.7002 7.5V3.59961H5.7998ZM14.2998 7.5C14.2998 7.61046 14.3895 7.7002 14.5 7.7002H17.2686L14.2998 4.73145V7.5Z" fill="#256EF4"/>
<path d="M18.1453 14.1288C18.1125 13.7897 17.8226 13.5929 17.396 13.5929C16.9476 13.5929 16.6742 13.8116 16.6742 14.1069C16.6742 14.4405 17.0242 14.5772 17.3523 14.6538L17.7242 14.7522C18.3148 14.889 18.8835 15.2007 18.8835 15.8897C18.8835 16.5843 18.3367 17.0601 17.3851 17.0601C16.4609 17.0601 15.8812 16.6171 15.8484 15.8351H16.5484C16.5812 16.2507 16.9312 16.453 17.3796 16.453C17.85 16.453 18.1726 16.2233 18.1726 15.8843C18.1726 15.5726 17.8828 15.4413 17.4562 15.3319L17.0078 15.2171C16.357 15.0476 15.9523 14.7194 15.9523 14.1507C15.9523 13.4507 16.5757 12.9858 17.407 12.9858C18.2492 12.9858 18.8179 13.4616 18.8289 14.1288H18.1453Z" fill="white"/>
<path d="M12.9609 16.9999V13.0405H13.6719V16.3983H15.4219V16.9999H12.9609Z" fill="white"/>
<path d="M9.85479 13.0405L10.7243 14.4952H10.7571L11.6376 13.0405H12.447L11.2274 15.0202L12.4688 16.9999H11.6431L10.7571 15.5562H10.7243L9.83838 16.9999H9.01807L10.2704 15.0202L9.03447 13.0405H9.85479Z" fill="white"/>
</svg>
