<svg width="24" height="24" viewBox="0 0 24 24" fill="none" xmlns="http://www.w3.org/2000/svg">
<path d="M13.5 2C13.7121 2 13.9154 2.08441 14.0654 2.23438L19.7646 7.93457C19.9146 8.08455 19.999 8.28792 19.999 8.5V11H20C20.5523 11 21 11.4477 21 12V18C21 18.5523 20.5523 19 20 19H19.999V20.2002C19.999 21.1943 19.1933 22 18.1992 22H5.7998C4.80578 21.9999 4 21.1942 4 20.2002V3.7998C4.00011 2.80585 4.80585 2.00011 5.7998 2H13.5ZM5.7998 3.59961C5.6895 3.59971 5.59971 3.6895 5.59961 3.7998V20.2002C5.59961 20.3106 5.68944 20.4003 5.7998 20.4004H18.1992C18.3097 20.4004 18.3994 20.3107 18.3994 20.2002V19H8C7.44772 19 7 18.5523 7 18V12C7 11.4477 7.44772 11 8 11H18.3994V9.2998H14.5C13.5059 9.2998 12.7002 8.49411 12.7002 7.5V3.59961H5.7998ZM14.2998 7.5C14.2998 7.61046 14.3895 7.7002 14.5 7.7002H17.2686L14.2998 4.73145V7.5Z" fill="#256EF4"/>
<path d="M18.1438 14.3521C18.0203 13.9385 17.698 13.686 17.2253 13.686C16.5969 13.686 16.1458 14.1748 16.1458 15.0503C16.1458 15.9365 16.5916 16.4253 17.2415 16.4253C17.8269 16.4253 18.2029 16.0708 18.2136 15.5176H17.3113V14.9644H18.8904V15.4316C18.8904 16.4307 18.2029 17.0537 17.2415 17.0537C16.1672 17.0537 15.4421 16.291 15.4421 15.0557C15.4421 13.8096 16.1995 13.0576 17.22 13.0576C18.0793 13.0576 18.74 13.5894 18.8582 14.3521H18.1438Z" fill="white"/>
<path d="M12.1443 17V13.1113H13.6052C14.4968 13.1113 14.9749 13.6538 14.9749 14.4004C14.9749 15.147 14.4915 15.6841 13.5945 15.6841H12.8425V17H12.1443ZM12.8425 15.1094H13.4978C14.0242 15.1094 14.2605 14.814 14.2605 14.4004C14.2605 13.9814 14.0242 13.6968 13.4978 13.6968H12.8425V15.1094Z" fill="white"/>
<path d="M10.7317 13.1113H11.4246V15.8452C11.4246 16.5972 10.9197 17.0537 10.1731 17.0537C9.49097 17.0537 8.96997 16.6831 8.96997 15.9688H9.66821C9.66821 16.2856 9.88306 16.479 10.2 16.479C10.5383 16.479 10.7263 16.2588 10.7317 15.8452V13.1113Z" fill="white"/>
</svg>
