<svg width="24" height="24" viewBox="0 0 24 24" fill="none" xmlns="http://www.w3.org/2000/svg">
<path d="M13.5 2C13.7121 2 13.9154 2.08441 14.0654 2.23438L19.7646 7.93457C19.9146 8.08455 19.999 8.28792 19.999 8.5V11H20C20.5523 11 21 11.4477 21 12V18C21 18.5523 20.5523 19 20 19H19.999V20.2002C19.999 21.1943 19.1933 22 18.1992 22H5.7998C4.80578 21.9999 4 21.1942 4 20.2002V3.7998C4.00011 2.80585 4.80585 2.00011 5.7998 2H13.5ZM5.7998 3.59961C5.6895 3.59971 5.59971 3.6895 5.59961 3.7998V20.2002C5.59961 20.3106 5.68944 20.4003 5.7998 20.4004H18.1992C18.3097 20.4004 18.3994 20.3107 18.3994 20.2002V19H8C7.44772 19 7 18.5523 7 18V12C7 11.4477 7.44772 11 8 11H18.3994V9.2998H14.5C13.5059 9.2998 12.7002 8.49411 12.7002 7.5V3.59961H5.7998ZM14.2998 7.5C14.2998 7.61046 14.3895 7.7002 14.5 7.7002H17.2686L14.2998 4.73145V7.5Z" fill="#256EF4"/>
<path d="M16.6426 13.1113L17.6523 16.1782H17.6953L18.7104 13.1113H19.4785L18.1035 17H17.2441L15.8745 13.1113H16.6426Z" fill="white"/>
<path d="M14.8218 14.1802C14.7896 13.8472 14.5049 13.6538 14.0859 13.6538C13.6455 13.6538 13.377 13.8687 13.377 14.1587C13.377 14.4863 13.7207 14.6206 14.043 14.6958L14.4082 14.7925C14.9883 14.9268 15.5469 15.2329 15.5469 15.9097C15.5469 16.5918 15.0098 17.0591 14.0752 17.0591C13.1675 17.0591 12.5981 16.624 12.5659 15.856H13.2534C13.2856 16.2642 13.6294 16.4629 14.0698 16.4629C14.5317 16.4629 14.8486 16.2373 14.8486 15.9043C14.8486 15.5981 14.564 15.4692 14.145 15.3618L13.7046 15.249C13.0654 15.0825 12.668 14.7603 12.668 14.2017C12.668 13.5142 13.2803 13.0576 14.0967 13.0576C14.9238 13.0576 15.4824 13.5249 15.4932 14.1802H14.8218Z" fill="white"/>
<path d="M11.4004 14.4219C11.3198 13.9546 10.9438 13.686 10.4712 13.686C9.83203 13.686 9.38623 14.1748 9.38623 15.0557C9.38623 15.9473 9.8374 16.4253 10.4712 16.4253C10.9331 16.4253 11.3091 16.1675 11.4004 15.7109H12.104C11.9966 16.4575 11.3843 17.0537 10.4604 17.0537C9.43457 17.0537 8.68262 16.3071 8.68262 15.0557C8.68262 13.7988 9.44531 13.0576 10.4604 13.0576C11.3198 13.0576 11.9858 13.5571 12.104 14.4219H11.4004Z" fill="white"/>
</svg>
