<svg width="24" height="24" viewBox="0 0 24 24" fill="none" xmlns="http://www.w3.org/2000/svg">
<path d="M13.5 2C13.7121 2 13.9154 2.08441 14.0654 2.23438L19.7646 7.93457C19.9146 8.08455 19.999 8.28792 19.999 8.5V11H20C20.5523 11 21 11.4477 21 12V18C21 18.5523 20.5523 19 20 19H19.999V20.2002C19.999 21.1943 19.1933 22 18.1992 22H5.7998C4.80578 21.9999 4 21.1942 4 20.2002V3.7998C4.00011 2.80585 4.80585 2.00011 5.7998 2H13.5ZM5.7998 3.59961C5.6895 3.59971 5.59971 3.6895 5.59961 3.7998V20.2002C5.59961 20.3106 5.68944 20.4003 5.7998 20.4004H18.1992C18.3097 20.4004 18.3994 20.3107 18.3994 20.2002V19H8C7.44772 19 7 18.5523 7 18V12C7 11.4477 7.44772 11 8 11H18.3994V9.2998H14.5C13.5059 9.2998 12.7002 8.49411 12.7002 7.5V3.59961H5.7998ZM14.2998 7.5C14.2998 7.61046 14.3895 7.7002 14.5 7.7002H17.2686L14.2998 4.73145V7.5Z" fill="#256EF4"/>
<path d="M18.6272 14.3521C18.5037 13.9385 18.1814 13.686 17.7087 13.686C17.0803 13.686 16.6292 14.1748 16.6292 15.0503C16.6292 15.9365 17.075 16.4253 17.7249 16.4253C18.3103 16.4253 18.6863 16.0708 18.697 15.5176H17.7947V14.9644H19.3738V15.4316C19.3738 16.4307 18.6863 17.0537 17.7249 17.0537C16.6506 17.0537 15.9255 16.291 15.9255 15.0557C15.9255 13.8096 16.6829 13.0576 17.7034 13.0576C18.5627 13.0576 19.2234 13.5894 19.3416 14.3521H18.6272Z" fill="white"/>
<path d="M15.3025 13.1113V17H14.6794L12.8372 14.3413H12.8049V17H12.1067V13.1113H12.7405L14.572 15.77H14.6096V13.1113H15.3025Z" fill="white"/>
<path d="M8.71216 17V13.1113H10.1731C11.0647 13.1113 11.5427 13.6538 11.5427 14.4004C11.5427 15.147 11.0593 15.6841 10.1624 15.6841H9.4104V17H8.71216ZM9.4104 15.1094H10.0657C10.592 15.1094 10.8284 14.814 10.8284 14.4004C10.8284 13.9814 10.592 13.6968 10.0657 13.6968H9.4104V15.1094Z" fill="white"/>
</svg>
