<svg width="24" height="24" viewBox="0 0 24 24" fill="none" xmlns="http://www.w3.org/2000/svg">
<path d="M13.5 2C13.7121 2 13.9154 2.08441 14.0654 2.23438L19.7646 7.93457C19.9146 8.08455 19.999 8.28792 19.999 8.5V11H20C20.5523 11 21 11.4477 21 12V18C21 18.5523 20.5523 19 20 19H19.999V20.2002C19.999 21.1943 19.1933 22 18.1992 22H5.7998C4.80578 21.9999 4 21.1942 4 20.2002V3.7998C4.00011 2.80585 4.80585 2.00011 5.7998 2H13.5ZM5.7998 3.59961C5.6895 3.59971 5.59971 3.6895 5.59961 3.7998V20.2002C5.59961 20.3106 5.68944 20.4003 5.7998 20.4004H18.1992C18.3097 20.4004 18.3994 20.3107 18.3994 20.2002V19H8C7.44772 19 7 18.5523 7 18V12C7 11.4477 7.44772 11 8 11H18.3994V9.2998H14.5C13.5059 9.2998 12.7002 8.49411 12.7002 7.5V3.59961H5.7998ZM14.2998 7.5C14.2998 7.61046 14.3895 7.7002 14.5 7.7002H17.2686L14.2998 4.73145V7.5Z" fill="#256EF4"/>
<path d="M17.3945 16.3999V13.5718H18.457C19.1055 13.5718 19.4531 13.9663 19.4531 14.5093C19.4531 15.0522 19.1016 15.4429 18.4492 15.4429H17.9023V16.3999H17.3945ZM17.9023 15.0249H18.3789C18.7617 15.0249 18.9336 14.8101 18.9336 14.5093C18.9336 14.2046 18.7617 13.9976 18.3789 13.9976H17.9023V15.0249Z" fill="white"/>
<path d="M14.8711 16.3999V13.5718H15.9531C16.5664 13.5718 16.8711 13.8843 16.8711 14.3062C16.8711 14.6499 16.6523 14.8413 16.375 14.9077V14.9351C16.6758 14.9507 16.9805 15.2007 16.9805 15.6304C16.9805 16.0718 16.6641 16.3999 16.0156 16.3999H14.8711ZM15.9375 15.9741C16.3086 15.9741 16.4648 15.814 16.4648 15.5913C16.4648 15.3374 16.2656 15.1421 15.9492 15.1421H15.3789V15.9741H15.9375ZM15.8906 14.7749C16.1602 14.7749 16.3633 14.6187 16.3633 14.3687C16.3633 14.1499 16.207 13.9937 15.9023 13.9937H15.3789V14.7749H15.8906Z" fill="white"/>
<path d="M12.543 16.3999V13.5718H14.3828V13.9976H13.0508V14.771H14.2852V15.1968H13.0508V15.9702H14.3906V16.3999H12.543Z" fill="white"/>
<path d="M9.30078 16.3999L8.46094 13.5718H9.00781L9.55469 15.6577H9.58203L10.0898 13.9233H10.5938L11.1016 15.6577H11.125L11.6719 13.5718H12.2188L11.3789 16.3999H10.8984L10.3516 14.6772H10.332L9.78516 16.3999H9.30078Z" fill="white"/>
</svg>
