<svg width="24" height="24" viewBox="0 0 24 24" fill="none" xmlns="http://www.w3.org/2000/svg">
<path fill-rule="evenodd" clip-rule="evenodd" d="M6.8414 21.2002L6.84141 17.1571C5.77374 16.8186 5 15.8197 5 14.64C5 13.4603 5.77374 12.4614 6.84141 12.1229V2.8C6.84141 2.35817 7.19958 2 7.64141 2C8.08323 2 8.44141 2.35817 8.44141 2.8L8.44141 12.1238C9.50762 12.4631 10.28 13.4614 10.28 14.64C10.28 15.8186 9.50762 16.8169 8.44141 17.1562V21.2002C8.44141 21.642 8.08323 22.0002 7.64141 22.0002C7.19958 22.0002 6.8414 21.642 6.8414 21.2002ZM6.6 14.64C6.6 15.2144 7.06562 15.68 7.64 15.68C8.21438 15.68 8.68 15.2144 8.68 14.64C8.68 14.0656 8.21438 13.6 7.64 13.6C7.06562 13.6 6.6 14.0656 6.6 14.64Z" fill="#33363D"/>
<path fill-rule="evenodd" clip-rule="evenodd" d="M15.8414 6.12294V2.8C15.8414 2.35817 16.1996 2 16.6414 2C17.0832 2 17.4414 2.35817 17.4414 2.8V6.12383C18.5076 6.46313 19.28 7.46137 19.28 8.64C19.28 9.81863 18.5076 10.8169 17.4414 11.1562L17.4414 21.2002C17.4414 21.642 17.0832 22.0002 16.6414 22.0002C16.1996 22.0002 15.8414 21.642 15.8414 21.2002V11.1571C14.7737 10.8186 14 9.81967 14 8.64C14 7.46033 14.7737 6.46138 15.8414 6.12294ZM16.64 9.68C16.0656 9.68 15.6 9.21438 15.6 8.64C15.6 8.06562 16.0656 7.6 16.64 7.6C17.2144 7.6 17.68 8.06562 17.68 8.64C17.68 9.21438 17.2144 9.68 16.64 9.68Z" fill="#33363D"/>
</svg>
