<svg width="24" height="24" viewBox="0 0 24 24" fill="none" xmlns="http://www.w3.org/2000/svg">
<g clip-path="url(#clip0_20_1421)">
<path d="M0 4H24V20H0V4Z" fill="white"/>
<path d="M8.67188 9.78125C9.26036 8.89858 10.1754 8.28584 11.2157 8.07782C12.2559 7.86979 13.3362 8.08353 14.2189 8.67201C15.1016 9.26048 15.7144 10.1755 15.9224 11.2158C16.1304 12.256 15.9167 13.3363 15.3282 14.219L8.67188 9.78125Z" fill="#D0303C"/>
<path d="M8.67177 9.78127C8.08329 10.6639 7.86954 11.7442 8.07757 12.7845C8.28559 13.8247 8.89834 14.7398 9.78101 15.3282C10.6637 15.9167 11.744 16.1305 12.7843 15.9224C13.8245 15.7144 14.7396 15.1017 15.328 14.219C15.6223 13.7777 15.7292 13.2375 15.6251 12.7174C15.5211 12.1973 15.2148 11.7398 14.7734 11.4455C14.3321 11.1513 13.7919 11.0444 13.2718 11.1484C12.7517 11.2524 12.2941 11.5588 11.9999 12.0001L8.67177 9.78127Z" fill="#134A9D"/>
<path d="M12.0001 12.0001C12.6128 11.0811 12.3645 9.83936 11.4454 9.22664C10.5264 8.61391 9.28467 8.86222 8.67194 9.78125C8.05921 10.7003 8.30752 11.942 9.22656 12.5548C10.1456 13.1675 11.3873 12.9192 12.0001 12.0001Z" fill="#D0303C"/>
<path d="M3.67953 8.85652L5.89833 5.52832L6.45303 5.89812L4.23423 9.22632L3.67953 8.85652ZM4.51158 9.41122L6.73038 6.08302L7.28508 6.45282L5.06628 9.78102L4.51158 9.41122ZM5.34363 9.96592L7.56243 6.63772L8.11713 7.00752L5.89833 10.3357L5.34363 9.96592Z" fill="black"/>
<path d="M19.3036 16.6685L20.3205 15.1431L19.7658 14.7733L18.7489 16.2987L19.3036 16.6685Z" fill="black"/>
<path d="M18.4715 16.1138L19.4884 14.5884L18.9337 14.2186L17.9168 15.744L18.4715 16.1138Z" fill="black"/>
<path d="M17.7319 16.0213L18.2866 16.3911L17.2696 17.9166L16.7149 17.5468L17.7319 16.0213Z" fill="black"/>
<path d="M17.6395 15.5591L18.6564 14.0337L18.1017 13.6639L17.0848 15.1893L17.6395 15.5591Z" fill="black"/>
<path d="M16.8999 15.4666L17.4546 15.8364L16.4376 17.3619L15.8829 16.9921L16.8999 15.4666Z" fill="black"/>
<path d="M18.564 16.576L19.1187 16.9458L18.1017 18.4713L17.547 18.1015L18.564 16.576Z" fill="black"/>
<path d="M17.4545 8.16337L16.4375 6.63789L15.8828 7.00769L16.8998 8.53317L17.4545 8.16337Z" fill="black"/>
<path d="M17.0847 8.81052L18.1016 10.3359L18.6563 9.96609L17.6394 8.44072L17.0847 8.81052Z" fill="black"/>
<path d="M18.9336 9.78119L16.7148 6.45299L17.2695 6.08319L19.4883 9.41139L18.9336 9.78119Z" fill="black"/>
<path d="M19.7657 9.22649L18.7487 7.70109L19.3034 7.33129L20.3204 8.85669L19.7657 9.22649Z" fill="black"/>
<path d="M19.1185 7.05394L18.5638 7.42374L17.5469 5.89829L18.1016 5.52849L19.1185 7.05394Z" fill="black"/>
<path d="M3.67944 15.1433L5.89824 18.4715L6.45294 18.1017L4.23414 14.7735L3.67944 15.1433Z" fill="black"/>
<path d="M5.71335 16.3914L6.73029 17.9168L7.28499 17.547L6.26805 16.0216L5.71335 16.3914Z" fill="black"/>
<path d="M5.52845 16.114L6.08315 15.7442L5.06619 14.2188L4.51149 14.5886L5.52845 16.114Z" fill="black"/>
<path d="M5.34354 14.0339L7.56234 17.3621L8.11705 16.9923L5.89824 13.6641L5.34354 14.0339Z" fill="black"/>
</g>
<defs>
<clipPath id="clip0_20_1421">
<rect width="24" height="16" fill="white" transform="translate(0 4)"/>
</clipPath>
</defs>
</svg>
