<svg width="20" height="20" viewBox="0 0 20 20" fill="none" xmlns="http://www.w3.org/2000/svg">
<path d="M16.6387 8.86719C17.0885 8.86719 17.5198 9.04621 17.8379 9.36426C18.156 9.68237 18.335 10.1136 18.335 10.5635V10.6592C18.3332 11.0987 18.161 11.521 17.8545 11.8359L12.6416 17.0488C12.4981 17.1963 12.3153 17.3003 12.1152 17.3486L10.001 17.8975C9.90244 17.9267 9.79773 17.9281 9.69824 17.9023C9.5986 17.8764 9.50748 17.8237 9.43555 17.75C9.36679 17.6808 9.31677 17.5951 9.29102 17.501C9.26526 17.4069 9.26416 17.3075 9.28809 17.2129L9.85352 15.0869C9.89832 14.8955 9.99439 14.7197 10.1309 14.5781L15.3438 9.36523C15.6616 9.04703 16.0932 8.86758 16.543 8.86719H16.6387ZM9.85059 2.08203C9.92494 2.08162 9.99855 2.09591 10.0674 2.12402C10.1363 2.15216 10.1991 2.1937 10.252 2.24609L13.6445 5.63867C13.6967 5.69138 13.7385 5.7536 13.7666 5.82227C13.7947 5.89116 13.809 5.96562 13.8086 6.04004V9.43262C13.8085 9.58248 13.7485 9.72606 13.6426 9.83203C13.5366 9.93801 13.393 9.99798 13.2432 9.99805C13.0932 9.99805 12.9488 9.93807 12.8428 9.83203C12.7369 9.72608 12.6778 9.58237 12.6777 9.43262V6.60547H10.416C10.1162 6.60547 9.82826 6.48635 9.61621 6.27441C9.4042 6.0624 9.28523 5.77443 9.28516 5.47461V3.21289H3.63086V16.7832H7.58887C7.73865 16.7832 7.8823 16.8424 7.98828 16.9482C8.09432 17.0543 8.1543 17.1987 8.1543 17.3486C8.15422 17.4985 8.09425 17.6421 7.98828 17.748C7.88228 17.854 7.73875 17.914 7.58887 17.9141H3.63086C3.33101 17.9141 3.04311 17.795 2.83105 17.583C2.61905 17.371 2.50007 17.083 2.5 16.7832V3.21289C2.5 2.91303 2.61907 2.62515 2.83105 2.41309C3.04313 2.20101 3.33094 2.08203 3.63086 2.08203H9.85059ZM10.9336 15.3701L10.6338 16.5684L11.833 16.2686L12.1719 15.9297L11.2734 15.0303L10.9336 15.3701ZM12.0645 14.2393L12.9639 15.1377L16.124 11.9775L15.2256 11.0781L12.0645 14.2393ZM9.85352 12.2588C10.0035 12.2588 10.1479 12.3188 10.2539 12.4248C10.3598 12.5307 10.4188 12.6745 10.4189 12.8242C10.4189 12.9742 10.3599 13.1186 10.2539 13.2246C10.1479 13.3306 10.0035 13.3896 9.85352 13.3896H5.33008C5.1803 13.3895 5.03659 13.3305 4.93066 13.2246C4.82463 13.1186 4.76465 12.9742 4.76465 12.8242C4.76476 12.6744 4.82473 12.5307 4.93066 12.4248C5.0366 12.3189 5.18028 12.2589 5.33008 12.2588H9.85352ZM16.543 9.99805C16.4687 9.99762 16.3949 10.012 16.3262 10.04C16.2573 10.0682 16.1944 10.1098 16.1416 10.1621L16.0225 10.2812L16.9219 11.1797L17.04 11.0615C17.0924 11.0088 17.134 10.9457 17.1621 10.877C17.1902 10.8081 17.2045 10.7336 17.2041 10.6592V10.5635C17.2041 10.4137 17.1449 10.2701 17.0391 10.1641C16.933 10.058 16.7886 9.99805 16.6387 9.99805H16.543ZM10.9844 9.99805C11.1343 9.99805 11.2787 10.0571 11.3848 10.1631C11.4908 10.2691 11.5498 10.4135 11.5498 10.5635C11.5498 10.7133 11.4906 10.8569 11.3848 10.9629C11.2787 11.0689 11.1343 11.1289 10.9844 11.1289H5.33008C5.18028 11.1288 5.0366 11.0688 4.93066 10.9629C4.82476 10.8569 4.76468 10.7133 4.76465 10.5635C4.76465 10.4135 4.82463 10.2691 4.93066 10.1631C5.03658 10.0573 5.18038 9.99816 5.33008 9.99805H10.9844ZM8.15723 7.73633C8.30718 7.73633 8.45158 7.79533 8.55762 7.90137C8.66361 8.0074 8.72266 8.15183 8.72266 8.30176C8.72253 8.45151 8.6635 8.59525 8.55762 8.70117C8.45158 8.80721 8.30718 8.86719 8.15723 8.86719H5.33008C5.18029 8.86707 5.0366 8.8071 4.93066 8.70117C4.82474 8.59525 4.76478 8.45154 4.76465 8.30176C4.76465 8.1518 4.82463 8.00741 4.93066 7.90137C5.0366 7.79545 5.18029 7.73644 5.33008 7.73633H8.15723ZM10.416 5.47461H11.8799L10.416 4.00977V5.47461Z" fill="white"/>
</svg>
