<svg width="24" height="24" viewBox="0 0 24 24" fill="none" xmlns="http://www.w3.org/2000/svg">
<path d="M22 12C22 17.5235 17.5221 22 12.0009 22C6.47973 22 2 17.5235 2 12C2 6.47645 6.47604 2 12.0009 2C17.5258 2 22 6.4783 22 12Z" fill="white"/>
<path d="M16.7702 11.3037C15.1716 10.2233 13.1254 10.6629 12.0504 12.288C11.1554 13.6453 9.80189 13.8152 9.28015 13.8152C7.5701 13.8152 6.40221 12.6185 6.05501 11.3812C6.05129 11.3683 6.04758 11.3572 6.04572 11.3461C6.04201 11.3332 6.04015 11.3184 6.03458 11.3037C5.89718 10.7866 5.86376 10.541 5.86376 9.9925C5.86376 7.0359 8.91623 3.74135 13.3093 3.74135C17.7023 3.74135 20.3853 7.14855 21.0518 9.04329C21.0388 9.0082 21.0277 8.9768 21.0165 8.94356C19.7391 5.23719 16.2058 2.57422 12.0467 2.57422C6.81627 2.57422 2.57178 6.79213 2.57178 11.9999C2.57178 16.6536 5.94546 20.6352 10.6281 20.6352C14.3602 20.6352 16.8686 18.5558 18.0179 15.6841C18.6492 14.1144 18.2036 12.2714 16.7702 11.3018" fill="#003964"/>
<path d="M21.1057 9.22598C20.5506 7.37741 17.9586 3.74121 13.3056 3.74121C8.91257 3.74121 5.86011 7.03576 5.86011 9.99237C5.86011 10.5408 5.89539 10.7865 6.03093 11.3035C5.97337 11.0764 5.94366 10.8511 5.94366 10.6313C5.94366 7.551 9.0444 5.41619 12.2324 5.41619C16.5493 5.41619 20.0474 8.89541 20.0474 13.1872C20.0474 16.5501 18.0997 19.4642 15.2737 20.8622C18.9204 19.551 21.5235 16.0773 21.5235 11.9998C21.5235 11.0339 21.3935 10.1826 21.1076 9.22598" fill="#ED1A3B"/>
</svg>
