<svg width="32" height="32" viewBox="0 0 32 32" fill="none" xmlns="http://www.w3.org/2000/svg">
<mask id="path-1-outside-1_189_5302" maskUnits="userSpaceOnUse" x="2.19995" y="7" width="13" height="15" fill="black">
<rect fill="white" x="2.19995" y="7" width="13" height="15"/>
<path fill-rule="evenodd" clip-rule="evenodd" d="M9.73288 9.16144C8.77071 9.16144 7.99071 9.94143 7.99071 10.9036C7.99071 11.8658 8.77071 12.6458 9.73288 12.6458C10.695 12.6458 11.475 11.8658 11.475 10.9036C11.475 9.94143 10.695 9.16144 9.73288 9.16144ZM6.82927 10.9036C6.82927 9.29999 8.12926 8 9.73288 8C11.3365 8 12.6365 9.29999 12.6365 10.9036C12.6365 12.5072 11.3365 13.8072 9.73288 13.8072C8.12926 13.8072 6.82927 12.5072 6.82927 10.9036ZM14.5367 15.7029C11.2259 13.991 7.20658 14.1638 4.02989 16.2439L3.79078 16.4005C3.4221 16.6419 3.19995 17.0529 3.19995 17.4936V20.4851C3.19995 21.2067 3.78495 21.7917 4.50657 21.7917H8.71616V20.6303H4.50657C4.42639 20.6303 4.36139 20.5653 4.36139 20.4851V17.4936C4.36139 17.4447 4.38608 17.399 4.42704 17.3722L4.66615 17.2156C7.16736 15.5778 10.2564 15.2705 12.9745 16.2797C13.4881 16.0617 14.0095 15.8694 14.5367 15.7029Z"/>
</mask>
<path fill-rule="evenodd" clip-rule="evenodd" d="M9.73288 9.16144C8.77071 9.16144 7.99071 9.94143 7.99071 10.9036C7.99071 11.8658 8.77071 12.6458 9.73288 12.6458C10.695 12.6458 11.475 11.8658 11.475 10.9036C11.475 9.94143 10.695 9.16144 9.73288 9.16144ZM6.82927 10.9036C6.82927 9.29999 8.12926 8 9.73288 8C11.3365 8 12.6365 9.29999 12.6365 10.9036C12.6365 12.5072 11.3365 13.8072 9.73288 13.8072C8.12926 13.8072 6.82927 12.5072 6.82927 10.9036ZM14.5367 15.7029C11.2259 13.991 7.20658 14.1638 4.02989 16.2439L3.79078 16.4005C3.4221 16.6419 3.19995 17.0529 3.19995 17.4936V20.4851C3.19995 21.2067 3.78495 21.7917 4.50657 21.7917H8.71616V20.6303H4.50657C4.42639 20.6303 4.36139 20.5653 4.36139 20.4851V17.4936C4.36139 17.4447 4.38608 17.399 4.42704 17.3722L4.66615 17.2156C7.16736 15.5778 10.2564 15.2705 12.9745 16.2797C13.4881 16.0617 14.0095 15.8694 14.5367 15.7029Z" fill="#33363D"/>
<path d="M14.5367 15.7029L14.597 15.8937L15.0589 15.7478L14.6286 15.5253L14.5367 15.7029ZM4.02989 16.2439L3.92033 16.0766H3.92033L4.02989 16.2439ZM3.79078 16.4005L3.90035 16.5678H3.90035L3.79078 16.4005ZM8.71616 21.7917V21.9917H8.91616V21.7917H8.71616ZM8.71616 20.6303H8.91616V20.4303H8.71616V20.6303ZM4.42704 17.3722L4.5366 17.5395L4.5366 17.5395L4.42704 17.3722ZM4.66615 17.2156L4.55658 17.0483H4.55658L4.66615 17.2156ZM12.9745 16.2797L12.9049 16.4672L12.9795 16.4949L13.0527 16.4638L12.9745 16.2797ZM8.19071 10.9036C8.19071 10.0519 8.88116 9.36144 9.73288 9.36144V8.96144C8.66025 8.96144 7.79071 9.83098 7.79071 10.9036H8.19071ZM9.73288 12.4458C8.88116 12.4458 8.19071 11.7553 8.19071 10.9036H7.79071C7.79071 11.9762 8.66025 12.8458 9.73288 12.8458V12.4458ZM11.275 10.9036C11.275 11.7553 10.5846 12.4458 9.73288 12.4458V12.8458C10.8055 12.8458 11.675 11.9762 11.675 10.9036H11.275ZM9.73288 9.36144C10.5846 9.36144 11.275 10.0519 11.275 10.9036H11.675C11.675 9.83098 10.8055 8.96144 9.73288 8.96144V9.36144ZM9.73288 7.8C8.0188 7.8 6.62927 9.18953 6.62927 10.9036H7.02927C7.02927 9.41044 8.23972 8.2 9.73288 8.2V7.8ZM12.8365 10.9036C12.8365 9.18953 11.4469 7.8 9.73288 7.8V8.2C11.226 8.2 12.4365 9.41044 12.4365 10.9036H12.8365ZM9.73288 14.0072C11.4469 14.0072 12.8365 12.6177 12.8365 10.9036H12.4365C12.4365 12.3968 11.226 13.6072 9.73288 13.6072V14.0072ZM6.62927 10.9036C6.62927 12.6177 8.0188 14.0072 9.73288 14.0072V13.6072C8.23972 13.6072 7.02927 12.3968 7.02927 10.9036H6.62927ZM14.6286 15.5253C11.2543 13.7805 7.15794 13.9566 3.92033 16.0766L4.13945 16.4112C7.25522 14.371 11.1976 14.2015 14.4449 15.8806L14.6286 15.5253ZM3.92033 16.0766L3.68122 16.2332L3.90035 16.5678L4.13945 16.4112L3.92033 16.0766ZM3.68122 16.2332C3.2561 16.5116 2.99995 16.9855 2.99995 17.4936H3.39995C3.39995 17.1204 3.5881 16.7723 3.90035 16.5678L3.68122 16.2332ZM2.99995 17.4936V20.4851H3.39995V17.4936H2.99995ZM2.99995 20.4851C2.99995 21.3172 3.67449 21.9917 4.50657 21.9917V21.5917C3.8954 21.5917 3.39995 21.0963 3.39995 20.4851H2.99995ZM4.50657 21.9917H8.71616V21.5917H4.50657V21.9917ZM8.51616 20.6303V21.7917H8.91616V20.6303H8.51616ZM8.71616 20.4303H4.50657V20.8303H8.71616V20.4303ZM4.50657 20.4303C4.53685 20.4303 4.56139 20.4548 4.56139 20.4851H4.16139C4.16139 20.6757 4.31593 20.8303 4.50657 20.8303V20.4303ZM4.56139 20.4851V17.4936H4.16139V20.4851H4.56139ZM4.56139 17.4936C4.56139 17.5121 4.55207 17.5294 4.5366 17.5395L4.31748 17.2048C4.22008 17.2686 4.16139 17.3772 4.16139 17.4936H4.56139ZM4.5366 17.5395L4.77571 17.3829L4.55658 17.0483L4.31748 17.2048L4.5366 17.5395ZM4.77571 17.3829C7.22292 15.7804 10.2453 15.4797 12.9049 16.4672L13.0442 16.0922C10.2674 15.0612 7.11179 15.3751 4.55658 17.0483L4.77571 17.3829ZM14.4765 15.5122C13.9432 15.6806 13.4158 15.8751 12.8964 16.0956L13.0527 16.4638C13.5604 16.2483 14.0757 16.0582 14.597 15.8937L14.4765 15.5122Z" fill="#33363D" mask="url(#path-1-outside-1_189_5302)"/>
<mask id="path-3-outside-2_189_5302" maskUnits="userSpaceOnUse" x="9.82153" y="7" width="19" height="20" fill="black">
<rect fill="white" x="9.82153" y="7" width="19" height="20"/>
<path fill-rule="evenodd" clip-rule="evenodd" d="M17.3686 11.9679C17.3686 10.6531 18.4345 9.58718 19.7494 9.58718C21.0643 9.58718 22.1302 10.6531 22.1302 11.9679C22.1302 13.2828 21.0643 14.3487 19.7494 14.3487C18.4345 14.3487 17.3686 13.2828 17.3686 11.9679ZM19.7494 8C17.558 8 15.7815 9.77651 15.7815 11.9679C15.7815 14.1594 17.558 15.9359 19.7494 15.9359C21.9408 15.9359 23.7173 14.1594 23.7173 11.9679C23.7173 9.77651 21.9408 8 19.7494 8ZM27.9252 19.5005C23.149 16.1694 16.8273 16.0769 11.9557 19.2669L11.6289 19.4809C11.1251 19.8108 10.8215 20.3725 10.8215 20.9747V25.0627C10.8215 26.0489 11.621 26.8483 12.6071 26.8483H26.8909C27.8771 26.8483 28.6765 26.0489 28.6765 25.0627V20.9404C28.6765 20.3665 28.396 19.8288 27.9252 19.5005ZM12.8252 20.5948C17.1546 17.7598 22.7727 17.842 27.0173 20.8024C27.0624 20.8338 27.0893 20.8854 27.0893 20.9404V25.0627C27.0893 25.1723 27.0005 25.2611 26.8909 25.2611H12.6071C12.4975 25.2611 12.4087 25.1723 12.4087 25.0627V20.9747C12.4087 20.9078 12.4424 20.8454 12.4984 20.8087L12.8252 20.5948Z"/>
</mask>
<path fill-rule="evenodd" clip-rule="evenodd" d="M17.3686 11.9679C17.3686 10.6531 18.4345 9.58718 19.7494 9.58718C21.0643 9.58718 22.1302 10.6531 22.1302 11.9679C22.1302 13.2828 21.0643 14.3487 19.7494 14.3487C18.4345 14.3487 17.3686 13.2828 17.3686 11.9679ZM19.7494 8C17.558 8 15.7815 9.77651 15.7815 11.9679C15.7815 14.1594 17.558 15.9359 19.7494 15.9359C21.9408 15.9359 23.7173 14.1594 23.7173 11.9679C23.7173 9.77651 21.9408 8 19.7494 8ZM27.9252 19.5005C23.149 16.1694 16.8273 16.0769 11.9557 19.2669L11.6289 19.4809C11.1251 19.8108 10.8215 20.3725 10.8215 20.9747V25.0627C10.8215 26.0489 11.621 26.8483 12.6071 26.8483H26.8909C27.8771 26.8483 28.6765 26.0489 28.6765 25.0627V20.9404C28.6765 20.3665 28.396 19.8288 27.9252 19.5005ZM12.8252 20.5948C17.1546 17.7598 22.7727 17.842 27.0173 20.8024C27.0624 20.8338 27.0893 20.8854 27.0893 20.9404V25.0627C27.0893 25.1723 27.0005 25.2611 26.8909 25.2611H12.6071C12.4975 25.2611 12.4087 25.1723 12.4087 25.0627V20.9747C12.4087 20.9078 12.4424 20.8454 12.4984 20.8087L12.8252 20.5948Z" fill="#33363D"/>
<path d="M11.9557 19.2669L12.0269 19.3757H12.0269L11.9557 19.2669ZM27.9252 19.5005L27.9996 19.3939L27.9252 19.5005ZM11.6289 19.4809L11.5577 19.3721H11.5577L11.6289 19.4809ZM27.0173 20.8024L27.0917 20.6957V20.6957L27.0173 20.8024ZM12.8252 20.5948L12.754 20.486L12.8252 20.5948ZM12.4984 20.8087L12.4272 20.7H12.4272L12.4984 20.8087ZM19.7494 9.45718C18.3627 9.45718 17.2386 10.5813 17.2386 11.9679H17.4986C17.4986 10.7249 18.5063 9.71718 19.7494 9.71718V9.45718ZM22.2602 11.9679C22.2602 10.5813 21.1361 9.45718 19.7494 9.45718V9.71718C20.9925 9.71718 22.0002 10.7249 22.0002 11.9679H22.2602ZM19.7494 14.4787C21.1361 14.4787 22.2602 13.3546 22.2602 11.9679H22.0002C22.0002 13.211 20.9925 14.2187 19.7494 14.2187V14.4787ZM17.2386 11.9679C17.2386 13.3546 18.3627 14.4787 19.7494 14.4787V14.2187C18.5063 14.2187 17.4986 13.211 17.4986 11.9679H17.2386ZM15.9115 11.9679C15.9115 9.84831 17.6298 8.13 19.7494 8.13V7.87C17.4862 7.87 15.6515 9.70471 15.6515 11.9679H15.9115ZM19.7494 15.8059C17.6298 15.8059 15.9115 14.0876 15.9115 11.9679H15.6515C15.6515 14.2312 17.4862 16.0659 19.7494 16.0659V15.8059ZM23.5873 11.9679C23.5873 14.0876 21.869 15.8059 19.7494 15.8059V16.0659C22.0126 16.0659 23.8473 14.2312 23.8473 11.9679H23.5873ZM19.7494 8.13C21.869 8.13 23.5873 9.84831 23.5873 11.9679H23.8473C23.8473 9.70471 22.0126 7.87 19.7494 7.87V8.13ZM12.0269 19.3757C16.8541 16.2148 23.1182 16.3064 27.8509 19.6071L27.9996 19.3939C23.1799 16.0324 16.8005 15.9391 11.8845 19.1582L12.0269 19.3757ZM11.7002 19.5897L12.0269 19.3757L11.8845 19.1582L11.5577 19.3721L11.7002 19.5897ZM10.9515 20.9747C10.9515 20.4163 11.233 19.8955 11.7002 19.5897L11.5577 19.3721C11.0172 19.7261 10.6915 20.3286 10.6915 20.9747H10.9515ZM10.9515 25.0627V20.9747H10.6915V25.0627H10.9515ZM12.6071 26.7183C11.6928 26.7183 10.9515 25.9771 10.9515 25.0627H10.6915C10.6915 26.1207 11.5492 26.9783 12.6071 26.9783V26.7183ZM26.8909 26.7183H12.6071V26.9783H26.8909V26.7183ZM28.5465 25.0627C28.5465 25.9771 27.8053 26.7183 26.8909 26.7183V26.9783C27.9489 26.9783 28.8065 26.1207 28.8065 25.0627H28.5465ZM28.5465 20.9404V25.0627H28.8065V20.9404H28.5465ZM27.8509 19.6071C28.2867 19.9111 28.5465 20.409 28.5465 20.9404H28.8065C28.8065 20.324 28.5052 19.7465 27.9996 19.3939L27.8509 19.6071ZM27.0917 20.6957C22.8035 17.705 17.1277 17.622 12.754 20.486L12.8964 20.7035C17.1814 17.8977 22.7419 17.979 26.9429 20.909L27.0917 20.6957ZM27.2193 20.9404C27.2193 20.8429 27.1717 20.7515 27.0917 20.6957L26.9429 20.909C26.9532 20.9161 26.9593 20.9279 26.9593 20.9404H27.2193ZM27.2193 25.0627V20.9404H26.9593V25.0627H27.2193ZM26.8909 25.3911C27.0723 25.3911 27.2193 25.2441 27.2193 25.0627H26.9593C26.9593 25.1005 26.9287 25.1311 26.8909 25.1311V25.3911ZM12.6071 25.3911H26.8909V25.1311H12.6071V25.3911ZM12.2787 25.0627C12.2787 25.2441 12.4257 25.3911 12.6071 25.3911V25.1311C12.5693 25.1311 12.5387 25.1005 12.5387 25.0627H12.2787ZM12.2787 20.9747V25.0627H12.5387V20.9747H12.2787ZM12.4272 20.7C12.3345 20.7606 12.2787 20.8639 12.2787 20.9747H12.5387C12.5387 20.9516 12.5503 20.9301 12.5696 20.9175L12.4272 20.7ZM12.754 20.486L12.4272 20.7L12.5696 20.9175L12.8964 20.7035L12.754 20.486Z" fill="#33363D" mask="url(#path-3-outside-2_189_5302)"/>
</svg>
