<svg width="32" height="32" viewBox="0 0 32 32" fill="none" xmlns="http://www.w3.org/2000/svg">
<path d="M29 12.4353C29 8.3355 25.534 5 21.2737 5C19.3046 5 17.4245 5.72101 16 7.00153C14.5757 5.72101 12.6954 5 10.7263 5C6.46602 5 3 8.3355 3 12.4353C3 14.3387 3.61076 16.1988 4.81622 17.9701L4.23125 18.6761C3.43124 19.6414 3.59648 21.0533 4.59981 21.8233C5.02748 22.1517 5.53966 22.3111 6.04846 22.3111C6.24623 22.3111 6.44321 22.2861 6.63483 22.2385C6.77547 22.6444 7.03433 23.0034 7.3902 23.2764C7.80637 23.596 8.312 23.7655 8.83667 23.7655C8.92455 23.7655 9.01302 23.7607 9.10168 23.7512C9.10645 23.7506 9.11101 23.7498 9.11577 23.7493C9.22546 24.2351 9.50258 24.689 9.937 25.0225C10.3647 25.3509 10.8768 25.5101 11.3857 25.5101C11.5703 25.5101 11.7544 25.4885 11.9341 25.4469C12.0692 25.8527 12.3255 26.2259 12.697 26.5111C13.1134 26.8307 13.6188 27 14.1435 27C14.2316 27 14.3201 26.9952 14.4087 26.9857C15.0264 26.9187 15.5801 26.6243 15.9677 26.1566L16.2029 25.8726C16.2065 25.8716 16.2103 25.8705 16.2138 25.8695C16.2327 25.8642 16.2515 25.8583 16.2698 25.8516C16.2716 25.851 16.2733 25.8504 16.2751 25.8499L16.2773 25.8489L16.2793 25.8483C16.4523 25.784 19.4888 24.6386 22.5696 22.4653C24.4132 21.1649 25.8869 19.7643 26.9499 18.3029C28.3093 16.4334 28.999 14.4605 28.9998 12.439L29 12.4353ZM13.6526 25.3581C13.4865 25.2308 13.3822 25.0487 13.3584 24.8458C13.3346 24.6426 13.3943 24.443 13.5268 24.2832L14.8804 22.6497C15.0371 22.4605 15.2688 22.362 15.5025 22.362C15.6763 22.362 15.8512 22.4164 15.9974 22.5287C16.1635 22.656 16.2678 22.8379 16.2916 23.041C16.3154 23.244 16.2555 23.4438 16.1232 23.6034L14.7695 25.2369C14.4962 25.5668 13.9953 25.621 13.6526 25.3581ZM10.8925 23.8695C10.5497 23.6065 10.4934 23.1243 10.7666 22.7946L12.1204 21.1611C12.2527 21.0013 12.4417 20.9007 12.6528 20.8778C12.683 20.8746 12.7133 20.8731 12.7433 20.8731C12.9224 20.8731 13.0952 20.9309 13.2372 21.0399C13.4032 21.1674 13.5078 21.3493 13.5316 21.5523C13.5554 21.7554 13.4955 21.955 13.3631 22.1148L12.0095 23.7483C11.7362 24.0782 11.2351 24.1324 10.8925 23.8695ZM5.55533 20.6703C5.21255 20.4075 5.15622 19.9253 5.42937 19.5954L6.7832 17.9619C6.91551 17.8023 7.10455 17.7017 7.31561 17.6788C7.34576 17.6756 7.37611 17.6739 7.40607 17.6739C7.58519 17.6739 7.75797 17.7317 7.89999 17.8409C8.06602 17.9682 8.17056 18.1501 8.19437 18.3533C8.21817 18.5564 8.15826 18.756 8.02596 18.9158L6.67232 20.5493C6.39897 20.879 5.8979 20.9334 5.55533 20.6703ZM8.34572 22.1236C8.17969 21.9961 8.07515 21.8142 8.05135 21.6112C8.02754 21.4081 8.08745 21.2085 8.21976 21.0487L9.57339 19.4152C9.7303 19.226 9.96179 19.1275 10.1957 19.1275C10.3694 19.1275 10.5444 19.1819 10.6904 19.294C11.0332 19.557 11.0895 20.0392 10.8161 20.3689L9.46251 22.0024C9.3302 22.1622 9.14116 22.2628 8.9301 22.2857C8.71944 22.3086 8.51155 22.2509 8.34572 22.1236ZM21.6901 21.2573C20.2928 22.2458 18.8838 23.0183 17.7861 23.5582C17.8311 23.3364 17.8414 23.1069 17.8144 22.8759C17.7448 22.2815 17.4387 21.7487 16.9527 21.3757C16.3701 20.9284 15.6312 20.7954 14.9572 20.9508C14.8187 20.5342 14.5561 20.166 14.1927 19.8871C13.7067 19.5141 13.0989 19.3455 12.481 19.4125C12.4765 19.4129 12.4719 19.4139 12.4671 19.4142C12.3574 18.9284 12.0803 18.4745 11.6459 18.141C11.0518 17.6851 10.2952 17.5551 9.61069 17.7252C9.46985 17.3196 9.21118 16.9609 8.85551 16.6879C8.36952 16.3149 7.76173 16.1463 7.14403 16.2133C6.65724 16.266 6.21053 16.4607 5.85327 16.7694C5.08778 15.5356 4.57541 14.1494 4.53514 12.6291C4.53494 12.6251 4.53474 12.6213 4.53474 12.6174C4.53316 12.5569 4.53236 12.4962 4.53236 12.4353C4.53236 9.14852 7.31105 6.47466 10.7263 6.47466C12.3035 6.47466 13.8093 7.05173 14.951 8.07664L11.4916 11.725C10.8423 12.4098 10.7209 13.3772 11.1823 14.1898C11.6453 15.0052 12.5604 15.4308 13.5137 15.2741C15.681 14.9177 17.7166 13.9134 19.5745 12.2853L25.3733 17.8655C24.2881 19.2367 22.9328 20.3781 21.6901 21.2573ZM26.2408 16.6148L20.129 10.7331C19.8298 10.4453 19.3446 10.4453 19.0453 10.7331C17.2693 12.4422 15.3216 13.4809 13.2556 13.8205C12.8002 13.8953 12.5828 13.5809 12.527 13.4826C12.4719 13.3856 12.316 13.0435 12.6236 12.719L16.5659 8.56132C16.5685 8.55865 16.5707 8.5556 16.5731 8.55293C16.5755 8.55044 16.578 8.54834 16.5804 8.54567C17.7593 7.22965 19.47 6.47466 21.2737 6.47466C24.6882 6.47466 27.4662 9.14737 27.4674 12.433V12.4353C27.4674 13.968 26.9854 15.3675 26.2408 16.6148Z" fill="#33363D" stroke="#33363D" stroke-width="0.23"/>
</svg>
