<svg width="24" height="24" viewBox="0 0 24 24" fill="none" xmlns="http://www.w3.org/2000/svg">
<path d="M10.2188 7.25C10.5467 7.25 10.8125 7.51583 10.8125 7.84375C10.8125 8.17167 10.5467 8.4375 10.2188 8.4375H7.84375C7.51583 8.4375 7.25 8.17167 7.25 7.84375C7.25 7.51583 7.51583 7.25 7.84375 7.25H10.2188ZM7.84375 10.8125C7.51583 10.8125 7.25 10.5467 7.25 10.2188C7.25 9.89083 7.51583 9.625 7.84375 9.625H10.2188C10.5467 9.625 10.8125 9.89083 10.8125 10.2188C10.8125 10.5467 10.5467 10.8125 10.2188 10.8125H7.84375ZM7.84375 13.1875C7.51583 13.1875 7.25 12.9217 7.25 12.5938C7.25 12.2658 7.51583 12 7.84375 12H9.03125C9.35917 12 9.625 12.2658 9.625 12.5938C9.625 12.9217 9.35917 13.1875 9.03125 13.1875H7.84375ZM5.46875 7.25C5.79667 7.25 6.0625 7.51583 6.0625 7.84375C6.0625 8.17167 5.79667 8.4375 5.46875 8.4375C5.14083 8.4375 4.875 8.17167 4.875 7.84375C4.875 7.51583 5.14083 7.25 5.46875 7.25ZM5.46875 9.625C5.79667 9.625 6.0625 9.89083 6.0625 10.2188C6.0625 10.5467 5.79667 10.8125 5.46875 10.8125C5.14083 10.8125 4.875 10.5467 4.875 10.2188C4.875 9.89083 5.14083 9.625 5.46875 9.625ZM5.46875 13.1875C5.14083 13.1875 4.875 12.9217 4.875 12.5938C4.875 12.2658 5.14083 12 5.46875 12C5.79667 12 6.0625 12.2658 6.0625 12.5938C6.0625 12.9217 5.79667 13.1875 5.46875 13.1875ZM3.6875 3.6875V20.3125H9.03125C9.35917 20.3125 9.625 20.5783 9.625 20.9062C9.625 21.2342 9.35917 21.5 9.03125 21.5H3.5C2.94772 21.5 2.5 21.0523 2.5 20.5V3.5C2.5 2.94771 2.94772 2.5 3.5 2.5H12.8442L17.9375 7.59326V9.03125C17.9375 9.35917 17.6717 9.625 17.3438 9.625C17.0158 9.625 16.75 9.35917 16.75 9.03125V8.4375H13C12.4477 8.4375 12 7.98978 12 7.4375V3.6875H3.6875ZM13.1875 4.53174V7.25H15.9058L13.1875 4.53174ZM19.125 12H20.5C21.0523 12 21.5 12.4477 21.5 13V20.5C21.5 21.0523 21.0523 21.5 20.5 21.5H11.8125C11.2602 21.5 10.8125 21.0523 10.8125 20.5V13C10.8125 12.4477 11.2602 12 11.8125 12H13.1875V11.4062C13.1875 11.0783 13.4533 10.8125 13.7812 10.8125C14.1092 10.8125 14.375 11.0783 14.375 11.4062V12H17.9375V11.4062C17.9375 11.0783 18.2033 10.8125 18.5312 10.8125C18.8592 10.8125 19.125 11.0783 19.125 11.4062V12ZM20.3125 20.3125V15.5625H12V20.3125H20.3125ZM20.3125 14.375V13.1875H12V14.375H20.3125Z" fill="#33363D"/>
<path d="M2.2998 20.5V3.5C2.2998 2.83726 2.83726 2.2998 3.5 2.2998V2.5C2.94772 2.5 2.5 2.94772 2.5 3.5V20.5L2.50488 20.6025C2.55278 21.073 2.92703 21.4472 3.39746 21.4951L3.5 21.5H9.03125L9.15137 21.4883C9.38298 21.4407 9.56573 21.258 9.61328 21.0264L9.625 20.9062C9.625 20.6195 9.42174 20.3797 9.15137 20.3242L9.03125 20.3125V20.1123C9.46963 20.1123 9.8252 20.4679 9.8252 20.9062C9.8252 21.3446 9.46963 21.7002 9.03125 21.7002H3.5C2.83726 21.7002 2.2998 21.1627 2.2998 20.5ZM10.6123 20.5V13C10.6123 12.3373 11.1498 11.7998 11.8125 11.7998V12L11.71 12.0049C11.2058 12.0562 10.8125 12.4823 10.8125 13V20.5L10.8174 20.6025C10.8653 21.073 11.2395 21.4472 11.71 21.4951L11.8125 21.5H20.5L20.6025 21.4951C21.073 21.4472 21.4472 21.073 21.4951 20.6025L21.5 20.5V13C21.5 12.4823 21.1067 12.0562 20.6025 12.0049L20.5 12V11.7998C21.1627 11.7998 21.7002 12.3373 21.7002 13V20.5C21.7002 21.1627 21.1627 21.7002 20.5 21.7002H11.8125C11.1498 21.7002 10.6123 21.1627 10.6123 20.5ZM20.3125 15.5625V20.3125H12V15.5625H20.3125ZM12.2002 20.1123H20.1123V15.7627H12.2002V20.1123ZM20.3125 13.1875V14.375H12V13.1875H20.3125ZM12.2002 14.1748H20.1123V13.3877H12.2002V14.1748ZM6.0625 12.5938C6.0625 12.307 5.85924 12.0672 5.58887 12.0117L5.46875 12C5.14083 12 4.875 12.2658 4.875 12.5938L4.88672 12.7139C4.93427 12.9455 5.11702 13.1282 5.34863 13.1758L5.46875 13.1875C5.75555 13.1875 5.99527 12.9842 6.05078 12.7139L6.0625 12.5938ZM7.0498 12.5938C7.0498 12.1554 7.40537 11.7998 7.84375 11.7998V12L7.72363 12.0117C7.45326 12.0672 7.25 12.307 7.25 12.5938L7.26172 12.7139C7.30927 12.9455 7.49202 13.1282 7.72363 13.1758L7.84375 13.1875H9.03125L9.15137 13.1758C9.38298 13.1282 9.56573 12.9455 9.61328 12.7139L9.625 12.5938C9.625 12.307 9.42174 12.0672 9.15137 12.0117L9.03125 12V11.7998C9.46963 11.7998 9.8252 12.1554 9.8252 12.5938C9.8252 13.0321 9.46963 13.3877 9.03125 13.3877H7.84375C7.40537 13.3877 7.0498 13.0321 7.0498 12.5938ZM19.125 11.4062C19.125 11.1195 18.9217 10.8797 18.6514 10.8242L18.5312 10.8125C18.2033 10.8125 17.9375 11.0783 17.9375 11.4062V12H14.375V11.4062C14.375 11.1195 14.1717 10.8797 13.9014 10.8242L13.7812 10.8125C13.4533 10.8125 13.1875 11.0783 13.1875 11.4062V12H11.8125V11.7998H12.9873V11.4062C12.9873 10.9679 13.3429 10.6123 13.7812 10.6123C14.2196 10.6123 14.5752 10.9679 14.5752 11.4062V11.7998H17.7373V11.4062C17.7373 10.9679 18.0929 10.6123 18.5312 10.6123C18.9696 10.6123 19.3252 10.9679 19.3252 11.4062V11.7998H20.5V12H19.125V11.4062ZM9.03125 11.7998V12H7.84375V11.7998H9.03125ZM6.0625 10.2188C6.0625 9.93195 5.85924 9.69223 5.58887 9.63672L5.46875 9.625C5.14083 9.625 4.875 9.89083 4.875 10.2188L4.88672 10.3389C4.93427 10.5705 5.11702 10.7532 5.34863 10.8008L5.46875 10.8125C5.75555 10.8125 5.99527 10.6092 6.05078 10.3389L6.0625 10.2188ZM7.0498 10.2188C7.0498 9.78037 7.40537 9.4248 7.84375 9.4248V9.625L7.72363 9.63672C7.45326 9.69223 7.25 9.93195 7.25 10.2188L7.26172 10.3389C7.30927 10.5705 7.49202 10.7532 7.72363 10.8008L7.84375 10.8125H10.2188L10.3389 10.8008C10.5705 10.7532 10.7532 10.5705 10.8008 10.3389L10.8125 10.2188C10.8125 9.93195 10.6092 9.69223 10.3389 9.63672L10.2188 9.625V9.4248C10.6571 9.4248 11.0127 9.78037 11.0127 10.2188C11.0127 10.6571 10.6571 11.0127 10.2188 11.0127H7.84375C7.40537 11.0127 7.0498 10.6571 7.0498 10.2188ZM16.5498 9.03125V8.6377H13C12.3373 8.6377 11.7998 8.10024 11.7998 7.4375V3.8877H3.8877V20.1123H9.03125V20.3125H3.6875V3.6875H12V7.4375L12.0049 7.54004C12.0528 8.01047 12.427 8.38472 12.8975 8.43262L13 8.4375H16.75V9.03125L16.7617 9.15137C16.8093 9.38298 16.992 9.56573 17.2236 9.61328L17.3438 9.625C17.6305 9.625 17.8703 9.42174 17.9258 9.15137L17.9375 9.03125V7.59277L12.8438 2.5H3.5V2.2998H12.9268L18.1377 7.51074V9.03125C18.1377 9.46963 17.7821 9.8252 17.3438 9.8252C16.9054 9.8252 16.5498 9.46963 16.5498 9.03125ZM10.2188 9.4248V9.625H7.84375V9.4248H10.2188ZM6.0625 7.84375C6.0625 7.55695 5.85924 7.31723 5.58887 7.26172L5.46875 7.25C5.14083 7.25 4.875 7.51583 4.875 7.84375L4.88672 7.96387C4.93427 8.19548 5.11702 8.37823 5.34863 8.42578L5.46875 8.4375C5.75555 8.4375 5.99527 8.23424 6.05078 7.96387L6.0625 7.84375ZM7.0498 7.84375C7.0498 7.40537 7.40537 7.0498 7.84375 7.0498V7.25L7.72363 7.26172C7.45326 7.31723 7.25 7.55695 7.25 7.84375L7.26172 7.96387C7.30927 8.19548 7.49202 8.37823 7.72363 8.42578L7.84375 8.4375H10.2188L10.3389 8.42578C10.5705 8.37823 10.7532 8.19548 10.8008 7.96387L10.8125 7.84375C10.8125 7.55695 10.6092 7.31723 10.3389 7.26172L10.2188 7.25V7.0498C10.6571 7.0498 11.0127 7.40537 11.0127 7.84375C11.0127 8.28213 10.6571 8.6377 10.2188 8.6377H7.84375C7.40537 8.6377 7.0498 8.28213 7.0498 7.84375ZM10.2188 7.0498V7.25H7.84375V7.0498H10.2188ZM15.9053 7.25H13.1875V4.53125L15.9053 7.25ZM13.3877 7.0498H15.4229L13.3877 5.01465V7.0498ZM6.2627 12.5938C6.2627 13.0321 5.90713 13.3877 5.46875 13.3877C5.03037 13.3877 4.6748 13.0321 4.6748 12.5938C4.6748 12.1554 5.03037 11.7998 5.46875 11.7998C5.90713 11.7998 6.2627 12.1554 6.2627 12.5938ZM6.2627 10.2188C6.2627 10.6571 5.90713 11.0127 5.46875 11.0127C5.03037 11.0127 4.6748 10.6571 4.6748 10.2188C4.6748 9.78037 5.03037 9.4248 5.46875 9.4248C5.90713 9.4248 6.2627 9.78037 6.2627 10.2188ZM6.2627 7.84375C6.2627 8.28213 5.90713 8.6377 5.46875 8.6377C5.03037 8.6377 4.6748 8.28213 4.6748 7.84375C4.6748 7.40537 5.03037 7.0498 5.46875 7.0498C5.90713 7.0498 6.2627 7.40537 6.2627 7.84375Z" fill="#33363D"/>
</svg>
