<svg width="20" height="20" viewBox="0 0 20 20" fill="none" xmlns="http://www.w3.org/2000/svg">
<path fill-rule="evenodd" clip-rule="evenodd" d="M16.8334 2.5C17.0102 2.5 17.1798 2.57023 17.3048 2.69526C17.4298 2.82028 17.5001 2.98985 17.5001 3.16667V16.8357C17.5001 17.2039 17.2016 17.5023 16.8334 17.5023H10.6674C10.2992 17.5023 10.0007 17.2039 10.0007 16.8357C10.0007 16.4675 10.2992 16.169 10.6674 16.169H16.1668V3.83335L10.6674 3.8335C10.2992 3.83351 10.0007 3.53504 10.0007 3.16685C10.0007 2.79866 10.2992 2.50017 10.6674 2.50016L16.8334 2.5ZM12.9628 10.4807C13.0935 10.355 13.1674 10.1815 13.1674 10.0002C13.1674 9.81882 13.0935 9.6453 12.9628 9.51961L8.62947 5.35294C8.36407 5.09775 7.94204 5.10602 7.68684 5.37142C7.43165 5.63683 7.43992 6.05886 7.70533 6.31405L10.8455 9.3335H2.83537C2.46718 9.3335 2.1687 9.63197 2.1687 10.0002C2.1687 10.3684 2.46718 10.6668 2.83537 10.6668H10.8455L7.70533 13.6863C7.43992 13.9415 7.43165 14.3635 7.68684 14.6289C7.94204 14.8943 8.36407 14.9026 8.62947 14.6474L12.9628 10.4807Z" fill="#33363D"/>
</svg>
