<svg width="20" height="20" viewBox="0 0 20 20" fill="none" xmlns="http://www.w3.org/2000/svg">
<path fill-rule="evenodd" clip-rule="evenodd" d="M3.16668 2.5C2.98987 2.5 2.8203 2.57023 2.69527 2.69526C2.57024 2.82028 2.5 2.98985 2.5 3.16667V16.8357C2.5 17.2039 2.79848 17.5023 3.16667 17.5023H9.33268C9.70087 17.5023 9.99935 17.2039 9.99935 16.8357C9.99935 16.4675 9.70087 16.169 9.33268 16.169H3.83333V3.83335L9.33266 3.8335C9.70085 3.83351 9.99934 3.53504 9.99935 3.16685C9.99936 2.79866 9.70089 2.50017 9.3327 2.50016L3.16668 2.5ZM17.6274 10.4807C17.7582 10.355 17.832 10.1815 17.832 10.0002C17.832 9.81882 17.7582 9.6453 17.6274 9.51961L13.2941 5.35294C13.0287 5.09775 12.6067 5.10602 12.3515 5.37142C12.0963 5.63683 12.1046 6.05886 12.37 6.31405L15.5102 9.3335H7.5C7.13181 9.3335 6.83333 9.63197 6.83333 10.0002C6.83333 10.3684 7.13181 10.6668 7.5 10.6668H15.5102L12.37 13.6863C12.1046 13.9415 12.0963 14.3635 12.3515 14.6289C12.6067 14.8943 13.0287 14.9026 13.2941 14.6474L17.6274 10.4807Z" fill="#33363D"/>
</svg>
