<svg width="20" height="20" viewBox="0 0 20 20" fill="none" xmlns="http://www.w3.org/2000/svg">
<path fill-rule="evenodd" clip-rule="evenodd" d="M1.83276 5.00016C1.83276 4.63197 2.13124 4.3335 2.49943 4.3335H17.4994C17.8676 4.3335 18.1661 4.63197 18.1661 5.00016C18.1661 5.36835 17.8676 5.66683 17.4994 5.66683H2.49943C2.13124 5.66683 1.83276 5.36835 1.83276 5.00016ZM1.83276 10.0002C1.83276 9.63197 2.13124 9.3335 2.49943 9.3335H17.4994C17.8676 9.3335 18.1661 9.63197 18.1661 10.0002C18.1661 10.3684 17.8676 10.6668 17.4994 10.6668H2.49943C2.13124 10.6668 1.83276 10.3684 1.83276 10.0002ZM2.49943 14.3335C2.13124 14.3335 1.83276 14.632 1.83276 15.0002C1.83276 15.3684 2.13124 15.6668 2.49943 15.6668H17.4994C17.8676 15.6668 18.1661 15.3684 18.1661 15.0002C18.1661 14.632 17.8676 14.3335 17.4994 14.3335H2.49943Z" fill="#33363D"/>
</svg>
