<svg width="20" height="20" viewBox="0 0 20 20" fill="none" xmlns="http://www.w3.org/2000/svg">
<path fill-rule="evenodd" clip-rule="evenodd" d="M4.87712 11.8001L4.82111 15.3288L8.34975 15.2727L16.4869 7.13558L13.0143 3.66295L4.87712 11.8001ZM8.50027 16.5905C8.75996 16.5864 9.00785 16.4814 9.1915 16.2978L17.6466 7.84269C18.0371 7.45216 18.0371 6.819 17.6466 6.42847L13.7214 2.50329C13.3309 2.11277 12.6977 2.11277 12.3072 2.50329L3.85211 10.9584C3.66846 11.142 3.56346 11.3899 3.55934 11.6496L3.49603 15.6381C3.48707 16.2027 3.94713 16.6628 4.51178 16.6538L8.50027 16.5905Z" fill="#33363D"/>
<path fill-rule="evenodd" clip-rule="evenodd" d="M15.0065 9.89049C14.7487 10.1482 14.3309 10.1482 14.0731 9.89049L10.2593 6.07663C10.0015 5.81889 10.0015 5.401 10.2593 5.14325C10.517 4.88551 10.9349 4.88551 11.1926 5.14325L15.0065 8.95711C15.2642 9.21485 15.2642 9.63274 15.0065 9.89049Z" fill="#33363D"/>
</svg>
