<svg width="20" height="20" viewBox="0 0 20 20" fill="none" xmlns="http://www.w3.org/2000/svg">
<path d="M17.764 7.93524L16.6156 6.78688L13.1542 3.3255L12.0059 2.17714C11.7697 1.94095 11.3788 1.94095 11.1426 2.17714C10.9064 2.41333 10.9064 2.80426 11.1426 3.04045L11.8593 3.75716L9.03318 6.58327C7.67306 6.48553 6.35367 6.95791 5.37634 7.93524L4.79808 8.51349C4.5619 8.74968 4.5619 9.14061 4.79808 9.3768L7.24955 11.8283L2.50136 16.5765C2.26517 16.8126 2.26517 17.2036 2.50136 17.4398C2.62353 17.5619 2.77827 17.6189 2.93301 17.6189C3.08776 17.6189 3.2425 17.5619 3.36467 17.4398L8.11286 12.6916L10.5643 15.143C10.6783 15.2571 10.8331 15.3222 10.996 15.3222C11.1589 15.3222 11.3136 15.2571 11.4276 15.143L12.0059 14.5648C12.9832 13.5875 13.4637 12.2681 13.3579 10.908L16.184 8.08184L16.9007 8.79855C17.0228 8.92071 17.1776 8.97772 17.3323 8.97772C17.4871 8.97772 17.6418 8.92071 17.764 8.79855C18.0002 8.56236 18.0002 8.17143 17.764 7.93524Z" fill="#256EF4"/>
</svg>
