<svg width="12" height="12" viewBox="0 0 12 12" fill="none" xmlns="http://www.w3.org/2000/svg">
<path d="M5.99902 0C6.29353 0 6.53313 0.238711 6.5332 0.533203V5.4668H11.4668C11.7612 5.46687 11.9999 5.70555 12 6C12 6.29451 11.7613 6.53313 11.4668 6.5332H6.5332V11.4668C6.5332 11.7613 6.29358 12 5.99902 12C5.70468 11.9998 5.46582 11.7612 5.46582 11.4668V6.5332H0.533203C0.238711 6.53313 0 6.29451 0 6C7.03599e-05 5.70555 0.238754 5.46687 0.533203 5.4668H5.46582V0.533203C5.46589 0.238863 5.70472 0.00024569 5.99902 0Z" fill="#33363D"/>
</svg>
