<svg width="20" height="20" viewBox="0 0 20 20" fill="none" xmlns="http://www.w3.org/2000/svg">
<path fill-rule="evenodd" clip-rule="evenodd" d="M5.66675 1.66675C5.29856 1.66675 5.00008 1.96522 5.00008 2.33341V5.83341H3.1691C2.34085 5.83341 1.66935 6.50471 1.6691 7.33296L1.66675 15.1667C1.66669 15.3436 1.73691 15.5132 1.86194 15.6382C1.98697 15.7633 2.15657 15.8336 2.33341 15.8336H5.1661V17.6669C5.1661 18.0351 5.46457 18.3336 5.83276 18.3336H14.3328C14.701 18.3336 14.9994 18.0351 14.9994 17.6669V15.8336H17.6694C18.0375 15.8336 18.336 15.5351 18.336 15.1669V7.33342C18.336 6.50499 17.6644 5.83341 16.836 5.83341H14.9994V2.33341C14.9994 1.96522 14.701 1.66675 14.3328 1.66675H5.66675ZM13.6661 5.83341V3.00008H6.33342V5.83341H13.6661ZM17.0027 14.5002H14.9994V11.6669C14.9994 11.4901 14.9292 11.3205 14.8042 11.1955C14.6791 11.0705 14.5096 11.0002 14.3328 11.0002H5.83276C5.46457 11.0002 5.1661 11.2987 5.1661 11.6669V14.5002H3.00028L3.00244 7.33336C3.00246 7.24134 3.07707 7.16675 3.1691 7.16675H16.836C16.9281 7.16675 17.0027 7.24137 17.0027 7.33342V14.5002ZM6.49943 12.3336V17.0002H13.6661V12.3336H6.49943Z" fill="#33363D"/>
</svg>
