<svg width="40" height="40" viewBox="0 0 40 40" fill="none" xmlns="http://www.w3.org/2000/svg">
<path d="M30.5 5H9.5C6.95 5 5 6.95 5 9.5V19C5 19.5523 5.44772 20 6 20H11V31.55L16.1 35L19.55 32.6L23 35L26.45 32.6L29.9 35L35 31.4V9.5C35 6.95 33.05 5 30.5 5ZM8 17V9.5C8 8.6 8.6 8 9.5 8C10.4 8 11 8.6 11 9.5V17H8ZM32 29.9L29.9 31.4L26.45 29L23 31.4L19.55 29L16.1 31.4L14 29.9V9.5C14 8.9 13.85 8.45 13.7 8H30.5C31.4 8 32 8.6 32 9.5V29.9Z" fill="#063A74"/>
<path d="M17 12.5C17 11.6716 17.6716 11 18.5 11H27.5C28.3284 11 29 11.6716 29 12.5C29 13.3284 28.3284 14 27.5 14H18.5C17.6716 14 17 13.3284 17 12.5Z" fill="#063A74"/>
<path d="M17 18.5C17 17.6716 17.6716 17 18.5 17H27.5C28.3284 17 29 17.6716 29 18.5C29 19.3284 28.3284 20 27.5 20H18.5C17.6716 20 17 19.3284 17 18.5Z" fill="#063A74"/>
<path d="M17 24.5C17 23.6716 17.6716 23 18.5 23H21.5C22.3284 23 23 23.6716 23 24.5C23 25.3284 22.3284 26 21.5 26H18.5C17.6716 26 17 25.3284 17 24.5Z" fill="#063A74"/>
</svg>
