<svg width="20" height="20" viewBox="0 0 20 20" fill="none" xmlns="http://www.w3.org/2000/svg">
<path d="M8.2002 1.66406C8.58646 1.66424 8.89924 1.97701 8.89941 2.36328V9.99707H16.4277L13.2881 6.97754C13.0227 6.72236 13.0144 6.30056 13.2695 6.03516C13.5247 5.76977 13.9465 5.76144 14.2119 6.0166L18.5449 10.1836C18.6756 10.3093 18.75 10.4827 18.75 10.6641C18.7499 10.8453 18.6756 11.0189 18.5449 11.1445L14.2119 15.3105C13.9465 15.5657 13.5247 15.5574 13.2695 15.292C13.0145 15.0266 13.0228 14.6047 13.2881 14.3496L16.4277 11.3301H8.16699C7.79891 11.3301 7.50018 11.0321 7.5 10.6641C7.5 10.644 7.50412 10.6241 7.50586 10.6045C7.50429 10.5854 7.5 10.5664 7.5 10.5469V2.36328C7.50017 1.9769 7.81378 1.66406 8.2002 1.66406Z" fill="#33363D"/>
</svg>
