<svg width="20" height="20" viewBox="0 0 20 20" fill="none" xmlns="http://www.w3.org/2000/svg">
<path fill-rule="evenodd" clip-rule="evenodd" d="M3.49813 10.0001C3.49813 6.41374 6.42277 3.50008 10.0384 3.50008C12.4941 3.50008 14.6332 4.84494 15.7515 6.8335H13.1667C12.7986 6.8335 12.5001 7.13197 12.5001 7.50016C12.5001 7.86835 12.7986 8.16683 13.1667 8.16683H17.3334C17.7016 8.16683 18.0001 7.86835 18.0001 7.50016V3.3335C18.0001 2.96531 17.7016 2.66683 17.3334 2.66683C16.9652 2.66683 16.6667 2.96531 16.6667 3.3335V5.77078C15.2663 3.60271 12.8206 2.16675 10.0384 2.16675C5.69344 2.16675 2.16479 5.67033 2.16479 10.0001C2.16479 14.3298 5.69344 17.8334 10.0384 17.8334C13.983 17.8334 17.2533 14.9467 17.824 11.1748C17.879 10.8108 17.6286 10.471 17.2645 10.4159C16.9005 10.3608 16.5607 10.6113 16.5056 10.9754C16.033 14.0996 13.3194 16.5001 10.0384 16.5001C6.42277 16.5001 3.49813 13.5864 3.49813 10.0001Z" fill="#33363D"/>
</svg>
