<svg width="24" height="24" viewBox="0 0 24 24" fill="none" xmlns="http://www.w3.org/2000/svg">
    <path d="M16.8247 8.78112H4.98176L7.40476 6.35812C7.74585 6.01703 7.74585 5.46412 7.40476 5.12304C7.06358 4.78186 6.51077 4.78195 6.16959 5.12304L2.25581 9.037C1.91473 9.37809 1.91473 9.931 2.25581 10.2721L6.16959 14.1859C6.34018 14.3564 6.56365 14.4416 6.78713 14.4416C7.0106 14.4416 7.23408 14.3563 7.40467 14.1859C7.74575 13.8448 7.74575 13.2919 7.40467 12.9508L4.98166 10.5278H16.8246C18.7151 10.5278 20.2533 12.0659 20.2533 13.9565C20.2533 15.847 18.7151 17.3851 16.8246 17.3851H9.6204C9.13803 17.3851 8.74707 17.7761 8.74707 18.2585C8.74707 18.7408 9.13803 19.1318 9.6204 19.1318H16.8246C19.6782 19.1318 21.9999 16.8101 21.9999 13.9565C21.9999 11.1028 19.6783 8.78112 16.8247 8.78112Z"
          fill="#33363D"/>
</svg>
