<svg width="32" height="32" viewBox="0 0 32 32" fill="none" xmlns="http://www.w3.org/2000/svg">
<g clip-path="url(#clip0_997_132525)">
<path d="M28.3032 29.2999H3.69658C3.30994 29.2999 2.99658 28.9866 2.99658 28.5999V19.7463C2.99658 18.573 3.95006 17.6184 5.12201 17.6184H9.14838C9.53502 17.6184 9.84838 17.9318 9.84838 18.3184C9.84838 18.705 9.53502 19.0184 9.14838 19.0184H5.12201C4.72197 19.0184 4.39658 19.3449 4.39658 19.7463V27.8999H27.6032V19.7463C27.6032 19.3449 27.2778 19.0184 26.8778 19.0184H22.8514C22.4648 19.0184 22.1514 18.705 22.1514 18.3184C22.1514 17.9318 22.4648 17.6184 22.8514 17.6184H26.8778C28.0497 17.6184 29.0032 18.573 29.0032 19.7463V28.5999C29.0032 28.9866 28.6899 29.2999 28.3032 29.2999Z" fill="#33363D"/>
<path d="M2.79639 28.5999V19.7463C2.79639 18.4629 3.83915 17.4184 5.12158 17.4182V17.6184L4.90479 17.6292C3.83447 17.7384 2.99658 18.6464 2.99658 19.7463V28.5999L3.01123 28.7415C3.06731 29.0145 3.28209 29.2294 3.55518 29.2854L3.69678 29.3H28.3032L28.4438 29.2854C28.7173 29.2296 28.9327 29.0148 28.9888 28.7415L29.0034 28.5999V19.7463C29.0034 18.6465 28.1654 17.7385 27.0952 17.6292L26.8774 17.6184V17.4182C28.1601 17.4182 29.2036 18.4628 29.2036 19.7463V28.5999C29.2036 29.097 28.8003 29.5002 28.3032 29.5002H3.69678C3.23065 29.5002 2.84722 29.1457 2.80127 28.6917L2.79639 28.5999ZM4.39697 19.7463C4.39697 19.3951 4.64578 19.1014 4.97607 19.0334L5.12158 19.0188H9.14795L9.28955 19.0042C9.56304 18.9482 9.77864 18.7328 9.83447 18.4592L9.84814 18.3186C9.84814 17.9804 9.60847 17.6984 9.28955 17.6331L9.14795 17.6184V17.4182C9.64505 17.4182 10.0483 17.8215 10.0483 18.3186C10.0482 18.8156 9.64498 19.218 9.14795 19.218H5.12158C4.83283 19.2183 4.59619 19.4549 4.59619 19.7463V27.6995H27.4028V19.7463C27.4028 19.4548 27.1664 19.218 26.8774 19.218H22.8511C22.3542 19.2178 21.9518 18.8155 21.9517 18.3186C21.9517 17.8216 22.3541 17.4184 22.8511 17.4182V17.6184L22.7104 17.6331C22.3914 17.6983 22.1519 17.9803 22.1519 18.3186L22.1655 18.4592C22.2214 18.7328 22.4369 18.9482 22.7104 19.0042L22.8511 19.0188H26.8774C27.2775 19.0188 27.603 19.3449 27.603 19.7463V27.8997H4.39697V19.7463ZM26.8774 17.4182V17.6184H22.8511V17.4182H26.8774ZM9.14795 17.4182V17.6184H5.12158V17.4182H9.14795Z" fill="#33363D"/>
<path d="M22.8506 29.2989H9.14922C8.76258 29.2989 8.44922 28.9856 8.44922 28.5989V13.4573C8.44922 13.223 8.56652 13.0043 8.76176 12.8744L14.4487 9.0941C15.391 8.46793 16.6089 8.46738 17.5511 9.0941L23.2381 12.8744C23.4333 13.0043 23.5506 13.223 23.5506 13.4573V28.5989C23.5506 28.9856 23.2373 29.2989 22.8506 29.2989ZM9.84922 27.8989H22.1506V13.8325L16.7762 10.26C16.3048 9.94668 15.6956 9.94668 15.2236 10.26L9.84922 13.8325V27.8989Z" fill="#33363D"/>
<path d="M23.5508 13.4571C23.5508 13.2521 23.4609 13.0589 23.3076 12.9269L23.2383 12.8741L17.5508 9.09385C16.6086 8.46733 15.3904 8.46775 14.4482 9.09385L8.76172 12.8741L8.69238 12.9269C8.53909 13.0589 8.44924 13.2521 8.44922 13.4571V28.5987L8.46387 28.7403C8.51995 29.0134 8.73473 29.2283 9.00781 29.2843L9.14941 29.2989H22.8506L22.9922 29.2843C23.2652 29.2282 23.4801 29.0134 23.5361 28.7403L23.5508 28.5987V13.4571ZM15.2236 10.2599C15.6956 9.94652 16.305 9.94651 16.7764 10.2599L22.1504 13.8321V27.8985H9.84961V13.8321L15.2236 10.2599ZM16.665 10.4269C16.3114 10.1918 15.8679 10.1617 15.4912 10.338L15.334 10.4269L10.0488 13.9396V27.6983H21.9502V13.9386L16.665 10.4269ZM23.751 28.5987C23.751 29.0958 23.3477 29.4991 22.8506 29.4991H9.14941C8.65232 29.4991 8.24902 29.0958 8.24902 28.5987V13.4571C8.24905 13.1558 8.40049 12.875 8.65137 12.7081L14.3379 8.92784L14.5303 8.80967C15.509 8.25924 16.7157 8.29834 17.6621 8.92784L23.3486 12.7081L23.4385 12.7755C23.6353 12.9452 23.751 13.1936 23.751 13.4571V28.5987Z" fill="#33363D"/>
<path d="M16 19.3059C14.212 19.3059 12.7576 17.8515 12.7576 16.0635C12.7576 14.2755 14.212 12.821 16 12.821C17.788 12.821 19.2424 14.2755 19.2424 16.0635C19.2424 17.8515 17.788 19.3059 16 19.3059ZM16 14.221C14.9842 14.221 14.1576 15.0476 14.1576 16.0635C14.1576 17.0793 14.9842 17.9059 16 17.9059C17.0158 17.9059 17.8424 17.0793 17.8424 16.0635C17.8424 15.0476 17.0158 14.221 16 14.221Z" fill="#33363D"/>
<path d="M19.2419 16.0632C19.2418 14.3312 17.8775 12.912 16.1667 12.825L15.9998 12.821C14.2119 12.8212 12.7577 14.2754 12.7576 16.0632L12.7615 16.2302C12.8457 17.886 14.1779 19.2175 15.8337 19.3015L15.9998 19.3054C17.7318 19.3054 19.151 17.941 19.238 16.2302L19.2419 16.0632ZM17.6423 16.0632C17.6422 15.158 16.905 14.4207 15.9998 14.4207C15.0946 14.4208 14.3573 15.1581 14.3572 16.0632C14.3572 16.9685 15.0945 17.7057 15.9998 17.7058V17.906L15.8123 17.8962C14.9462 17.8082 14.255 17.1177 14.1667 16.2517L14.158 16.0632C14.1581 15.0476 14.9841 14.2216 15.9998 14.2214L16.1882 14.2302C17.1159 14.3248 17.8424 15.111 17.8425 16.0632L17.8328 16.2517C17.7382 17.1795 16.952 17.906 15.9998 17.906V17.7058C16.9051 17.7058 17.6423 16.9686 17.6423 16.0632ZM19.4421 16.0632C19.4421 17.9617 17.8982 19.5056 15.9998 19.5056C14.1014 19.5055 12.5574 17.9616 12.5574 16.0632C12.5575 14.165 14.1015 12.621 15.9998 12.6208C17.8981 12.6208 19.442 14.1649 19.4421 16.0632Z" fill="#33363D"/>
<path d="M19.2011 29.2988H12.7989C12.4122 29.2988 12.0989 28.9854 12.0989 28.5988V22.6392C12.0989 21.6349 12.9159 20.8179 13.9202 20.8179H18.0798C19.0841 20.8179 19.9011 21.6349 19.9011 22.6392V28.5988C19.9011 28.9854 19.5878 29.2988 19.2011 29.2988ZM13.4989 27.8988H18.5011V22.6392C18.5011 22.4068 18.3122 22.2179 18.0798 22.2179H13.9202C13.6878 22.2179 13.4989 22.4068 13.4989 22.6392V27.8988Z" fill="#33363D"/>
<path d="M11.8987 28.5991V22.6392C11.8987 21.5244 12.8054 20.6177 13.9202 20.6177V20.8179L13.7346 20.8276C12.8172 20.9209 12.0989 21.6975 12.0989 22.6392V28.5991L12.1135 28.7397C12.1694 29.0131 12.3842 29.2286 12.6575 29.2847L12.7991 29.2983H19.2014L19.342 29.2847C19.6156 29.2288 19.8311 29.0133 19.887 28.7397L19.9016 28.5991V22.6392C19.9016 21.6977 19.1831 20.9211 18.2659 20.8276L18.0793 20.8179V20.6177C19.1941 20.6177 20.1008 21.5244 20.1008 22.6392V28.5991C20.1007 29.096 19.6983 29.4984 19.2014 29.4985H12.7991C12.3021 29.4985 11.8989 29.0961 11.8987 28.5991ZM18.301 22.6392C18.301 22.5172 18.2013 22.4175 18.0793 22.4175H13.9202C13.7983 22.4175 13.6985 22.5173 13.6985 22.6392V27.6987H18.301V22.6392ZM18.0793 20.6177V20.8179H13.9202V20.6177H18.0793ZM18.5012 27.8989H13.4993V22.6392C13.4993 22.4359 13.6434 22.2655 13.8352 22.2261L13.9202 22.2183H18.0793C18.3117 22.2183 18.5012 22.4068 18.5012 22.6392V27.8989Z" fill="#33363D"/>
<path d="M6.92799 15.6343C6.70158 15.6343 6.47928 15.5247 6.34447 15.3218C6.13037 15 6.21787 14.5655 6.53998 14.3514L8.76193 12.8743C9.08404 12.6602 9.51826 12.7477 9.73236 13.0698C9.94647 13.3916 9.85897 13.8261 9.53686 14.0402L7.3149 15.5173C7.19568 15.5966 7.06115 15.6343 6.92799 15.6343Z" fill="#33363D"/>
<path d="M8.73007 12.6604C9.13365 12.4474 9.64096 12.571 9.89901 12.9592L9.94589 13.0383C10.1446 13.4148 10.0502 13.8813 9.72128 14.1516L9.64706 14.2063L7.42538 15.6838C7.27237 15.7856 7.09931 15.8341 6.92831 15.8342C6.6741 15.8342 6.4226 15.7266 6.24765 15.5246L6.17733 15.4328C5.90201 15.0189 6.01523 14.46 6.42929 14.1848L8.65097 12.7073L8.73007 12.6604ZM9.73202 13.0696C9.51787 12.7476 9.08336 12.6602 8.76132 12.8742L6.53964 14.3518L6.43026 14.4416C6.2008 14.6726 6.15715 15.04 6.34433 15.3215C6.46229 15.4991 6.64726 15.6054 6.84335 15.6291L6.92831 15.634C7.02795 15.6339 7.12809 15.6125 7.22226 15.5686L7.31503 15.5168L9.53671 14.0403C9.81844 13.853 9.92047 13.4971 9.79843 13.1955L9.73202 13.0696Z" fill="#33363D"/>
<path d="M25.0722 15.6343C24.939 15.6343 24.8045 15.5966 24.6853 15.5173L22.4633 14.0402C22.1412 13.8261 22.0537 13.3916 22.2678 13.0698C22.4816 12.7477 22.9164 12.6602 23.2382 12.8743L25.4602 14.3514C25.7823 14.5655 25.8698 15 25.6557 15.3218C25.5209 15.5247 25.2986 15.6343 25.0722 15.6343Z" fill="#33363D"/>
<path d="M22.1554 12.8851C22.4448 12.5323 22.9608 12.4495 23.3488 12.7073L25.5704 14.1849L25.6447 14.2396C25.9739 14.51 26.0683 14.9772 25.8693 15.3538L25.8224 15.4329C25.649 15.6938 25.3627 15.8342 25.0724 15.8343C24.9439 15.8343 24.814 15.807 24.6925 15.7503L24.5744 15.6839L22.3527 14.2064C21.9388 13.9312 21.8257 13.3731 22.1007 12.9593L22.1554 12.8851ZM23.2384 12.8743C22.9166 12.6603 22.4816 12.7477 22.2677 13.0697L22.2013 13.1956C22.0793 13.4972 22.1814 13.8531 22.463 14.0404L24.6847 15.5169C24.774 15.5763 24.8723 15.6129 24.9718 15.6273L25.0724 15.6341C25.2702 15.634 25.4649 15.5505 25.6007 15.3939L25.6554 15.3216C25.8427 15.04 25.799 14.6727 25.5695 14.4417L25.4601 14.3519L23.2384 12.8743Z" fill="#33363D"/>
<path d="M16 10.0254C15.6134 10.0254 15.3 9.71208 15.3 9.32544V4.6729C15.3 4.28626 15.6134 3.9729 16 3.9729C16.3867 3.9729 16.7 4.28626 16.7 4.6729V9.32544C16.7 9.71208 16.3867 10.0254 16 10.0254Z" fill="#33363D"/>
<path d="M16.7004 4.6731C16.7004 4.33472 16.46 4.05275 16.1409 3.98755L16.0002 3.9729C15.6136 3.9729 15.3 4.28646 15.3 4.6731V9.32544L15.3147 9.46606C15.3705 9.73954 15.5853 9.95491 15.8586 10.011L16.0002 10.0256C16.3386 10.0255 16.6207 9.78522 16.6858 9.46606L16.7004 9.32544V4.6731ZM16.8997 9.32544C16.8997 9.82247 16.4973 10.2257 16.0002 10.2258C15.5341 10.2258 15.1507 9.8712 15.1047 9.41724L15.0999 9.32544V4.6731C15.0999 4.176 15.5031 3.77271 16.0002 3.77271C16.4973 3.77281 16.8997 4.17606 16.8997 4.6731V9.32544Z" fill="#33363D"/>
<path d="M16 8.5397C15.8792 8.5397 15.7583 8.50853 15.65 8.44591C15.4335 8.32095 15.3 8.0899 15.3 7.8397V4.02662C15.3 3.54728 15.5478 3.11798 15.9631 2.87818C16.3788 2.63919 16.8742 2.63919 17.2888 2.87845L19.5088 4.1606C19.954 4.41736 20.2197 4.87755 20.2197 5.39134C20.2197 5.90513 19.954 6.36533 19.5088 6.62209L16.35 8.44591C16.2418 8.50853 16.1209 8.5397 16 8.5397ZM16.7 4.15541V6.62728L18.8091 5.40966V5.37302L16.7 4.15541Z" fill="#33363D"/>
<path d="M15.0999 4.02724C15.0999 3.47646 15.3863 2.98051 15.8635 2.70497L16.0461 2.61513C16.4819 2.43485 16.9719 2.46429 17.3889 2.70497L19.6086 3.9872L19.7893 4.10732C20.1873 4.41198 20.4202 4.87933 20.4202 5.3915C20.4202 5.90346 20.187 6.37003 19.7893 6.6747L19.6086 6.79579L16.4504 8.61904C16.3111 8.69959 16.1554 8.7401 16.0002 8.74013C15.8838 8.74013 15.7672 8.71701 15.6575 8.67177L15.55 8.61904C15.2716 8.45832 15.0999 8.16133 15.0999 7.83974V4.02724ZM18.8088 5.37294V5.41005L16.7004 6.62783V4.15517L18.8088 5.37294ZM16.8997 6.28017L18.4397 5.3915L16.8997 4.50185V6.28017ZM15.3 7.83974L15.3059 7.93251C15.3344 8.14602 15.4603 8.3368 15.6497 8.44618C15.7308 8.49312 15.8194 8.52236 15.9094 8.53408L16.0002 8.53993C16.0909 8.53991 16.1815 8.52239 16.2668 8.4872L16.3499 8.44618L19.509 6.62197C19.8985 6.39722 20.1504 6.01679 20.2073 5.58095L20.22 5.3915C20.22 4.942 20.0162 4.53362 19.6672 4.2665L19.509 4.16103L17.2883 2.8788C16.8738 2.63968 16.3787 2.63986 15.9631 2.8788L15.8157 2.97646C15.4898 3.22583 15.3 3.60766 15.3 4.02724V7.83974Z" fill="#33363D"/>
</g>
<defs>
<clipPath id="clip0_997_132525">
<rect width="28" height="28" fill="white" transform="translate(2 2)"/>
</clipPath>
</defs>
</svg>
