<svg width="20" height="20" viewBox="0 0 20 20" fill="none" xmlns="http://www.w3.org/2000/svg">
<path fill-rule="evenodd" clip-rule="evenodd" d="M3.33211 9.08358C3.33211 5.90794 5.90648 3.33358 9.08211 3.33358C12.2577 3.33358 14.8321 5.90794 14.8321 9.08358C14.8321 10.5945 14.2494 11.9693 13.2964 12.9955C13.2334 13.0268 13.1743 13.0687 13.1218 13.1212C13.0692 13.1738 13.0272 13.233 12.9959 13.2961C11.9695 14.2501 10.594 14.8336 9.08211 14.8336C5.90648 14.8336 3.33211 12.2592 3.33211 9.08358ZM13.5984 14.5406C12.3724 15.5564 10.7986 16.1669 9.08211 16.1669C5.1701 16.1669 1.99878 12.9956 1.99878 9.08358C1.99878 5.17156 5.1701 2.00024 9.08211 2.00024C12.9941 2.00024 16.1654 5.17156 16.1654 9.08358C16.1654 10.799 15.5557 12.372 14.541 13.5976L17.3053 16.3619C17.5656 16.6222 17.5656 17.0443 17.3053 17.3047C17.0449 17.565 16.6228 17.565 16.3624 17.3047L13.5984 14.5406Z" fill="#33363D"/>
</svg>
