<svg width="20" height="20" viewBox="0 0 20 20" fill="none" xmlns="http://www.w3.org/2000/svg">
<path fill-rule="evenodd" clip-rule="evenodd" d="M11.9987 5.25C11.9987 3.73122 13.2299 2.5 14.7487 2.5C16.2675 2.5 17.4987 3.73122 17.4987 5.25C17.4987 6.76878 16.2675 8 14.7487 8C13.8745 8 13.0955 7.59206 12.5918 6.95615L7.93985 9.42543C7.97926 9.61079 8 9.80305 8 10.0002C8 10.2623 7.96331 10.516 7.89479 10.7561L12.4827 13.1914C12.9786 12.4717 13.8086 11.9999 14.7487 11.9999C16.2675 11.9999 17.4987 13.2311 17.4987 14.7499C17.4987 16.2687 16.2675 17.4999 14.7487 17.4999C13.2299 17.4999 11.9987 16.2687 11.9987 14.7499C11.9987 14.6494 12.0041 14.5502 12.0146 14.4525L7.22732 11.9114C6.7273 12.4286 6.02621 12.7502 5.25 12.7502C3.73122 12.7502 2.5 11.5189 2.5 10.0002C2.5 8.48138 3.73122 7.25016 5.25 7.25016C6.09341 7.25016 6.84815 7.62985 7.3526 8.22762L12.042 5.73849C12.0135 5.57996 11.9987 5.41671 11.9987 5.25ZM14.7487 3.83333C13.9663 3.83333 13.332 4.4676 13.332 5.25C13.332 6.0324 13.9663 6.66667 14.7487 6.66667C15.5311 6.66667 16.1654 6.0324 16.1654 5.25C16.1654 4.4676 15.5311 3.83333 14.7487 3.83333ZM3.83333 10.0002C3.83333 9.21776 4.4676 8.5835 5.25 8.5835C6.0324 8.5835 6.66667 9.21776 6.66667 10.0002C6.66667 10.7826 6.0324 11.4168 5.25 11.4168C4.4676 11.4168 3.83333 10.7826 3.83333 10.0002ZM13.332 14.7499C13.332 13.9675 13.9663 13.3333 14.7487 13.3333C15.5311 13.3333 16.1654 13.9675 16.1654 14.7499C16.1654 15.5323 15.5311 16.1666 14.7487 16.1666C13.9663 16.1666 13.332 15.5323 13.332 14.7499Z" fill="#33363D"/>
</svg>
