<svg width="16" height="16" viewBox="0 0 16 16" fill="none" xmlns="http://www.w3.org/2000/svg">
<path d="M7.99978 11.9882L4.89745 13.8838C4.7604 13.9723 4.61712 14.0102 4.46761 13.9976C4.3181 13.9849 4.18727 13.9344 4.07514 13.8459C3.96301 13.7574 3.8758 13.647 3.8135 13.5146C3.7512 13.3821 3.73874 13.2335 3.77612 13.0687L4.59843 9.48595L1.85118 7.07849C1.72659 6.96475 1.64884 6.83509 1.61795 6.6895C1.58705 6.54392 1.59627 6.40187 1.64561 6.26336C1.69494 6.12486 1.7697 6.01112 1.86987 5.92215C1.97004 5.83318 2.10709 5.77631 2.28102 5.75154L5.90664 5.42928L7.3083 2.05505C7.37059 1.9034 7.46728 1.78966 7.59835 1.71384C7.72942 1.63801 7.86323 1.6001 7.99978 1.6001C8.13633 1.6001 8.27014 1.63801 8.40121 1.71384C8.53228 1.78966 8.62897 1.9034 8.69126 2.05505L10.0929 5.42928L13.7185 5.75154C13.893 5.77682 14.03 5.83369 14.1297 5.92215C14.2294 6.01061 14.3041 6.12435 14.354 6.26336C14.4038 6.40238 14.4133 6.54468 14.3824 6.69026C14.3515 6.83585 14.2735 6.96526 14.1484 7.07849L11.4011 9.48595L12.2234 13.0687C12.2608 13.233 12.2484 13.3816 12.1861 13.5146C12.1238 13.6475 12.0365 13.758 11.9244 13.8459C11.8123 13.9339 11.6815 13.9844 11.532 13.9976C11.3824 14.0107 11.2392 13.9728 11.1021 13.8838L7.99978 11.9882Z" fill="#256EF4"/>
</svg>
