<svg width="16" height="16" viewBox="0 0 16 16" fill="none" xmlns="http://www.w3.org/2000/svg">
<path d="M8.0127 5.36133C9.12924 5.36136 9.77136 5.55627 9.9668 5.68164C9.9668 5.807 9.95363 6.03153 9.92578 6.33789C9.85612 7.21699 10.4842 7.98647 11.3633 8.08398L12.9541 8.26465L13.1084 8.54395C13.5959 9.42439 13.8486 10.4288 13.8486 11.4346V12.4121C13.8486 12.915 13.4287 13.333 12.9258 13.333H3.08496C2.58203 13.333 2.16211 12.915 2.16211 12.4121V11.4346C2.16211 10.4289 2.42855 9.43824 2.91602 8.54395L3.07129 8.26465L4.66211 8.08398C5.5411 7.98637 6.16926 7.21692 6.09961 6.33789C6.08568 6.0315 6.07154 5.807 6.05762 5.68164C6.25266 5.55627 6.89537 5.36133 8.0127 5.36133ZM8.0127 8.13965C6.88144 8.13965 5.97461 9.0604 5.97461 10.1777C5.97463 11.309 6.89539 12.2158 8.0127 12.2158C9.12991 12.2157 10.0508 11.3089 10.0508 10.1777C10.0508 9.04654 9.12992 8.13977 8.0127 8.13965ZM8.01367 2.66797C11.6714 2.66797 14.6451 4.02195 14.6172 5.69727C14.6172 5.99042 14.5193 6.54846 14.3379 6.99512C14.1983 7.33006 13.8638 7.53974 13.501 7.49805L11.4346 7.26074C11.0157 7.21886 10.7084 6.84197 10.7363 6.40918C10.7781 5.97718 10.7919 5.67036 10.792 5.58594C10.792 4.87393 9.53569 4.53809 8 4.53809C6.4643 4.53809 5.20801 4.87393 5.20801 5.58594C5.20811 5.67031 5.2358 5.96324 5.26367 6.40918C5.30555 6.828 4.99822 7.2049 4.56543 7.26074L2.49902 7.49805C2.13616 7.53977 1.80168 7.33008 1.66211 6.99512C1.48069 6.54846 1.38283 6.00437 1.38281 5.69727C1.38281 4.02199 4.35603 2.66803 8.01367 2.66797Z" fill="#33363D"/>
</svg>
