<svg width="24" height="24" viewBox="0 0 24 24" fill="none" xmlns="http://www.w3.org/2000/svg">
<path d="M12.8954 8.84476L13.6399 9.06371C13.698 9.07969 13.7579 9.0881 13.8181 9.08874C13.9687 9.08874 14.1143 9.03442 14.228 8.93575C14.3418 8.83709 14.4162 8.7007 14.4374 8.55162C14.4587 8.40255 14.4256 8.25079 14.344 8.12422C14.2624 7.99765 14.1379 7.90475 13.9933 7.86258L13.2364 7.64363C13.0771 7.59676 12.9057 7.61508 12.7599 7.69456C12.6142 7.77405 12.5059 7.90818 12.4591 8.06746C12.4122 8.22674 12.4305 8.39812 12.51 8.54389C12.5895 8.68966 12.7236 8.79789 12.8829 8.84476H12.8954Z" fill="#33363D"/>
<path d="M15.7012 9.66751L16.4457 9.88647C16.5034 9.90396 16.5636 9.9124 16.624 9.91149C16.7745 9.91149 16.9201 9.85717 17.0338 9.75851C17.1476 9.65984 17.222 9.52345 17.2433 9.37437C17.2645 9.2253 17.2314 9.07354 17.1498 8.94697C17.0682 8.8204 16.9437 8.7275 16.7991 8.68534L16.0515 8.46638C15.9727 8.44317 15.89 8.43573 15.8083 8.44447C15.7265 8.4532 15.6473 8.47796 15.5751 8.51732C15.5029 8.55667 15.4392 8.60986 15.3876 8.67384C15.336 8.73783 15.2975 8.81135 15.2742 8.89022C15.251 8.96908 15.2436 9.05175 15.2523 9.1335C15.2611 9.21524 15.2858 9.29447 15.3252 9.36664C15.3645 9.43882 15.4177 9.50254 15.4817 9.55417C15.5457 9.60579 15.6192 9.6443 15.6981 9.66751H15.7012Z" fill="#33363D"/>
<path d="M3.7588 9.65814C3.8829 9.76656 4.04476 9.82164 4.20922 9.81141C4.27029 9.80761 4.33151 9.81595 4.38933 9.83595C4.44716 9.85595 4.50044 9.88722 4.54611 9.92794C4.59177 9.96866 4.62892 10.018 4.65538 10.0732C4.68185 10.1284 4.69712 10.1882 4.70031 10.2493C4.7034 10.3114 4.69422 10.3734 4.67329 10.432C4.65235 10.4905 4.62008 10.5443 4.57832 10.5903C4.49766 10.6792 4.3854 10.7331 4.26553 10.7404C4.18307 10.744 4.10214 10.7639 4.02741 10.7989C3.95267 10.834 3.8856 10.8834 3.83007 10.9445C3.77453 11.0055 3.73163 11.077 3.70383 11.1547C3.67603 11.2324 3.66388 11.3149 3.66809 11.3973L4.10287 20.0867C4.12697 20.6043 4.34927 21.0927 4.72371 21.4509C5.09814 21.809 5.59601 22.0093 6.11414 22.0104H6.21424L12.883 21.6726C13.163 21.6583 13.4369 21.5859 13.6874 21.4599C13.9378 21.3338 14.1592 21.157 14.3375 20.9406L14.7254 21.0532C14.909 21.1088 15.0997 21.1372 15.2915 21.1377C15.7271 21.1365 16.1507 20.9945 16.499 20.7329C16.8474 20.4714 17.1019 20.1043 17.2246 19.6863L19.6769 11.3504C19.7234 11.1911 19.7046 11.0199 19.6249 10.8744C19.5451 10.7289 19.4108 10.6211 19.2515 10.5746C19.1332 10.5385 19.0339 10.4571 18.9754 10.3481C18.9168 10.2391 18.9036 10.1115 18.9387 9.99283C18.9742 9.87476 19.055 9.77555 19.1634 9.71693C19.2719 9.6583 19.3992 9.64504 19.5174 9.68004C19.5965 9.7037 19.6795 9.71146 19.7617 9.70287C19.8438 9.69428 19.9234 9.66951 19.9959 9.62999C20.1448 9.55152 20.2571 9.41793 20.3087 9.25777L21.1251 6.47703C21.2 6.22317 21.2241 5.95706 21.1961 5.69388C21.168 5.43071 21.0884 5.17564 20.9618 4.94325C20.8351 4.71086 20.6639 4.50571 20.4579 4.33951C20.252 4.17332 20.0153 4.04934 19.7614 3.97467L17.9597 3.44292C17.8798 3.41753 17.7956 3.40845 17.7122 3.4162C17.6288 3.42396 17.5477 3.4484 17.4739 3.48808C17.4001 3.52776 17.335 3.58187 17.2825 3.64718C17.23 3.7125 17.1912 3.7877 17.1683 3.86832C17.106 4.08059 16.962 4.25946 16.7679 4.36567C16.5762 4.46924 16.3514 4.49285 16.1423 4.43135C15.9301 4.36896 15.7512 4.2249 15.6451 4.03078C15.5389 3.83667 15.5142 3.60837 15.5762 3.396C15.5995 3.31632 15.6067 3.23279 15.5974 3.15029C15.5881 3.06779 15.5624 2.98797 15.522 2.91547C15.4815 2.84298 15.427 2.77927 15.3617 2.72805C15.2963 2.67683 15.2214 2.63913 15.1414 2.61715L13.3397 2.08227C13.0858 2.0074 12.8197 1.9833 12.5565 2.01133C12.2934 2.03936 12.0383 2.11898 11.8059 2.24563C11.5735 2.37228 11.3684 2.54349 11.2022 2.74946C11.036 2.95544 10.912 3.19214 10.8373 3.44605L10.6903 3.94652L10.1085 3.97467C9.94297 3.98357 9.78771 4.05782 9.67687 4.18112C9.62112 4.24221 9.57804 4.31375 9.55012 4.3916C9.5222 4.46946 9.51 4.55207 9.51421 4.63467C9.51674 4.8508 9.43538 5.05949 9.28723 5.21688C9.13909 5.37426 8.93569 5.46808 8.7198 5.47861C8.50391 5.48914 8.29235 5.41556 8.12959 5.27335C7.96683 5.13113 7.86554 4.93134 7.84702 4.71599C7.84301 4.63381 7.82283 4.55322 7.78763 4.47884C7.75243 4.40447 7.70291 4.33776 7.64189 4.28256C7.58087 4.22735 7.50956 4.18473 7.43205 4.15712C7.35453 4.12952 7.27233 4.11747 7.19015 4.12169L5.31339 4.21865C4.78032 4.24618 4.27989 4.48383 3.92168 4.87956C3.56347 5.27529 3.37668 5.79685 3.40221 6.33001L3.53984 9.22649C3.54584 9.30937 3.56829 9.39023 3.60589 9.46435C3.64348 9.53846 3.69546 9.60434 3.7588 9.65814ZM12.9862 3.2834L14.2812 3.66188C14.2894 4.10588 14.439 4.5357 14.7083 4.88879C14.9777 5.24188 15.3526 5.49982 15.7787 5.62508C16.2047 5.75035 16.6596 5.73641 17.0772 5.58528C17.4948 5.43415 17.8532 5.15373 18.1004 4.78481L19.3923 5.16329C19.5857 5.22079 19.7487 5.3523 19.8458 5.52926C19.8943 5.61723 19.9248 5.71398 19.9356 5.81387C19.9463 5.91376 19.9371 6.01478 19.9084 6.11106L19.2359 8.40384C18.9989 8.42339 18.7686 8.49266 18.5602 8.60715C18.362 8.71492 18.1871 8.86074 18.0454 9.03627C17.9037 9.21179 17.798 9.41355 17.7344 9.62999C17.6709 9.84598 17.6507 10.0724 17.6748 10.2962C17.699 10.52 17.7671 10.7369 17.8752 10.9343C17.9888 11.1432 18.1443 11.3263 18.3319 11.4724L16.0266 19.3235C15.9692 19.5156 15.8388 19.6775 15.6634 19.7746C15.4879 19.8717 15.2815 19.8961 15.0882 19.8427L8.68218 17.966C8.49066 17.9079 8.32945 17.7772 8.23301 17.6019C8.13656 17.4265 8.11254 17.2204 8.16607 17.0276L10.4745 9.17957C10.7114 9.15744 10.9413 9.08719 11.1501 8.97312C11.4025 8.83555 11.6164 8.63682 11.772 8.39515C11.9277 8.15348 12.0202 7.8766 12.041 7.58989C12.0619 7.30319 12.0104 7.01584 11.8914 6.75418C11.7724 6.49253 11.5895 6.26494 11.3597 6.09229L12.0353 3.79951C12.0633 3.70282 12.1102 3.61265 12.1733 3.53423C12.2364 3.45581 12.3144 3.39071 12.4029 3.34269C12.4914 3.29468 12.5885 3.26471 12.6886 3.25453C12.7888 3.24436 12.8899 3.25417 12.9862 3.2834ZM5.37907 5.47296L6.72409 5.40414C6.84575 5.71882 7.04095 5.99982 7.29338 6.22366C7.66633 6.56014 8.14815 6.75076 8.65036 6.76053C9.15257 6.7703 9.64144 6.59855 10.0272 6.27684C9.9966 6.42729 10.0224 6.58375 10.0997 6.71641C10.177 6.84907 10.3004 6.94868 10.4463 6.99626C10.5351 7.02187 10.6143 7.0733 10.6738 7.144C10.7333 7.2147 10.7704 7.30149 10.7805 7.39335C10.7905 7.4852 10.7731 7.57797 10.7303 7.65987C10.6875 7.74177 10.6213 7.80911 10.5402 7.85332C10.4313 7.91327 10.3032 7.92788 10.1836 7.89398C10.0247 7.84741 9.85388 7.8657 9.70848 7.94485C9.56308 8.024 9.45498 8.15755 9.40786 8.31626L6.95556 16.6616C6.80609 17.1743 6.86564 17.7253 7.12118 18.1941C7.37673 18.663 7.8075 19.0117 8.31934 19.164L12.6109 20.4151L6.15168 20.7592C6.05092 20.7638 5.95025 20.7484 5.85548 20.7139C5.76071 20.6794 5.67373 20.6264 5.59956 20.558C5.52539 20.4897 5.4655 20.4073 5.42336 20.3157C5.38122 20.224 5.35767 20.1249 5.35405 20.0241L4.93803 11.854C5.15394 11.7552 5.3476 11.6136 5.50732 11.4379C5.69974 11.2275 5.83663 10.9725 5.90561 10.6958C5.97458 10.4192 5.97345 10.1297 5.90233 9.85356C5.83121 9.57746 5.69233 9.32345 5.49829 9.11455C5.30424 8.90565 5.06114 8.74846 4.79102 8.6572L4.66903 6.26745C4.65875 6.06785 4.72749 5.87223 4.86038 5.72294C4.99328 5.57366 5.17962 5.48272 5.37907 5.46983V5.47296Z" fill="#33363D"/>
<path d="M7.09943 10.7497H7.13071L7.91895 10.7091C8.08487 10.7004 8.24053 10.6261 8.35169 10.5026C8.46285 10.3791 8.52041 10.2166 8.5117 10.0506C8.50299 9.88472 8.42872 9.72906 8.30524 9.6179C8.18176 9.50674 8.01918 9.44918 7.85327 9.45789L7.06815 9.49856C6.90224 9.5027 6.74476 9.57259 6.63038 9.69285C6.51599 9.8131 6.45406 9.97387 6.4582 10.1398C6.46235 10.3057 6.53224 10.4632 6.65249 10.5776C6.77275 10.6919 6.93352 10.7539 7.09943 10.7497Z" fill="#33363D"/>
</svg>
