<svg width="24" height="24" viewBox="0 0 24 24" fill="none" xmlns="http://www.w3.org/2000/svg">
<path d="M20.3965 5.17383C20.5932 5.17395 20.7846 5.24672 20.9268 5.37891C21.0689 5.51147 21.1504 5.69348 21.1504 5.88574C21.1504 6.07837 21.0694 6.2619 20.9268 6.39453C20.7846 6.52663 20.5931 6.59754 20.3965 6.59766H19.0234V17.5605C19.0234 19.538 17.4294 21.149 15.4668 21.1494H8.53516C6.57248 21.1491 4.97852 19.538 4.97852 17.5605V6.59766H3.60645C3.4099 6.59766 3.21838 6.52644 3.07617 6.39453C2.93353 6.26189 2.85156 6.07838 2.85156 5.88574C2.85157 5.69337 2.93387 5.51149 3.07617 5.37891C3.21842 5.24677 3.40972 5.17383 3.60645 5.17383H20.3965ZM15.8018 20.9824C15.6913 20.9934 15.5791 21 15.4658 21H15.4668C15.5798 21 15.6915 20.9934 15.8018 20.9824ZM7.68457 20.8916C7.79354 20.92 7.90471 20.9425 8.01758 20.96C7.90471 20.9425 7.79354 20.92 7.68457 20.8916ZM15.8711 20.9746C15.9058 20.9704 15.9403 20.9661 15.9746 20.9609C15.9403 20.9661 15.9058 20.9704 15.8711 20.9746ZM16.0078 20.9551C16.0497 20.9483 16.0914 20.9409 16.1328 20.9326C16.0914 20.9409 16.0497 20.9483 16.0078 20.9551ZM16.3887 20.8701C16.4063 20.8651 16.4239 20.8598 16.4414 20.8545C16.4239 20.8598 16.4063 20.8651 16.3887 20.8701ZM7.21094 20.7295C7.1087 20.6858 7.00898 20.6372 6.91211 20.584C7.00898 20.6372 7.10871 20.6858 7.21094 20.7295ZM16.6973 20.7656C16.7083 20.7613 16.7195 20.7574 16.7305 20.7529C16.7195 20.7574 16.7083 20.7613 16.6973 20.7656ZM16.9736 20.6426C16.9927 20.6331 17.0114 20.6231 17.0303 20.6133C17.0114 20.6231 16.9927 20.6331 16.9736 20.6426ZM17.2441 20.4922C17.2622 20.481 17.28 20.4695 17.2979 20.458C17.28 20.4695 17.2622 20.481 17.2441 20.4922ZM17.5146 20.3076C17.5222 20.3019 17.5287 20.2948 17.5361 20.2891C17.5287 20.2948 17.5222 20.3019 17.5146 20.3076ZM6.12695 19.9912C6.18339 20.0482 6.24249 20.1024 6.30273 20.1553C6.20149 20.0664 6.10489 19.9723 6.01465 19.8721L6.12695 19.9912ZM17.7783 20.082C17.763 20.0964 17.748 20.111 17.7324 20.125C17.748 20.111 17.763 20.0963 17.7783 20.082ZM5.73633 19.5176C5.79052 19.5963 5.84688 19.6733 5.90723 19.7471L5.80664 19.6172C5.78244 19.5846 5.75939 19.5511 5.73633 19.5176ZM6.48926 17.5605C6.48926 18.7606 7.41386 19.7252 8.53516 19.7256H15.4668C16.5882 19.7253 17.5137 18.7607 17.5137 17.5605V6.59766H6.48926V17.5605ZM18.1455 19.6816C18.1612 19.6615 18.1771 19.6416 18.1924 19.6211C18.1771 19.6416 18.1612 19.6615 18.1455 19.6816ZM18.3311 19.4189C18.3443 19.3982 18.3573 19.3774 18.3701 19.3564C18.3573 19.3774 18.3443 19.3982 18.3311 19.4189ZM18.4863 19.1484C18.496 19.1298 18.5063 19.1116 18.5156 19.0928C18.5063 19.1116 18.496 19.1298 18.4863 19.1484ZM18.6172 18.8662C18.6271 18.8419 18.6371 18.8176 18.6465 18.793C18.6371 18.8176 18.6271 18.8419 18.6172 18.8662ZM5.12793 17.5605C5.12793 17.987 5.20638 18.3952 5.34766 18.7725C5.20661 18.3956 5.12894 17.9876 5.12891 17.5615V6.44824H5.12793V17.5605ZM18.7256 18.5596C18.7307 18.5427 18.7354 18.5258 18.7402 18.5088C18.7354 18.5258 18.7307 18.5427 18.7256 18.5596ZM12.001 7.75684C12.0987 7.75684 12.1963 7.77558 12.2871 7.81055C12.3775 7.84549 12.4609 7.89656 12.5312 7.96191C12.6016 8.02739 12.6585 8.10641 12.6973 8.19336C12.736 8.28043 12.7559 8.3748 12.7559 8.46973V17.7393C12.7559 17.9318 12.6738 18.1154 12.5312 18.248C12.389 18.3802 12.1977 18.4531 12.001 18.4531C11.8042 18.4531 11.613 18.3802 11.4707 18.248C11.3282 18.1154 11.2471 17.9318 11.2471 17.7393V8.46973C11.2471 8.37466 11.2669 8.28053 11.3057 8.19336C11.3445 8.10641 11.4004 8.02739 11.4707 7.96191C11.5411 7.89645 11.6252 7.8455 11.7158 7.81055C11.8065 7.77569 11.9034 7.75684 12.001 7.75684ZM12.04 18.2988C12.0601 18.2976 12.0799 18.296 12.0996 18.293C12.0799 18.296 12.0601 18.2976 12.04 18.2988ZM12.1514 18.2822C12.1686 18.2781 12.1854 18.2731 12.2021 18.2676C12.1854 18.2731 12.1686 18.2781 12.1514 18.2822ZM18.8574 17.8779C18.846 18.0033 18.8291 18.1269 18.8047 18.248C18.8269 18.1378 18.845 18.0259 18.8564 17.9121L18.8574 17.8779ZM12.4287 18.1377C12.4547 18.1136 12.4765 18.0863 12.4971 18.0586C12.4765 18.0863 12.4547 18.1136 12.4287 18.1377ZM12.5117 18.0371C12.5263 18.0155 12.5385 17.9929 12.5498 17.9697C12.5385 17.993 12.5263 18.0154 12.5117 18.0371ZM12.583 8.3252L12.5947 8.35938C12.6025 8.39554 12.6055 8.43267 12.6055 8.46973V17.7402C12.6054 17.8113 12.59 17.8804 12.5625 17.9453C12.5756 17.9145 12.5877 17.8832 12.5947 17.8506L12.6064 17.7393V8.46973C12.6064 8.43299 12.6024 8.39622 12.5947 8.36035C12.5922 8.34829 12.5864 8.33708 12.583 8.3252ZM18.873 6.44824V17.5615C18.873 17.5726 18.8722 17.5837 18.8721 17.5947L18.874 17.5605V6.44824H18.873ZM8.81055 8.87598C9.00717 8.87607 9.19768 8.94896 9.33984 9.08105C9.48208 9.21356 9.56532 9.39563 9.56543 9.58789V16.6221C9.56529 16.8144 9.48221 16.9974 9.33984 17.1299C9.19773 17.2617 9.00694 17.3339 8.81055 17.334C8.61384 17.334 8.42252 17.262 8.28027 17.1299C8.13775 16.9974 8.05483 16.8145 8.05469 16.6221V9.58789C8.0548 9.3956 8.13799 9.21357 8.28027 9.08105C8.42255 8.94876 8.6137 8.87598 8.81055 8.87598ZM15.1914 8.87598C15.3883 8.87598 15.5794 8.94876 15.7217 9.08105C15.864 9.21357 15.9472 9.3956 15.9473 9.58789V16.6221C15.9471 16.8145 15.8642 16.9974 15.7217 17.1299C15.5794 17.262 15.3881 17.334 15.1914 17.334C14.9951 17.3339 14.8052 17.2615 14.6631 17.1299C14.5206 16.9974 14.4376 16.8145 14.4375 16.6221V9.58789C14.4376 9.3954 14.5205 9.2136 14.6631 9.08105C14.8053 8.94897 14.9948 8.87607 15.1914 8.87598ZM8.58984 17.1445C8.62299 17.1567 8.65731 17.1673 8.69238 17.1738L8.81055 17.1846C8.7343 17.1846 8.65949 17.1699 8.58984 17.1445ZM8.81055 17.1846C8.84687 17.1846 8.88267 17.1797 8.91797 17.1738C8.88269 17.1798 8.8469 17.1846 8.81055 17.1846ZM15.1914 17.1846C15.2274 17.1846 15.2628 17.1796 15.2979 17.1738C15.263 17.1796 15.2273 17.1846 15.1914 17.1846ZM8.94238 17.1689C8.9714 17.163 8.99969 17.1553 9.02734 17.1455C8.99973 17.1554 8.97136 17.1629 8.94238 17.1689ZM15.3262 17.168C15.3541 17.1621 15.3815 17.155 15.4082 17.1455C15.3815 17.155 15.3541 17.162 15.3262 17.168ZM14.6885 16.9346C14.7103 16.9651 14.7354 16.9942 14.7637 17.0205C14.8203 17.0731 14.8873 17.1138 14.96 17.1416L14.8564 17.0898C14.8235 17.0694 14.7921 17.046 14.7637 17.0195C14.7355 16.9933 14.7103 16.9649 14.6885 16.9346ZM9.23828 17.0195C9.1835 17.0705 9.11865 17.1098 9.04883 17.1377C9.08252 17.1243 9.11587 17.1098 9.14648 17.0908L9.23828 17.0205C9.26638 16.9944 9.29072 16.9649 9.3125 16.9346C9.29077 16.9647 9.26628 16.9935 9.23828 17.0195ZM15.6855 16.9443C15.6656 16.9707 15.6439 16.9965 15.6191 17.0195C15.5642 17.0705 15.4996 17.1098 15.4297 17.1377C15.4634 17.1243 15.4967 17.1097 15.5273 17.0908L15.6191 17.0205C15.6441 16.9973 15.6655 16.9709 15.6855 16.9443ZM8.48926 17.0967C8.51254 17.1103 8.53656 17.1223 8.56152 17.1328C8.53655 17.1223 8.51254 17.1103 8.48926 17.0967ZM8.31348 16.9414C8.33407 16.9692 8.35683 16.9963 8.38281 17.0205C8.40861 17.0444 8.43723 17.065 8.4668 17.084C8.43704 17.0649 8.40875 17.0436 8.38281 17.0195C8.35698 16.9955 8.33399 16.969 8.31348 16.9414ZM9.31641 16.9268C9.33419 16.9012 9.34923 16.8745 9.3623 16.8467C9.34921 16.8745 9.33422 16.9012 9.31641 16.9268ZM8.26172 16.8555C8.27222 16.8769 8.28355 16.8979 8.29688 16.918C8.28349 16.8979 8.27227 16.8769 8.26172 16.8555ZM9.41504 9.58789V16.6221C9.41499 16.6935 9.39885 16.7629 9.37109 16.8281C9.38448 16.7966 9.39717 16.7648 9.4043 16.7314C9.41193 16.6957 9.41599 16.659 9.41602 16.6221V9.58789C9.41599 9.55263 9.41036 9.51754 9.40332 9.4834C9.4103 9.51766 9.41504 9.55253 9.41504 9.58789ZM8.22852 16.7686C8.23368 16.7862 8.23814 16.8042 8.24512 16.8213C8.23812 16.8042 8.23369 16.7863 8.22852 16.7686ZM14.5977 9.4834C14.5906 9.51748 14.5869 9.5527 14.5869 9.58789C14.5869 9.55259 14.5907 9.5176 14.5977 9.4834ZM15.7969 9.58789C15.7969 9.55438 15.7923 9.52084 15.7861 9.48828C15.7925 9.52096 15.7969 9.55422 15.7969 9.58789ZM8.21484 9.48828C8.21032 9.51205 8.20828 9.53622 8.20703 9.56055C8.2083 9.53621 8.21025 9.51205 8.21484 9.48828ZM9.39844 9.46387C9.39252 9.43989 9.38518 9.41654 9.37598 9.39355C9.38511 9.41655 9.39259 9.43988 9.39844 9.46387ZM14.625 9.39355C14.6158 9.4165 14.6084 9.43993 14.6025 9.46387C14.6084 9.43992 14.6159 9.41652 14.625 9.39355ZM8.24512 9.38965C8.23613 9.412 8.22854 9.4347 8.22266 9.45801C8.22861 9.43473 8.23606 9.41197 8.24512 9.38965ZM15.7783 9.45801C15.7724 9.43466 15.7649 9.41203 15.7559 9.38965C15.7649 9.41201 15.7723 9.43469 15.7783 9.45801ZM8.30664 9.27539C8.28662 9.3033 8.26911 9.33263 8.25488 9.36328C8.26919 9.33268 8.28664 9.30327 8.30664 9.27539ZM14.6738 9.29883C14.6613 9.31818 14.6496 9.33785 14.6396 9.3584C14.6495 9.33783 14.6613 9.3182 14.6738 9.29883ZM9.23828 9.19043C9.21099 9.16505 9.18097 9.1429 9.14941 9.12305C9.18078 9.14284 9.21109 9.16515 9.23828 9.19043ZM9.13574 9.11523C9.1107 9.10036 9.08464 9.08744 9.05762 9.07617C9.08464 9.08747 9.1107 9.10032 9.13574 9.11523ZM9.03027 9.06445C9.00456 9.05512 8.97806 9.048 8.95117 9.04199C8.97809 9.048 9.00456 9.05511 9.03027 9.06445ZM11.4414 8.25488L11.4424 8.25391L11.4414 8.25488ZM12.4287 8.07227V8.07129V8.07227ZM11.5732 8.07129L11.5488 8.09863C11.5571 8.08997 11.5644 8.08047 11.5732 8.07227C11.5835 8.0627 11.5955 8.05472 11.6064 8.0459C11.5954 8.05449 11.5835 8.0618 11.5732 8.07129ZM12.1191 7.91797C12.1579 7.92514 12.1958 7.93608 12.2324 7.9502C12.1961 7.93622 12.1585 7.92513 12.1201 7.91797L12.001 7.90723L12.1191 7.91797ZM3.38086 6.40625C3.41546 6.41921 3.4506 6.43166 3.4873 6.43848L3.5957 6.44727C3.5212 6.4461 3.4488 6.43164 3.38086 6.40625ZM20.5332 6.43164C20.5592 6.42605 20.5845 6.41885 20.6094 6.41016C20.5845 6.41891 20.5592 6.426 20.5332 6.43164ZM3.27246 6.35449C3.30161 6.37244 3.33237 6.38742 3.36426 6.40039C3.33238 6.38745 3.3016 6.37241 3.27246 6.35449ZM20.9551 6.10156C20.925 6.16886 20.8806 6.23063 20.8242 6.2832C20.77 6.3336 20.7057 6.37252 20.6367 6.40039C20.6695 6.38723 20.7016 6.37295 20.7314 6.35449L20.8242 6.28418C20.8808 6.23152 20.925 6.16919 20.9551 6.10156ZM3.17871 6.28418C3.20605 6.30953 3.23601 6.33171 3.26758 6.35156C3.23579 6.3316 3.20525 6.30878 3.17773 6.2832L3.17871 6.28418ZM3.01074 5.78809C3.0047 5.82017 3.00098 5.85276 3.00098 5.88574C3.00098 5.85274 3.00465 5.82015 3.01074 5.78809ZM20.8242 5.4873V5.48828C20.8806 5.54084 20.925 5.60263 20.9551 5.66992C20.925 5.60229 20.8808 5.53996 20.8242 5.4873ZM3.04004 5.68848C3.03276 5.70662 3.0277 5.72536 3.02246 5.74414C3.02773 5.72538 3.03273 5.7066 3.04004 5.68848ZM3.09473 5.58594C3.0782 5.61031 3.06401 5.63574 3.05176 5.66211C3.06405 5.63579 3.07821 5.61029 3.09473 5.58594ZM16.1875 2.85059C16.3842 2.85059 16.5755 2.92252 16.7178 3.05469C16.8603 3.18731 16.9424 3.36998 16.9424 3.5625C16.9424 3.75513 16.8604 3.93865 16.7178 4.07129C16.5755 4.20332 16.3841 4.27441 16.1875 4.27441H7.81445C7.61782 4.27441 7.42641 4.20332 7.28418 4.07129C7.14154 3.93865 7.06055 3.75513 7.06055 3.5625C7.06055 3.36998 7.14169 3.18731 7.28418 3.05469C7.42643 2.92252 7.61771 2.85059 7.81445 2.85059H16.1875ZM16.1875 4.125C16.2232 4.125 16.2583 4.12103 16.293 4.11523C16.2584 4.12094 16.2231 4.125 16.1875 4.125ZM7.58594 4.08301C7.62146 4.09652 7.65852 4.10822 7.69629 4.11523L7.81445 4.125C7.73533 4.125 7.65781 4.11027 7.58594 4.08301ZM16.3281 4.10742C16.3514 4.10216 16.3741 4.09566 16.3965 4.08789C16.3741 4.09559 16.3514 4.10223 16.3281 4.10742ZM7.48242 4.03223C7.51248 4.05062 7.54421 4.06599 7.57715 4.0791C7.54422 4.06603 7.51247 4.05058 7.48242 4.03223ZM16.6152 3.95996C16.562 4.00949 16.4992 4.0474 16.4316 4.0752C16.4632 4.06211 16.4946 4.04818 16.5234 4.03027L16.6152 3.96094C16.6361 3.94151 16.6535 3.91928 16.6709 3.89746C16.6536 3.91905 16.636 3.94068 16.6152 3.95996ZM7.31934 3.88477C7.33947 3.91164 7.36152 3.93751 7.38672 3.96094C7.41404 3.98629 7.44404 4.00846 7.47559 4.02832C7.44391 4.0084 7.41415 3.98547 7.38672 3.95996C7.36168 3.93667 7.33938 3.91138 7.31934 3.88477ZM7.2627 3.78906C7.27353 3.81196 7.28577 3.83405 7.2998 3.85547C7.28572 3.83408 7.27357 3.81194 7.2627 3.78906ZM7.22852 3.69629C7.23501 3.72091 7.24296 3.74499 7.25293 3.76855C7.24293 3.74501 7.23503 3.72094 7.22852 3.69629ZM7.21875 3.46484C7.21446 3.48768 7.21219 3.51083 7.21094 3.53418C7.2122 3.51083 7.21442 3.48767 7.21875 3.46484ZM7.25684 3.34375C7.24389 3.37241 7.23426 3.40226 7.22656 3.43262C7.23432 3.40229 7.24384 3.37239 7.25684 3.34375ZM7.47559 3.0957C7.44388 3.11563 7.41416 3.13859 7.38672 3.16406L7.34863 3.20703C7.36107 3.19295 7.37274 3.17804 7.38672 3.16504C7.41428 3.13941 7.44374 3.11569 7.47559 3.0957ZM16.5234 3.09473C16.5562 3.11508 16.5869 3.13873 16.6152 3.16504V3.16406C16.5869 3.1378 16.5562 3.11407 16.5234 3.09375V3.09473ZM7.57715 3.04492C7.54425 3.058 7.51246 3.07345 7.48242 3.0918C7.51245 3.07349 7.54426 3.05795 7.57715 3.04492ZM7.68848 3.01172C7.65338 3.01866 7.61905 3.02844 7.58594 3.04102C7.61902 3.02849 7.65339 3.01865 7.68848 3.01172ZM20.3965 6.44824C20.4325 6.44822 20.468 6.44426 20.5029 6.43848C20.468 6.44432 20.4325 6.44822 20.3965 6.44824ZM7.30371 3.25977C7.28543 3.28645 7.26997 3.31468 7.25684 3.34375C7.27001 3.31472 7.28543 3.28643 7.30371 3.25977Z" fill="#33363D"/>
</svg>
