<svg width="20" height="20" viewBox="0 0 20 20" fill="none" xmlns="http://www.w3.org/2000/svg">
<path d="M12.6143 4.27344C12.9175 4.27347 13.2084 4.39397 13.4229 4.6084C13.6372 4.82284 13.7578 5.1138 13.7578 5.41699V6.88672H15.4502C15.674 6.8865 15.8931 6.95213 16.0801 7.0752C16.2671 7.19833 16.4137 7.3743 16.502 7.58008L17.3975 9.69043L18.5938 10.7295C18.7166 10.8384 18.8153 10.9724 18.8828 11.1221C18.9503 11.2718 18.9851 11.4344 18.9854 11.5986V15.2188C18.9853 15.3487 18.9337 15.4736 18.8418 15.5654C18.7499 15.6572 18.625 15.709 18.4951 15.709H17.6064C17.5039 16.0871 17.2799 16.4211 16.9688 16.6592C16.6576 16.8972 16.2766 17.0264 15.8848 17.0264C15.493 17.0264 15.112 16.8972 14.8008 16.6592C14.4897 16.4211 14.2656 16.0871 14.1631 15.709H7.15137C7.04887 16.0871 6.82478 16.4211 6.51367 16.6592C6.20254 16.8972 5.82143 17.0263 5.42969 17.0264C5.03797 17.0264 4.65686 16.8971 4.3457 16.6592C4.03454 16.4211 3.80953 16.0871 3.70703 15.709H2.15918C1.85605 15.709 1.56501 15.5883 1.35059 15.374C1.1362 15.1596 1.01571 14.8686 1.01562 14.5654V5.41699C1.01563 5.1137 1.13613 4.82286 1.35059 4.6084C1.56504 4.39397 1.85591 4.27344 2.15918 4.27344H12.6143ZM5.2666 14.417C5.10829 14.4485 4.96282 14.5265 4.84863 14.6406C4.7344 14.7549 4.65652 14.9011 4.625 15.0596C4.59357 15.2179 4.61009 15.3821 4.67188 15.5312C4.73371 15.6804 4.8384 15.8078 4.97266 15.8975C5.10687 15.9871 5.26439 16.0351 5.42578 16.0352C5.53287 16.0352 5.63932 16.0145 5.73828 15.9736C5.83738 15.9326 5.92806 15.8717 6.00391 15.7959C6.07962 15.7201 6.13966 15.6302 6.18066 15.5312C6.22169 15.4322 6.24314 15.326 6.24316 15.2188C6.24316 15.0572 6.19522 14.899 6.10547 14.7646C6.01572 14.6303 5.88754 14.5257 5.73828 14.4639C5.58913 14.4022 5.42492 14.3855 5.2666 14.417ZM15.7217 14.417C15.5634 14.4485 15.4179 14.5265 15.3037 14.6406C15.1895 14.7549 15.1116 14.9011 15.0801 15.0596C15.0487 15.2179 15.0652 15.3821 15.127 15.5312C15.1888 15.6804 15.2935 15.8077 15.4277 15.8975C15.5621 15.9872 15.7203 16.0352 15.8818 16.0352C16.0983 16.0351 16.3059 15.949 16.459 15.7959C16.6121 15.6428 16.6982 15.4353 16.6982 15.2188C16.6982 15.0572 16.6503 14.899 16.5605 14.7646C16.4708 14.6305 16.3434 14.5257 16.1943 14.4639C16.0451 14.402 15.8801 14.3855 15.7217 14.417ZM2.15918 5.25293C2.11587 5.25293 2.0736 5.27017 2.04297 5.30078C2.01233 5.33142 1.99512 5.37367 1.99512 5.41699V14.5654C1.9952 14.6086 2.0125 14.6501 2.04297 14.6807C2.07361 14.7113 2.11585 14.7285 2.15918 14.7285H3.70117C3.80365 14.3503 4.02768 14.0164 4.33887 13.7783C4.65008 13.5402 5.03099 13.4111 5.42285 13.4111C5.8147 13.4111 6.19563 13.5402 6.50684 13.7783C6.81802 14.0164 7.04206 14.3503 7.14453 14.7285H12.7773V5.41699C12.7773 5.37367 12.7601 5.33142 12.7295 5.30078C12.6989 5.27035 12.6574 5.25296 12.6143 5.25293H2.15918ZM13.751 10.4814V14.7285H14.1562C14.2587 14.3504 14.4828 14.0164 14.7939 13.7783C15.1051 13.5403 15.4862 13.4112 15.8779 13.4111C16.2697 13.4111 16.6507 13.5403 16.9619 13.7783C17.2731 14.0164 17.4971 14.3503 17.5996 14.7285H18.0049L17.999 11.5986C17.9973 11.549 17.9754 11.502 17.9395 11.4678L16.8027 10.4814H13.751ZM13.7578 7.86719V9.50098H16.2539L15.6006 7.96484C15.5878 7.93573 15.5667 7.91092 15.54 7.89355C15.5133 7.87615 15.4821 7.86708 15.4502 7.86719H13.7578Z" fill="white"/>
</svg>
