<svg width="24" height="24" viewBox="0 0 24 24" fill="none" xmlns="http://www.w3.org/2000/svg">
<path fill-rule="evenodd" clip-rule="evenodd" d="M4.13137 2.99994C3.81895 2.68752 3.31242 2.68752 3 2.99994C2.68758 3.31236 2.68758 3.81889 3 4.13131L6.06788 7.19909C6.06767 7.19921 6.06746 7.19932 6.06725 7.19944L7.25327 8.38542C7.25348 8.38531 7.2537 8.3852 7.25392 8.3851L8.80688 9.938C8.80675 9.9382 8.80662 9.9384 8.80649 9.93859L9.98404 11.1161C9.98414 11.1159 9.98424 11.1157 9.98434 11.1154L12.884 14.015C12.8838 14.0151 12.8835 14.0152 12.8833 14.0153L14.0609 15.1928C14.0611 15.1927 14.0613 15.1925 14.0615 15.1924L15.1892 16.3202C15.189 16.3202 15.1887 16.3203 15.1885 16.3204L16.4702 17.6021C16.4704 17.602 16.4707 17.6019 16.4709 17.6018L19.8692 21C20.1816 21.3124 20.6882 21.3124 21.0006 21C21.313 20.6876 21.313 20.1811 21.0006 19.8686L4.13137 2.99994ZM2.02522 11.9047C2.46806 10.183 3.72421 8.69832 5.361 7.62456L6.52105 8.78458L6.46851 8.81656C5.02243 9.70337 4.02468 10.8673 3.63697 12.087C4.19817 13.5856 6.61193 16.7001 12 16.7001C12.8202 16.7001 13.5707 16.6352 14.2558 16.5191L15.6013 17.8645C14.5436 18.1402 13.3457 18.3001 12 18.3001C5.62149 18.3001 2.62791 14.3893 2.03147 12.3261C1.99175 12.1887 1.98959 12.0432 2.02522 11.9047ZM8.19922 12.0001C8.19922 11.541 8.28066 11.1008 8.42988 10.6933L9.80011 12.0635C9.83307 13.2282 10.7712 14.1663 11.9359 14.1992L13.3061 15.5694C12.8986 15.7187 12.4584 15.8001 11.9992 15.8001C9.90054 15.8001 8.19922 14.0988 8.19922 12.0001ZM15.5687 13.3065L14.1983 11.9362C14.1651 10.772 13.2273 9.83424 12.0631 9.80104L10.6927 8.4307C11.1001 8.28154 11.5402 8.20013 11.9992 8.20013C14.0979 8.20013 15.7992 9.90145 15.7992 12.0001C15.7992 12.4592 15.7178 12.8992 15.5687 13.3065ZM12 7.30013C11.2435 7.30013 10.5005 7.37917 9.78763 7.52565L8.46817 6.20623C9.58352 5.87991 10.7781 5.70013 12 5.70013C16.6464 5.70013 20.8266 8.32803 21.9609 11.8593C22.0058 11.9991 22.0114 12.1486 21.977 12.2913C21.6557 13.625 20.6226 15.2622 18.7529 16.4906L17.5931 15.3309C19.2093 14.3613 20.0635 13.0712 20.3616 12.1305C19.3862 9.5277 16.0411 7.30013 12 7.30013Z" fill="#33363D"/>
</svg>
