<svg width="16" height="16" viewBox="0 0 16 16" fill="none" xmlns="http://www.w3.org/2000/svg">
<path d="M13.4878 2.09766H2.51219C1.38544 2.09766 0.46875 3.01434 0.46875 4.14112V11.8583C0.46875 12.9851 1.38544 13.9018 2.51219 13.9018H13.4878C14.6146 13.9018 15.5312 12.9851 15.5312 11.8583V4.14112C15.5312 3.01434 14.6146 2.09766 13.4878 2.09766ZM14.5312 11.8583C14.5312 12.4337 14.0632 12.9018 13.4878 12.9018H2.51219C1.93681 12.9018 1.46875 12.4337 1.46875 11.8583V4.14112C1.46875 3.56575 1.93684 3.09766 2.51219 3.09766H13.4878C14.0632 3.09766 14.5312 3.56575 14.5312 4.14112V11.8583ZM13.3487 7.73006C13.4539 7.89444 13.4539 8.10506 13.3487 8.26944L12.2828 9.93353C12.1874 10.0826 12.0261 10.1639 11.8613 10.1639C11.769 10.1639 11.6756 10.1384 11.5921 10.0849C11.3596 9.93594 11.2918 9.62672 11.4408 9.39416L12.0136 8.49972H3.98641L4.55928 9.39409C4.70822 9.62662 4.64047 9.93587 4.40791 10.0848C4.32441 10.1383 4.231 10.1638 4.13872 10.1638C3.97397 10.1638 3.81266 10.0825 3.71722 9.93347L2.65138 8.26941C2.54609 8.10503 2.54609 7.89441 2.65138 7.73003L3.71722 6.06594C3.86616 5.83341 4.17537 5.76569 4.40794 5.91456C4.64047 6.06353 4.70825 6.37275 4.55931 6.60531L3.98641 7.49972H12.0136L11.4408 6.60531C11.2918 6.37278 11.3596 6.06353 11.5921 5.91456C11.8247 5.76566 12.1339 5.83347 12.2828 6.06594L13.3487 7.73006Z" fill="#0B50D0"/>
</svg>
